<?xml version="1.0" encoding="UTF-8" standalone="no"?>
<!-- Created with Inkscape (http://www.inkscape.org/) -->

<svg
   width="86.299988mm"
   height="30.299995mm"
   viewBox="0 0 86.299988 30.299995"
   version="1.1"
   id="svg1481"
   inkscape:version="1.2.2 (b0a8486, 2022-12-01)"
   sodipodi:docname="split.svg"
   xmlns:inkscape="http://www.inkscape.org/namespaces/inkscape"
   xmlns:sodipodi="http://sodipodi.sourceforge.net/DTD/sodipodi-0.dtd"
   xmlns="http://www.w3.org/2000/svg"
   xmlns:svg="http://www.w3.org/2000/svg">
  <sodipodi:namedview
     id="namedview1483"
     pagecolor="#ffffff"
     bordercolor="#000000"
     borderopacity="0.25"
     inkscape:showpageshadow="2"
     inkscape:pageopacity="0.0"
     inkscape:pagecheckerboard="0"
     inkscape:deskcolor="#d1d1d1"
     inkscape:document-units="mm"
     showgrid="false"
     inkscape:zoom="0.914906"
     inkscape:cx="-215.86917"
     inkscape:cy="139.35858"
     inkscape:window-width="1390"
     inkscape:window-height="1205"
     inkscape:window-x="0"
     inkscape:window-y="25"
     inkscape:window-maximized="0"
     inkscape:current-layer="layer1" />
  <defs
     id="defs1478" />
  <g
     inkscape:label="Layer 1"
     inkscape:groupmode="layer"
     id="layer1"
     transform="translate(-101.44592,-111.51602)">
    <path
       style="fill:none;stroke:#84bd00;stroke-width:0.3;stroke-linejoin:round"
       d="m 110.59591,122.66602 2,-9 12,6 z"
       id="path62583-6"
       inkscape:export-filename="collapse.png"
       inkscape:export-xdpi="300"
       inkscape:export-ydpi="300" />
    <path
       style="fill:none;stroke:#84bd00;stroke-width:0.3;stroke-linejoin:round"
       d="m 124.59591,119.66602 10,4 -4,9 z"
       id="path62585-5" />
    <path
       style="fill:none;stroke:#84bd00;stroke-width:0.3;stroke-linejoin:round"
       d="m 116.59591,130.66602 14,2 -3,8 z"
       id="path62587-5"
       sodipodi:nodetypes="cccc" />
    <path
       style="fill:none;stroke:#84bd00;stroke-width:0.3;stroke-linejoin:round"
       d="m 116.59591,130.66602 -1,11 12,-1 z"
       id="path62589-81"
       sodipodi:nodetypes="cccc" />
    <path
       style="fill:none;stroke:#84bd00;stroke-width:0.3;stroke-linejoin:round"
       d="m 116.59591,130.66602 -10,4 9,7 z"
       id="path62591-47"
       sodipodi:nodetypes="cccc" />
    <path
       style="fill:none;stroke:#84bd00;stroke-width:0.3;stroke-linejoin:round"
       d="m 116.59591,130.66602 -6,-8 -4,12 z"
       id="path62593-1"
       sodipodi:nodetypes="cccc" />
    <path
       style="fill:none;stroke:#84bd00;stroke-width:0.3;stroke-linejoin:round"
       d="m 110.59591,122.66602 -9,3 5,9 z"
       id="path62595-3" />
    <path
       style="fill:none;stroke:#84bd00;stroke-width:0.3;stroke-linejoin:round"
       d="m 110.59591,122.66602 -6,-7 -3,10 z"
       id="path62597-8" />
    <path
       style="fill:none;stroke:#84bd00;stroke-width:0.3;stroke-linejoin:round"
       d="m 110.59591,122.66602 2,-9 -8,2 z"
       id="path62599-4" />
    <path
       style="fill:none;stroke:#84bd00;stroke-width:0.3;stroke-linejoin:round"
       d="m 130.59591,132.66602 7,-1 -3,-8 z"
       id="path62601-8" />
    <path
       style="fill:none;stroke:#84bd00;stroke-width:0.3;stroke-linejoin:round"
       d="m 130.59591,132.66602 3,6 4,-7 z"
       id="path62603-0" />
    <path
       style="fill:none;stroke:#84bd00;stroke-width:0.3;stroke-linejoin:round"
       d="m 130.59591,132.66602 -3,8 6,-2 z"
       id="path62605-4" />
    <path
       style="fill:none;stroke:#84bd00;stroke-width:0.3;stroke-linejoin:round"
       d="m 124.59591,119.66602 -1,-8 9,5 -8,3 -1,-8 -11,2 12,6 8,-3 2,7 -10,-4"
       id="path62607-60" />
    <path
       style="fill:none;stroke:#84bd00;stroke-width:0.3;stroke-linejoin:round"
       d="m 116.59591,130.66602 -3,-7 -3,-1.00001 z"
       id="path1430"
       sodipodi:nodetypes="cccc" />
    <path
       style="fill:none;stroke:#0085ad;stroke-width:0.3;stroke-linejoin:round"
       d="m 110.59591,122.66601 3,1.00001"
       id="path1488" />
    <path
       style="fill:none;stroke:#84bd00;stroke-width:0.3;stroke-linejoin:round"
       d="m 113.59591,123.66602 11,-4 -6,5 z"
       id="path1997" />
    <path
       style="fill:none;stroke:#84bd00;stroke-width:0.3;stroke-linejoin:round"
       d="m 118.59591,124.66602 -5,-1 3,7 z"
       id="path1999" />
    <path
       style="fill:none;stroke:#84bd00;stroke-width:0.3;stroke-linejoin:round"
       d="m 116.59591,130.66602 2,-6 12,8 z"
       id="path2001" />
    <path
       style="fill:none;stroke:#84bd00;stroke-width:0.3;stroke-linejoin:round"
       d="m 160.59591,122.66602 2,-9 12,6 z"
       id="path62583-6-6" />
    <path
       style="fill:none;stroke:#84bd00;stroke-width:0.3;stroke-linejoin:round"
       d="m 174.59591,119.66602 10,4 -4,9 z"
       id="path62585-5-4" />
    <path
       style="fill:none;stroke:#84bd00;stroke-width:0.3;stroke-linejoin:round"
       d="m 166.59591,130.66602 14,2 -3,8 z"
       id="path62587-5-6"
       sodipodi:nodetypes="cccc" />
    <path
       style="fill:none;stroke:#84bd00;stroke-width:0.3;stroke-linejoin:round"
       d="m 166.59591,130.66602 -1,11 12,-1 z"
       id="path62589-81-4"
       sodipodi:nodetypes="cccc" />
    <path
       style="fill:none;stroke:#84bd00;stroke-width:0.3;stroke-linejoin:round"
       d="m 166.59591,130.66602 -10,4 9,7 z"
       id="path62591-47-3"
       sodipodi:nodetypes="cccc" />
    <path
       style="fill:none;stroke:#84bd00;stroke-width:0.3;stroke-linejoin:round"
       d="m 166.59591,130.66602 -6,-8 -4,12 z"
       id="path62593-1-8"
       sodipodi:nodetypes="cccc" />
    <path
       style="fill:none;stroke:#84bd00;stroke-width:0.3;stroke-linejoin:round"
       d="m 160.59591,122.66602 -9,3 5,9 z"
       id="path62595-3-4" />
    <path
       style="fill:none;stroke:#84bd00;stroke-width:0.3;stroke-linejoin:round"
       d="m 160.59591,122.66602 -6,-7 -3,10 z"
       id="path62597-8-0" />
    <path
       style="fill:none;stroke:#84bd00;stroke-width:0.3;stroke-linejoin:round"
       d="m 160.59591,122.66602 2,-9 -8,2 z"
       id="path62599-4-0" />
    <path
       style="fill:none;stroke:#84bd00;stroke-width:0.3;stroke-linejoin:round"
       d="m 180.59591,132.66602 7,-1 -3,-8 z"
       id="path62601-8-9" />
    <path
       style="fill:none;stroke:#84bd00;stroke-width:0.3;stroke-linejoin:round"
       d="m 180.59591,132.66602 3,6 4,-7 z"
       id="path62603-0-3" />
    <path
       style="fill:none;stroke:#84bd00;stroke-width:0.3;stroke-linejoin:round"
       d="m 180.59591,132.66602 -3,8 6,-2 z"
       id="path62605-4-7" />
    <path
       style="fill:none;stroke:#84bd00;stroke-width:0.3;stroke-linejoin:round"
       d="m 174.59591,119.66602 -1,-8 9,5 -8,3 -1,-8 -11,2 12,6 8,-3 2,7 -10,-4"
       id="path62607-60-5" />
    <path
       style="fill:none;stroke:#84bd00;stroke-width:0.3;stroke-linejoin:round"
       d="m 166.59591,130.66602 2,-6 12,8 z"
       id="path2001-5" />
    <path
       style="fill:none;stroke:#a51890;stroke-width:0.3;stroke-linejoin:round"
       d="m 160.59591,122.66601 8,2.00001 -2,6 -6,-8.00001"
       id="path2110" />
    <path
       style="fill:none;stroke:#a51890;stroke-width:0.3;stroke-linejoin:round"
       d="m 160.59591,122.66601 14,-2.99999 -6,5 z"
       id="path2112" />
  </g>
</svg>
