<?xml version="1.0" encoding="UTF-8" standalone="no"?>
<!-- Created with Inkscape (http://www.inkscape.org/) -->

<svg
   width="126.29999mm"
   height="30.299995mm"
   viewBox="0 0 126.29999 30.299995"
   version="1.1"
   id="svg2569"
   inkscape:version="1.2.2 (b0a8486, 2022-12-01)"
   sodipodi:docname="collapse-cavity.svg"
   xmlns:inkscape="http://www.inkscape.org/namespaces/inkscape"
   xmlns:sodipodi="http://sodipodi.sourceforge.net/DTD/sodipodi-0.dtd"
   xmlns="http://www.w3.org/2000/svg"
   xmlns:svg="http://www.w3.org/2000/svg">
  <sodipodi:namedview
     id="namedview2571"
     pagecolor="#ffffff"
     bordercolor="#000000"
     borderopacity="0.25"
     inkscape:showpageshadow="2"
     inkscape:pageopacity="0.0"
     inkscape:pagecheckerboard="0"
     inkscape:deskcolor="#d1d1d1"
     inkscape:document-units="mm"
     showgrid="false"
     inkscape:zoom="0.914906"
     inkscape:cx="238.82235"
     inkscape:cy="57.382944"
     inkscape:window-width="1390"
     inkscape:window-height="1205"
     inkscape:window-x="0"
     inkscape:window-y="25"
     inkscape:window-maximized="0"
     inkscape:current-layer="layer1" />
  <defs
     id="defs2566" />
  <g
     inkscape:label="Layer 1"
     inkscape:groupmode="layer"
     id="layer1"
     transform="translate(18.759053,-133.35)">
    <path
       style="fill:none;stroke:#84bd00;stroke-width:0.3;stroke-linejoin:round"
       d="m -9.60906,144.5 2,-9 12,6 z"
       id="path62583-6-5" />
    <path
       style="fill:none;stroke:#84bd00;stroke-width:0.3;stroke-linejoin:round"
       d="m 4.39094,141.5 10,4 -4,9 z"
       id="path62585-5-0" />
    <path
       style="fill:none;stroke:#84bd00;stroke-width:0.3;stroke-linejoin:round"
       d="m -3.60906,152.5 14,2 -3,8 z"
       id="path62587-5-2"
       sodipodi:nodetypes="cccc" />
    <path
       style="fill:none;stroke:#84bd00;stroke-width:0.3;stroke-linejoin:round"
       d="m -3.60906,152.5 -1,11 12,-1 z"
       id="path62589-81-1"
       sodipodi:nodetypes="cccc" />
    <path
       style="fill:none;stroke:#84bd00;stroke-width:0.3;stroke-linejoin:round"
       d="m -3.60906,152.5 -10,4 9,7 z"
       id="path62591-47-8"
       sodipodi:nodetypes="cccc" />
    <path
       style="fill:none;stroke:#84bd00;stroke-width:0.3;stroke-linejoin:round"
       d="m -3.60906,152.5 -6,-8 -4,12 z"
       id="path62593-1-7"
       sodipodi:nodetypes="cccc" />
    <path
       style="fill:none;stroke:#84bd00;stroke-width:0.3;stroke-linejoin:round"
       d="m -9.60906,144.5 -9,3 5,9 z"
       id="path62595-3-1" />
    <path
       style="fill:none;stroke:#84bd00;stroke-width:0.3;stroke-linejoin:round"
       d="m -9.60906,144.5 -6,-7 -3,10 z"
       id="path62597-8-5" />
    <path
       style="fill:none;stroke:#84bd00;stroke-width:0.3;stroke-linejoin:round"
       d="m -9.60906,144.5 2,-9 -8,2 z"
       id="path62599-4-5" />
    <path
       style="fill:none;stroke:#84bd00;stroke-width:0.3;stroke-linejoin:round"
       d="m 10.39094,154.5 7,-1 -3,-8 z"
       id="path62601-8-8" />
    <path
       style="fill:none;stroke:#84bd00;stroke-width:0.3;stroke-linejoin:round"
       d="m 10.39094,154.5 3,6 4,-7 z"
       id="path62603-0-5" />
    <path
       style="fill:none;stroke:#84bd00;stroke-width:0.3;stroke-linejoin:round"
       d="m 10.39094,154.5 -3,8 6,-2 z"
       id="path62605-4-6" />
    <path
       style="fill:none;stroke:#84bd00;stroke-width:0.3;stroke-linejoin:round"
       d="m 4.39094,141.5 -1,-8 9,5 -8,3 -1,-8 -11,2 12,6 8,-3 2,7 -10,-4"
       id="path62607-60-7" />
    <path
       style="fill:none;stroke:#84bd00;stroke-width:0.3;stroke-linejoin:round"
       d="m -3.60906,152.5 -3,-7 -3,-1 z"
       id="path1430-9"
       sodipodi:nodetypes="cccc" />
    <path
       style="fill:none;stroke:#0085ad;stroke-width:0.3;stroke-linejoin:round"
       d="m -9.60906,144.5 3,1"
       id="path1488-4" />
    <path
       style="fill:none;stroke:#84bd00;stroke-width:0.3;stroke-linejoin:round"
       d="m -6.60906,145.5 11,-4 -6,5 z"
       id="path1997-1" />
    <path
       style="fill:none;stroke:#84bd00;stroke-width:0.3;stroke-linejoin:round"
       d="m -1.60906,146.5 -5,-1 3,7 z"
       id="path1999-6" />
    <path
       style="fill:none;stroke:#84bd00;stroke-width:0.3;stroke-linejoin:round"
       d="m -3.60906,152.5 2,-6 12,8 z"
       id="path2001-1" />
    <circle
       style="fill:none;stroke:#e4002b;stroke-width:0.3;stroke-linejoin:round"
       id="path2318"
       cx="-6.4978232"
       cy="145.56767"
       r="0.5" />
    <path
       style="fill:none;stroke:#84bd00;stroke-width:0.3;stroke-linejoin:round"
       d="m 35.39094,144.5 2,-9 12,6 z"
       id="path62583-6-5-2" />
    <path
       style="fill:none;stroke:#84bd00;stroke-width:0.3;stroke-linejoin:round"
       d="m 49.39094,141.5 10,4 -4,9 z"
       id="path62585-5-0-0" />
    <path
       style="fill:none;stroke:#84bd00;stroke-width:0.3;stroke-linejoin:round"
       d="m 41.39094,152.5 14,2 -3,8 z"
       id="path62587-5-2-4"
       sodipodi:nodetypes="cccc" />
    <path
       style="fill:none;stroke:#84bd00;stroke-width:0.3;stroke-linejoin:round"
       d="m 41.39094,152.5 -1,11 12,-1 z"
       id="path62589-81-1-4"
       sodipodi:nodetypes="cccc" />
    <path
       style="fill:none;stroke:#84bd00;stroke-width:0.3;stroke-linejoin:round"
       d="m 41.39094,152.5 -10,4 9,7 z"
       id="path62591-47-8-5"
       sodipodi:nodetypes="cccc" />
    <path
       style="fill:none;stroke:#84bd00;stroke-width:0.3;stroke-linejoin:round"
       d="m 41.39094,152.5 -6,-8 -4,12 z"
       id="path62593-1-7-9"
       sodipodi:nodetypes="cccc" />
    <path
       style="fill:none;stroke:#84bd00;stroke-width:0.3;stroke-linejoin:round"
       d="m 35.39094,144.5 -9,3 5,9 z"
       id="path62595-3-1-7" />
    <path
       style="fill:none;stroke:#84bd00;stroke-width:0.3;stroke-linejoin:round"
       d="m 35.39094,144.5 -6,-7 -3,10 z"
       id="path62597-8-5-5" />
    <path
       style="fill:none;stroke:#84bd00;stroke-width:0.3;stroke-linejoin:round"
       d="m 35.39094,144.5 2,-9 -8,2 z"
       id="path62599-4-5-3" />
    <path
       style="fill:none;stroke:#84bd00;stroke-width:0.3;stroke-linejoin:round"
       d="m 55.39094,154.5 7,-1 -3,-8 z"
       id="path62601-8-8-9" />
    <path
       style="fill:none;stroke:#84bd00;stroke-width:0.3;stroke-linejoin:round"
       d="m 55.39094,154.5 3,6 4,-7 z"
       id="path62603-0-5-0" />
    <path
       style="fill:none;stroke:#84bd00;stroke-width:0.3;stroke-linejoin:round"
       d="m 55.39094,154.5 -3,8 6,-2 z"
       id="path62605-4-6-5" />
    <path
       style="fill:none;stroke:#84bd00;stroke-width:0.3;stroke-linejoin:round"
       d="m 49.39094,141.5 -1,-8 9,5 -8,3 -1,-8 -11,2 12,6 8,-3 2,7 -10,-4"
       id="path62607-60-7-5" />
    <path
       style="fill:none;stroke:#84bd00;stroke-width:0.3;stroke-linejoin:round"
       d="m 41.39094,152.5 2,-6 12,8 z"
       id="path2001-1-8" />
    <path
       style="fill:none;stroke:#e4002b;stroke-width:0.3;stroke-linejoin:round"
       d="m 35.39094,144.5 14,-3 -6,5 -2,6 z"
       id="path2486" />
    <path
       style="fill:none;stroke:#84bd00;stroke-width:0.3;stroke-linejoin:round"
       d="m 80.39094,144.5 2,-9 12,6 z"
       id="path62583-6-5-2-0" />
    <path
       style="fill:none;stroke:#84bd00;stroke-width:0.3;stroke-linejoin:round"
       d="m 94.39094,141.5 10,4 -4,9 z"
       id="path62585-5-0-0-9" />
    <path
       style="fill:none;stroke:#84bd00;stroke-width:0.3;stroke-linejoin:round"
       d="m 86.39094,152.5 14,2 -3,8 z"
       id="path62587-5-2-4-3"
       sodipodi:nodetypes="cccc" />
    <path
       style="fill:none;stroke:#84bd00;stroke-width:0.3;stroke-linejoin:round"
       d="m 86.39094,152.5 -1,11 12,-1 z"
       id="path62589-81-1-4-4"
       sodipodi:nodetypes="cccc" />
    <path
       style="fill:none;stroke:#84bd00;stroke-width:0.3;stroke-linejoin:round"
       d="m 86.39094,152.5 -10,4 9,7 z"
       id="path62591-47-8-5-0"
       sodipodi:nodetypes="cccc" />
    <path
       style="fill:none;stroke:#84bd00;stroke-width:0.3;stroke-linejoin:round"
       d="m 86.39094,152.5 -6,-8 -4,12 z"
       id="path62593-1-7-9-7"
       sodipodi:nodetypes="cccc" />
    <path
       style="fill:none;stroke:#84bd00;stroke-width:0.3;stroke-linejoin:round"
       d="m 80.39094,144.5 -9,3 5,9 z"
       id="path62595-3-1-7-5" />
    <path
       style="fill:none;stroke:#84bd00;stroke-width:0.3;stroke-linejoin:round"
       d="m 80.39094,144.5 -6,-7 -3,10 z"
       id="path62597-8-5-5-7" />
    <path
       style="fill:none;stroke:#84bd00;stroke-width:0.3;stroke-linejoin:round"
       d="m 80.39094,144.5 2,-9 -8,2 z"
       id="path62599-4-5-3-5" />
    <path
       style="fill:none;stroke:#84bd00;stroke-width:0.3;stroke-linejoin:round"
       d="m 100.39094,154.5 7,-1 -3,-8 z"
       id="path62601-8-8-9-0" />
    <path
       style="fill:none;stroke:#84bd00;stroke-width:0.3;stroke-linejoin:round"
       d="m 100.39094,154.5 3,6 4,-7 z"
       id="path62603-0-5-0-6" />
    <path
       style="fill:none;stroke:#84bd00;stroke-width:0.3;stroke-linejoin:round"
       d="m 100.39094,154.5 -3,8 6,-2 z"
       id="path62605-4-6-5-4" />
    <path
       style="fill:none;stroke:#84bd00;stroke-width:0.3;stroke-linejoin:round"
       d="m 94.39094,141.5 -1,-8 9,5 -8,3 -1,-8 -11,2 12,6 8,-3 2,7 -10,-4"
       id="path62607-60-7-5-7" />
    <path
       style="fill:none;stroke:#84bd00;stroke-width:0.3;stroke-linejoin:round"
       d="m 86.39094,152.5 2,-6 12,8 z"
       id="path2001-1-8-8" />
    <path
       style="fill:none;stroke:#e4002b;stroke-width:0.3;stroke-linejoin:round"
       d="m 80.39094,144.5 14,-3 -6,5 -2,6 z"
       id="path2486-4" />
    <circle
       style="fill:none;stroke:#e4002b;stroke-width:0.3;stroke-linejoin:round"
       id="path2318-0"
       cx="80.417702"
       cy="144.4832"
       r="0.5" />
    <path
       style="fill:none;stroke:#e4002b;stroke-width:0.3;stroke-linejoin:round"
       d="m 80.39094,144.5 8,2"
       id="path2602" />
  </g>
</svg>
