<?xml version="1.0" encoding="utf-8" standalone="no"?>
<!DOCTYPE svg PUBLIC "-//W3C//DTD SVG 1.1//EN"
  "http://www.w3.org/Graphics/SVG/1.1/DTD/svg11.dtd">
<svg xmlns:xlink="http://www.w3.org/1999/xlink" width="460.8pt" height="345.6pt" viewBox="0 0 460.8 345.6" xmlns="http://www.w3.org/2000/svg" version="1.1">
 <metadata>
  <rdf:RDF xmlns:dc="http://purl.org/dc/elements/1.1/" xmlns:cc="http://creativecommons.org/ns#" xmlns:rdf="http://www.w3.org/1999/02/22-rdf-syntax-ns#">
   <cc:Work>
    <dc:type rdf:resource="http://purl.org/dc/dcmitype/StillImage"/>
    <dc:date>2023-07-21T16:57:51.271008</dc:date>
    <dc:format>image/svg+xml</dc:format>
    <dc:creator>
     <cc:Agent>
      <dc:title>Matplotlib v3.7.1, https://matplotlib.org/</dc:title>
     </cc:Agent>
    </dc:creator>
   </cc:Work>
  </rdf:RDF>
 </metadata>
 <defs>
  <style type="text/css">*{stroke-linejoin: round; stroke-linecap: butt}</style>
 </defs>
 <g id="figure_1">
  <g id="patch_1">
   <path d="M 0 345.6 
L 460.8 345.6 
L 460.8 0 
L 0 0 
z
" style="fill: #ffffff"/>
  </g>
  <g id="axes_1">
   <g id="patch_2">
    <path d="M 38.904687 304.44375 
L 212.357781 304.44375 
L 212.357781 33.21375 
L 38.904687 33.21375 
z
" style="fill: #ffffff"/>
   </g>
   <g id="matplotlib.axis_1">
    <g id="xtick_1">
     <g id="line2d_1">
      <defs>
       <path id="m8d99fabc28" d="M 0 0 
L 0 3.5 
" style="stroke: #000000; stroke-width: 0.8"/>
      </defs>
      <g>
       <use xlink:href="#m8d99fabc28" x="45.326435" y="304.44375" style="stroke: #000000; stroke-width: 0.8"/>
      </g>
     </g>
     <g id="text_1">
      <!-- −10 -->
      <g transform="translate(34.774092 319.042187) scale(0.1 -0.1)">
       <defs>
        <path id="DejaVuSans-2212" d="M 678 2272 
L 4684 2272 
L 4684 1741 
L 678 1741 
L 678 2272 
z
" transform="scale(0.015625)"/>
        <path id="DejaVuSans-31" d="M 794 531 
L 1825 531 
L 1825 4091 
L 703 3866 
L 703 4441 
L 1819 4666 
L 2450 4666 
L 2450 531 
L 3481 531 
L 3481 0 
L 794 0 
L 794 531 
z
" transform="scale(0.015625)"/>
        <path id="DejaVuSans-30" d="M 2034 4250 
Q 1547 4250 1301 3770 
Q 1056 3291 1056 2328 
Q 1056 1369 1301 889 
Q 1547 409 2034 409 
Q 2525 409 2770 889 
Q 3016 1369 3016 2328 
Q 3016 3291 2770 3770 
Q 2525 4250 2034 4250 
z
M 2034 4750 
Q 2819 4750 3233 4129 
Q 3647 3509 3647 2328 
Q 3647 1150 3233 529 
Q 2819 -91 2034 -91 
Q 1250 -91 836 529 
Q 422 1150 422 2328 
Q 422 3509 836 4129 
Q 1250 4750 2034 4750 
z
" transform="scale(0.015625)"/>
       </defs>
       <use xlink:href="#DejaVuSans-2212"/>
       <use xlink:href="#DejaVuSans-31" x="83.789062"/>
       <use xlink:href="#DejaVuSans-30" x="147.412109"/>
      </g>
     </g>
    </g>
    <g id="xtick_2">
     <g id="line2d_2">
      <g>
       <use xlink:href="#m8d99fabc28" x="85.51414" y="304.44375" style="stroke: #000000; stroke-width: 0.8"/>
      </g>
     </g>
     <g id="text_2">
      <!-- −5 -->
      <g transform="translate(78.143046 319.042187) scale(0.1 -0.1)">
       <defs>
        <path id="DejaVuSans-35" d="M 691 4666 
L 3169 4666 
L 3169 4134 
L 1269 4134 
L 1269 2991 
Q 1406 3038 1543 3061 
Q 1681 3084 1819 3084 
Q 2600 3084 3056 2656 
Q 3513 2228 3513 1497 
Q 3513 744 3044 326 
Q 2575 -91 1722 -91 
Q 1428 -91 1123 -41 
Q 819 9 494 109 
L 494 744 
Q 775 591 1075 516 
Q 1375 441 1709 441 
Q 2250 441 2565 725 
Q 2881 1009 2881 1497 
Q 2881 1984 2565 2268 
Q 2250 2553 1709 2553 
Q 1456 2553 1204 2497 
Q 953 2441 691 2322 
L 691 4666 
z
" transform="scale(0.015625)"/>
       </defs>
       <use xlink:href="#DejaVuSans-2212"/>
       <use xlink:href="#DejaVuSans-35" x="83.789062"/>
      </g>
     </g>
    </g>
    <g id="xtick_3">
     <g id="line2d_3">
      <g>
       <use xlink:href="#m8d99fabc28" x="125.701845" y="304.44375" style="stroke: #000000; stroke-width: 0.8"/>
      </g>
     </g>
     <g id="text_3">
      <!-- 0 -->
      <g transform="translate(122.520595 319.042187) scale(0.1 -0.1)">
       <use xlink:href="#DejaVuSans-30"/>
      </g>
     </g>
    </g>
    <g id="xtick_4">
     <g id="line2d_4">
      <g>
       <use xlink:href="#m8d99fabc28" x="165.889549" y="304.44375" style="stroke: #000000; stroke-width: 0.8"/>
      </g>
     </g>
     <g id="text_4">
      <!-- 5 -->
      <g transform="translate(162.708299 319.042187) scale(0.1 -0.1)">
       <use xlink:href="#DejaVuSans-35"/>
      </g>
     </g>
    </g>
    <g id="xtick_5">
     <g id="line2d_5">
      <g>
       <use xlink:href="#m8d99fabc28" x="206.077254" y="304.44375" style="stroke: #000000; stroke-width: 0.8"/>
      </g>
     </g>
     <g id="text_5">
      <!-- 10 -->
      <g transform="translate(199.714754 319.042187) scale(0.1 -0.1)">
       <use xlink:href="#DejaVuSans-31"/>
       <use xlink:href="#DejaVuSans-30" x="63.623047"/>
      </g>
     </g>
    </g>
   </g>
   <g id="matplotlib.axis_2">
    <g id="ytick_1">
     <g id="line2d_6">
      <defs>
       <path id="m1d2fd59bd0" d="M 0 0 
L -3.5 0 
" style="stroke: #000000; stroke-width: 0.8"/>
      </defs>
      <g>
       <use xlink:href="#m1d2fd59bd0" x="38.904687" y="287.84093" style="stroke: #000000; stroke-width: 0.8"/>
      </g>
     </g>
     <g id="text_6">
      <!-- −15 -->
      <g transform="translate(10.8 291.640148) scale(0.1 -0.1)">
       <use xlink:href="#DejaVuSans-2212"/>
       <use xlink:href="#DejaVuSans-31" x="83.789062"/>
       <use xlink:href="#DejaVuSans-35" x="147.412109"/>
      </g>
     </g>
    </g>
    <g id="ytick_2">
     <g id="line2d_7">
      <g>
       <use xlink:href="#m1d2fd59bd0" x="38.904687" y="248.190971" style="stroke: #000000; stroke-width: 0.8"/>
      </g>
     </g>
     <g id="text_7">
      <!-- −10 -->
      <g transform="translate(10.8 251.99019) scale(0.1 -0.1)">
       <use xlink:href="#DejaVuSans-2212"/>
       <use xlink:href="#DejaVuSans-31" x="83.789062"/>
       <use xlink:href="#DejaVuSans-30" x="147.412109"/>
      </g>
     </g>
    </g>
    <g id="ytick_3">
     <g id="line2d_8">
      <g>
       <use xlink:href="#m1d2fd59bd0" x="38.904687" y="208.541013" style="stroke: #000000; stroke-width: 0.8"/>
      </g>
     </g>
     <g id="text_8">
      <!-- −5 -->
      <g transform="translate(17.1625 212.340231) scale(0.1 -0.1)">
       <use xlink:href="#DejaVuSans-2212"/>
       <use xlink:href="#DejaVuSans-35" x="83.789062"/>
      </g>
     </g>
    </g>
    <g id="ytick_4">
     <g id="line2d_9">
      <g>
       <use xlink:href="#m1d2fd59bd0" x="38.904687" y="168.891054" style="stroke: #000000; stroke-width: 0.8"/>
      </g>
     </g>
     <g id="text_9">
      <!-- 0 -->
      <g transform="translate(25.542187 172.690273) scale(0.1 -0.1)">
       <use xlink:href="#DejaVuSans-30"/>
      </g>
     </g>
    </g>
    <g id="ytick_5">
     <g id="line2d_10">
      <g>
       <use xlink:href="#m1d2fd59bd0" x="38.904687" y="129.241096" style="stroke: #000000; stroke-width: 0.8"/>
      </g>
     </g>
     <g id="text_10">
      <!-- 5 -->
      <g transform="translate(25.542187 133.040314) scale(0.1 -0.1)">
       <use xlink:href="#DejaVuSans-35"/>
      </g>
     </g>
    </g>
    <g id="ytick_6">
     <g id="line2d_11">
      <g>
       <use xlink:href="#m1d2fd59bd0" x="38.904687" y="89.591137" style="stroke: #000000; stroke-width: 0.8"/>
      </g>
     </g>
     <g id="text_11">
      <!-- 10 -->
      <g transform="translate(19.179687 93.390356) scale(0.1 -0.1)">
       <use xlink:href="#DejaVuSans-31"/>
       <use xlink:href="#DejaVuSans-30" x="63.623047"/>
      </g>
     </g>
    </g>
    <g id="ytick_7">
     <g id="line2d_12">
      <g>
       <use xlink:href="#m1d2fd59bd0" x="38.904687" y="49.941179" style="stroke: #000000; stroke-width: 0.8"/>
      </g>
     </g>
     <g id="text_12">
      <!-- 15 -->
      <g transform="translate(19.179687 53.740397) scale(0.1 -0.1)">
       <use xlink:href="#DejaVuSans-31"/>
       <use xlink:href="#DejaVuSans-35" x="63.623047"/>
      </g>
     </g>
    </g>
   </g>
   <g id="line2d_13">
    <path d="M 47.994887 230.398823 
L 46.788919 225.243519 
L 49.272831 217.453236 
L 55.330479 207.39224 
L 64.678614 195.530971 
L 76.880127 182.424049 
L 91.36449 168.68434 
L 107.454429 154.954296 
L 124.397597 141.875919 
L 141.40175 130.06074 
L 157.671793 120.061224 
L 172.446957 112.344936 
L 185.036371 107.272681 
L 194.851369 105.081634 
L 201.433012 105.874243 
L 204.473549 109.613449 
L 203.83081 116.12441 
L 199.534846 125.102681 
L 191.786534 136.128447 
L 180.948175 148.686156 
L 167.526559 162.188624 
L 152.149266 176.00449 
L 135.535321 189.48774 
L 118.461573 202.007911 
L 101.726373 212.979575 
L 86.112238 221.889709 
L 72.34927 228.321685 
L 61.081009 231.97475 
L 52.834347 232.678092 
L 47.994887 230.398823 
" clip-path="url(#p0be3002400)" style="fill: none; stroke: #1f77b4; stroke-width: 1.5; stroke-linecap: square"/>
   </g>
   <g id="line2d_14">
    <path d="M 201.383555 292.115114 
L 196.797453 290.91818 
L 188.887 284.015393 
L 178.022079 271.72952 
L 164.710722 254.635035 
L 149.575353 233.531256 
L 133.323686 209.404974 
L 116.715629 183.384306 
L 100.527759 156.685949 
L 85.517 130.558289 
L 72.38524 106.223027 
L 61.746505 84.818053 
L 54.098251 67.344238 
L 49.798102 54.61864 
L 49.047127 47.236292 
L 51.880441 45.542386 
L 58.165562 49.616127 
L 67.608605 59.267031 
L 79.768023 74.043832 
L 94.075256 93.255584 
L 109.861312 116.003967 
L 126.388055 141.225291 
L 142.88271 167.740235 
L 158.574008 194.30899 
L 172.72824 219.689231 
L 184.68357 242.694205 
L 193.88098 262.248227 
L 199.890409 277.43697 
L 202.430864 287.550228 
L 201.383555 292.115114 
" clip-path="url(#p0be3002400)" style="fill: none; stroke: #ff7f0e; stroke-width: 1.5; stroke-linecap: square"/>
   </g>
   <g id="line2d_15">
    <path d="M 92.277268 197.732357 
L 89.720064 193.291708 
L 88.845329 187.710112 
L 89.693963 181.248558 
L 92.226285 174.209181 
L 96.323888 166.921133 
L 101.795171 159.725198 
L 108.384303 152.957847 
L 115.783185 146.935516 
L 123.645852 141.939801 
L 131.604655 138.204296 
L 139.287449 135.903671 
L 146.334995 135.145499 
L 152.417759 135.965231 
L 157.251315 138.324539 
L 160.609654 142.113102 
L 162.335742 147.153773 
L 162.34887 153.210855 
L 160.648424 160.001126 
L 157.313914 167.20708 
L 152.50126 174.491774 
L 146.435494 181.514586 
L 139.400246 187.947134 
L 131.724476 193.488642 
L 123.767094 197.879994 
L 115.90018 200.915855 
L 108.49158 202.454272 
L 101.887713 202.423311 
L 96.397368 200.824418 
L 92.277268 197.732357 
" clip-path="url(#p0be3002400)" style="fill: none; stroke: #1f77b4; stroke-width: 0.5; stroke-linecap: square"/>
   </g>
   <g id="line2d_16">
    <path d="M 103.213474 193.134327 
L 99.805598 189.015635 
L 97.608603 183.955939 
L 96.725215 178.191826 
L 97.196743 171.992819 
L 99.001138 165.648777 
L 102.054028 159.456341 
L 106.212664 153.705061 
L 111.282592 148.663861 
L 117.026749 144.568462 
L 123.176543 141.610361 
L 129.444417 139.927875 
L 135.537293 139.599674 
L 141.170275 140.641107 
L 146.07997 143.003475 
L 150.036806 146.576317 
L 152.855766 151.192572 
L 154.40504 156.636389 
L 154.612184 162.653219 
L 153.467512 168.961724 
L 151.024549 175.266925 
L 147.397524 181.273997 
L 142.756034 186.702056 
L 137.317108 191.297293 
L 131.335066 194.844839 
L 125.08962 197.178814 
L 118.872802 198.190086 
L 112.975302 197.831367 
L 107.672881 196.119431 
L 103.213474 193.134327 
" clip-path="url(#p0be3002400)" style="fill: none; stroke: #ff7f0e; stroke-width: 0.5; stroke-linecap: square"/>
   </g>
   <g id="line2d_17">
    <path d="M 118.558495 196.441401 
L 113.42779 194.460194 
L 108.871005 191.283403 
L 105.101212 187.05957 
L 102.294682 181.986197 
L 100.582644 176.30051 
L 100.045153 170.268366 
L 100.70734 164.171819 
L 102.538242 158.295939 
L 105.452248 152.915475 
L 109.313103 148.282011 
L 113.940278 144.612203 
L 119.11741 142.077647 
L 124.602423 140.796856 
L 130.138844 140.829718 
L 135.467796 142.174698 
L 140.340102 144.768905 
L 144.52794 148.491036 
L 147.835491 153.16705 
L 150.108097 158.578301 
L 151.239494 164.471764 
L 151.176778 170.571869 
L 149.922883 176.59338 
L 147.53644 182.25474 
L 144.129035 187.291228 
L 139.859994 191.467345 
L 134.928935 194.587819 
L 129.566427 196.506741 
L 124.023216 197.134385 
L 118.558495 196.441401 
" clip-path="url(#p0be3002400)" style="fill: none; stroke: #2ca02c; stroke-width: 0.5; stroke-linecap: square"/>
   </g>
   <g id="line2d_18">
    <path d="M 134.864329 196.494998 
L 129.858701 197.397754 
L 124.658702 196.967568 
L 119.50748 195.224556 
L 114.6459 192.250219 
L 110.301283 188.183633 
L 106.67678 183.214948 
L 103.941867 177.576493 
L 102.224427 171.531916 
L 101.604764 165.363856 
L 102.111855 159.360724 
L 103.721987 153.80322 
L 106.359873 148.951205 
L 109.902167 145.031556 
L 114.183238 142.227551 
L 119.002905 140.670301 
L 124.135808 140.432623 
L 129.341936 141.525629 
L 134.377858 143.898211 
L 139.0081 147.439432 
L 143.016155 151.983706 
L 146.214613 157.31855 
L 148.453916 163.19451 
L 149.629358 169.336835 
L 149.685976 175.458316 
L 148.621122 181.272718 
L 146.484589 186.508168 
L 143.376278 190.919861 
L 139.441529 194.301512 
L 134.864329 196.494998 
" clip-path="url(#p0be3002400)" style="fill: none; stroke: #d62728; stroke-width: 0.5; stroke-linecap: square"/>
   </g>
   <g id="line2d_19">
    <path d="M 139.397541 197.269159 
L 134.947721 198.545732 
L 130.065575 198.435685 
L 124.979386 196.944164 
L 119.926978 194.140911 
L 115.144596 190.157002 
L 110.85586 185.178721 
L 107.261305 179.438847 
L 104.52901 173.20577 
L 102.786732 166.770942 
L 102.11594 160.435248 
L 102.547999 154.494938 
L 104.062705 149.227774 
L 106.589234 144.880043 
L 110.009447 141.655041 
L 114.16342 139.703564 
L 118.856916 139.116862 
L 123.870473 139.922368 
L 128.969664 142.082418 
L 133.916054 145.496009 
L 138.478358 150.003527 
L 142.443246 155.394205 
L 145.625324 161.41598 
L 147.875803 167.787282 
L 149.089452 174.210194 
L 149.209523 180.38439 
L 148.230401 186.02117 
L 146.197868 190.856965 
L 143.206964 194.665658 
L 139.397541 197.269159 
" clip-path="url(#p0be3002400)" style="fill: none; stroke: #9467bd; stroke-width: 0.5; stroke-linecap: square"/>
   </g>
   <g id="line2d_20">
    <path d="M 142.343768 199.612875 
L 138.246942 200.849701 
L 133.563521 200.592177 
L 128.512497 198.852343 
L 123.33005 195.711552 
L 118.258506 191.316665 
L 113.535004 185.873181 
L 109.38041 179.635632 
L 105.988988 172.895678 
L 103.519317 165.968473 
L 102.086877 159.177924 
L 101.758646 152.84155 
L 102.549972 147.255634 
L 104.423855 142.681365 
L 107.292672 139.332633 
L 111.022282 137.366019 
L 115.438293 136.873481 
L 120.334215 137.878049 
L 125.481122 140.332751 
L 130.638349 144.122807 
L 135.564751 149.070999 
L 140.029975 154.945955 
L 143.825231 161.472968 
L 146.773057 168.346842 
L 148.735618 175.246164 
L 149.621144 181.848327 
L 149.388231 187.844623 
L 148.047769 192.954671 
L 145.662436 196.939531 
L 142.343768 199.612875 
" clip-path="url(#p0be3002400)" style="fill: none; stroke: #8c564b; stroke-width: 0.5; stroke-linecap: square"/>
   </g>
   <g id="line2d_21">
    <path d="M 145.539386 203.524135 
L 141.672471 204.611897 
L 137.058788 204.029392 
L 131.914066 201.803858 
L 126.478868 198.039357 
L 121.007337 192.911914 
L 115.755316 186.661282 
L 110.968384 179.579734 
L 106.870372 171.998396 
L 103.652899 164.271761 
L 101.46641 156.76112 
L 100.413142 149.81766 
L 100.542347 143.766052 
L 101.847982 138.889261 
L 104.268996 135.41532 
L 107.692187 133.506667 
L 111.95749 133.252549 
L 116.865463 134.664848 
L 122.186616 137.677526 
L 127.672137 142.149714 
L 133.065529 147.872297 
L 138.114603 154.577695 
L 142.583271 161.952368 
L 146.262582 169.651488 
L 148.980496 177.31505 
L 150.609926 184.584715 
L 151.074681 191.120562 
L 150.353031 196.616983 
L 148.478719 200.816969 
L 145.539386 203.524135 
" clip-path="url(#p0be3002400)" style="fill: none; stroke: #e377c2; stroke-width: 0.5; stroke-linecap: square"/>
   </g>
   <g id="line2d_22">
    <path d="M 150.123849 210.15031 
L 146.385862 211.010465 
L 141.680713 209.901163 
L 136.22841 206.874274 
L 130.283897 202.071333 
L 124.125132 195.716918 
L 118.040092 188.108155 
L 112.313307 179.600822 
L 107.212556 170.592713 
L 102.976343 161.505035 
L 99.802749 152.76272 
L 97.840168 144.774548 
L 97.180368 137.914037 
L 97.854201 132.501976 
L 99.830159 128.791429 
L 103.015848 126.955895 
L 107.262309 127.081203 
L 112.370982 129.161493 
L 118.102991 133.099493 
L 124.190314 138.711067 
L 130.348315 145.733823 
L 136.289052 153.839386 
L 141.734743 162.648748 
L 146.430754 171.749993 
L 150.157504 180.717558 
L 152.740734 189.132128 
L 154.059656 196.600248 
L 154.052598 202.772718 
L 152.71989 207.360918 
L 150.123849 210.15031 
" clip-path="url(#p0be3002400)" style="fill: none; stroke: #7f7f7f; stroke-width: 0.5; stroke-linecap: square"/>
   </g>
   <g id="line2d_23">
    <path d="M 158.997797 223.939199 
L 155.243416 224.404357 
L 150.107704 222.273775 
L 143.830801 217.647076 
L 136.706208 210.740599 
L 129.067063 201.877285 
L 121.270565 191.471571 
L 113.681268 180.010017 
L 106.65404 168.028552 
L 100.517466 156.087417 
L 95.558486 144.744967 
L 92.008975 134.53156 
L 90.034906 125.924765 
L 89.728583 119.327026 
L 91.10433 115.046846 
L 94.097818 113.284361 
L 98.569076 114.121984 
L 104.309031 117.520547 
L 111.049291 123.321138 
L 118.474688 131.252528 
L 126.238018 140.943853 
L 133.976278 151.941958 
L 141.327634 163.732585 
L 147.948346 175.764415 
L 153.528836 187.474855 
L 157.808167 198.316337 
L 160.586242 207.781926 
L 161.733162 215.42902 
L 161.195297 220.900051 
L 158.997797 223.939199 
" clip-path="url(#p0be3002400)" style="fill: none; stroke: #bcbd22; stroke-width: 0.5; stroke-linecap: square"/>
   </g>
   <g id="patch_3">
    <path d="M 38.904687 304.44375 
L 38.904687 33.21375 
" style="fill: none; stroke: #000000; stroke-width: 0.8; stroke-linejoin: miter; stroke-linecap: square"/>
   </g>
   <g id="patch_4">
    <path d="M 212.357781 304.44375 
L 212.357781 33.21375 
" style="fill: none; stroke: #000000; stroke-width: 0.8; stroke-linejoin: miter; stroke-linecap: square"/>
   </g>
   <g id="patch_5">
    <path d="M 38.904687 304.44375 
L 212.357781 304.44375 
" style="fill: none; stroke: #000000; stroke-width: 0.8; stroke-linejoin: miter; stroke-linecap: square"/>
   </g>
   <g id="patch_6">
    <path d="M 38.904687 33.21375 
L 212.357781 33.21375 
" style="fill: none; stroke: #000000; stroke-width: 0.8; stroke-linejoin: miter; stroke-linecap: square"/>
   </g>
   <g id="legend_1">
    <g id="patch_7">
     <path d="M 69.429672 129.2825 
L 181.832797 129.2825 
Q 183.832797 129.2825 183.832797 127.2825 
L 183.832797 40.21375 
Q 183.832797 38.21375 181.832797 38.21375 
L 69.429672 38.21375 
Q 67.429672 38.21375 67.429672 40.21375 
L 67.429672 127.2825 
Q 67.429672 129.2825 69.429672 129.2825 
z
" style="fill: #ffffff; opacity: 0.8; stroke: #cccccc; stroke-linejoin: miter"/>
    </g>
    <g id="line2d_24">
     <path d="M 71.429672 46.312187 
L 81.429672 46.312187 
L 91.429672 46.312187 
" style="fill: none; stroke: #1f77b4; stroke-width: 1.5; stroke-linecap: square"/>
    </g>
    <g id="text_13">
     <!-- $\mathcal{M}_1$ -->
     <g transform="translate(99.429672 49.812187) scale(0.1 -0.1)">
      <defs>
       <path id="STIXNonUnicode-Italic-e239" d="M 7123 346 
L 7219 224 
Q 6912 -205 6310 -205 
Q 6208 -205 6096 -169 
Q 5984 -134 5865 -12 
Q 5747 109 5747 307 
Q 5747 384 5779 653 
L 6061 3181 
L 6042 3181 
L 3405 51 
L 3309 51 
Q 2682 1382 2413 2650 
L 2406 2650 
Q 2400 2611 2345 2390 
Q 2291 2170 2265 2061 
Q 2240 1952 2179 1725 
Q 2118 1498 2060 1338 
Q 2003 1178 1926 976 
Q 1850 774 1760 592 
Q 1670 410 1568 250 
Q 1229 -288 813 -288 
Q 576 -288 416 -131 
Q 256 26 256 250 
Q 256 422 345 528 
Q 435 634 595 634 
Q 698 634 768 576 
Q 838 518 867 451 
Q 896 384 947 326 
Q 998 269 1062 269 
Q 1274 269 1446 570 
Q 1555 762 1673 1088 
Q 1792 1414 1881 1731 
Q 1971 2048 2076 2483 
Q 2182 2918 2236 3187 
Q 2291 3456 2371 3840 
Q 2451 4224 2464 4294 
L 2656 4294 
Q 2931 3136 3168 2329 
Q 3405 1523 3738 838 
L 6662 4294 
L 6835 4294 
L 6445 730 
Q 6432 614 6432 544 
Q 6432 173 6714 173 
Q 6950 173 7123 346 
z
" transform="scale(0.015625)"/>
      </defs>
      <use xlink:href="#STIXNonUnicode-Italic-e239" transform="translate(0 0.90625)"/>
      <use xlink:href="#DejaVuSans-31" transform="translate(117.557022 -15.5) scale(0.7)"/>
     </g>
    </g>
    <g id="line2d_25">
     <path d="M 71.429672 60.990312 
L 81.429672 60.990312 
L 91.429672 60.990312 
" style="fill: none; stroke: #ff7f0e; stroke-width: 1.5; stroke-linecap: square"/>
    </g>
    <g id="text_14">
     <!-- $\mathcal{M}_2$ -->
     <g transform="translate(99.429672 64.490312) scale(0.1 -0.1)">
      <defs>
       <path id="DejaVuSans-32" d="M 1228 531 
L 3431 531 
L 3431 0 
L 469 0 
L 469 531 
Q 828 903 1448 1529 
Q 2069 2156 2228 2338 
Q 2531 2678 2651 2914 
Q 2772 3150 2772 3378 
Q 2772 3750 2511 3984 
Q 2250 4219 1831 4219 
Q 1534 4219 1204 4116 
Q 875 4013 500 3803 
L 500 4441 
Q 881 4594 1212 4672 
Q 1544 4750 1819 4750 
Q 2544 4750 2975 4387 
Q 3406 4025 3406 3419 
Q 3406 3131 3298 2873 
Q 3191 2616 2906 2266 
Q 2828 2175 2409 1742 
Q 1991 1309 1228 531 
z
" transform="scale(0.015625)"/>
      </defs>
      <use xlink:href="#STIXNonUnicode-Italic-e239" transform="translate(0 0.90625)"/>
      <use xlink:href="#DejaVuSans-32" transform="translate(117.557022 -15.5) scale(0.7)"/>
     </g>
    </g>
    <g id="line2d_26">
     <path d="M 71.429672 75.668437 
L 81.429672 75.668437 
L 91.429672 75.668437 
" style="fill: none; stroke: #1f77b4; stroke-width: 0.5; stroke-linecap: square"/>
    </g>
    <g id="text_15">
     <!-- 0.1 -->
     <g transform="translate(99.429672 79.168437) scale(0.1 -0.1)">
      <defs>
       <path id="DejaVuSans-2e" d="M 684 794 
L 1344 794 
L 1344 0 
L 684 0 
L 684 794 
z
" transform="scale(0.015625)"/>
      </defs>
      <use xlink:href="#DejaVuSans-30"/>
      <use xlink:href="#DejaVuSans-2e" x="63.623047"/>
      <use xlink:href="#DejaVuSans-31" x="95.410156"/>
     </g>
    </g>
    <g id="line2d_27">
     <path d="M 71.429672 90.346562 
L 81.429672 90.346562 
L 91.429672 90.346562 
" style="fill: none; stroke: #ff7f0e; stroke-width: 0.5; stroke-linecap: square"/>
    </g>
    <g id="text_16">
     <!-- 0.2 -->
     <g transform="translate(99.429672 93.846562) scale(0.1 -0.1)">
      <use xlink:href="#DejaVuSans-30"/>
      <use xlink:href="#DejaVuSans-2e" x="63.623047"/>
      <use xlink:href="#DejaVuSans-32" x="95.410156"/>
     </g>
    </g>
    <g id="line2d_28">
     <path d="M 71.429672 105.024687 
L 81.429672 105.024687 
L 91.429672 105.024687 
" style="fill: none; stroke: #2ca02c; stroke-width: 0.5; stroke-linecap: square"/>
    </g>
    <g id="text_17">
     <!-- 0.3 -->
     <g transform="translate(99.429672 108.524687) scale(0.1 -0.1)">
      <defs>
       <path id="DejaVuSans-33" d="M 2597 2516 
Q 3050 2419 3304 2112 
Q 3559 1806 3559 1356 
Q 3559 666 3084 287 
Q 2609 -91 1734 -91 
Q 1441 -91 1130 -33 
Q 819 25 488 141 
L 488 750 
Q 750 597 1062 519 
Q 1375 441 1716 441 
Q 2309 441 2620 675 
Q 2931 909 2931 1356 
Q 2931 1769 2642 2001 
Q 2353 2234 1838 2234 
L 1294 2234 
L 1294 2753 
L 1863 2753 
Q 2328 2753 2575 2939 
Q 2822 3125 2822 3475 
Q 2822 3834 2567 4026 
Q 2313 4219 1838 4219 
Q 1578 4219 1281 4162 
Q 984 4106 628 3988 
L 628 4550 
Q 988 4650 1302 4700 
Q 1616 4750 1894 4750 
Q 2613 4750 3031 4423 
Q 3450 4097 3450 3541 
Q 3450 3153 3228 2886 
Q 3006 2619 2597 2516 
z
" transform="scale(0.015625)"/>
      </defs>
      <use xlink:href="#DejaVuSans-30"/>
      <use xlink:href="#DejaVuSans-2e" x="63.623047"/>
      <use xlink:href="#DejaVuSans-33" x="95.410156"/>
     </g>
    </g>
    <g id="line2d_29">
     <path d="M 71.429672 119.702812 
L 81.429672 119.702812 
L 91.429672 119.702812 
" style="fill: none; stroke: #d62728; stroke-width: 0.5; stroke-linecap: square"/>
    </g>
    <g id="text_18">
     <!-- 0.4 -->
     <g transform="translate(99.429672 123.202812) scale(0.1 -0.1)">
      <defs>
       <path id="DejaVuSans-34" d="M 2419 4116 
L 825 1625 
L 2419 1625 
L 2419 4116 
z
M 2253 4666 
L 3047 4666 
L 3047 1625 
L 3713 1625 
L 3713 1100 
L 3047 1100 
L 3047 0 
L 2419 0 
L 2419 1100 
L 313 1100 
L 313 1709 
L 2253 4666 
z
" transform="scale(0.015625)"/>
      </defs>
      <use xlink:href="#DejaVuSans-30"/>
      <use xlink:href="#DejaVuSans-2e" x="63.623047"/>
      <use xlink:href="#DejaVuSans-34" x="95.410156"/>
     </g>
    </g>
    <g id="line2d_30">
     <path d="M 135.929672 46.312187 
L 145.929672 46.312187 
L 155.929672 46.312187 
" style="fill: none; stroke: #9467bd; stroke-width: 0.5; stroke-linecap: square"/>
    </g>
    <g id="text_19">
     <!-- 0.5 -->
     <g transform="translate(163.929672 49.812187) scale(0.1 -0.1)">
      <use xlink:href="#DejaVuSans-30"/>
      <use xlink:href="#DejaVuSans-2e" x="63.623047"/>
      <use xlink:href="#DejaVuSans-35" x="95.410156"/>
     </g>
    </g>
    <g id="line2d_31">
     <path d="M 135.929672 60.990312 
L 145.929672 60.990312 
L 155.929672 60.990312 
" style="fill: none; stroke: #8c564b; stroke-width: 0.5; stroke-linecap: square"/>
    </g>
    <g id="text_20">
     <!-- 0.6 -->
     <g transform="translate(163.929672 64.490312) scale(0.1 -0.1)">
      <defs>
       <path id="DejaVuSans-36" d="M 2113 2584 
Q 1688 2584 1439 2293 
Q 1191 2003 1191 1497 
Q 1191 994 1439 701 
Q 1688 409 2113 409 
Q 2538 409 2786 701 
Q 3034 994 3034 1497 
Q 3034 2003 2786 2293 
Q 2538 2584 2113 2584 
z
M 3366 4563 
L 3366 3988 
Q 3128 4100 2886 4159 
Q 2644 4219 2406 4219 
Q 1781 4219 1451 3797 
Q 1122 3375 1075 2522 
Q 1259 2794 1537 2939 
Q 1816 3084 2150 3084 
Q 2853 3084 3261 2657 
Q 3669 2231 3669 1497 
Q 3669 778 3244 343 
Q 2819 -91 2113 -91 
Q 1303 -91 875 529 
Q 447 1150 447 2328 
Q 447 3434 972 4092 
Q 1497 4750 2381 4750 
Q 2619 4750 2861 4703 
Q 3103 4656 3366 4563 
z
" transform="scale(0.015625)"/>
      </defs>
      <use xlink:href="#DejaVuSans-30"/>
      <use xlink:href="#DejaVuSans-2e" x="63.623047"/>
      <use xlink:href="#DejaVuSans-36" x="95.410156"/>
     </g>
    </g>
    <g id="line2d_32">
     <path d="M 135.929672 75.668437 
L 145.929672 75.668437 
L 155.929672 75.668437 
" style="fill: none; stroke: #e377c2; stroke-width: 0.5; stroke-linecap: square"/>
    </g>
    <g id="text_21">
     <!-- 0.7 -->
     <g transform="translate(163.929672 79.168437) scale(0.1 -0.1)">
      <defs>
       <path id="DejaVuSans-37" d="M 525 4666 
L 3525 4666 
L 3525 4397 
L 1831 0 
L 1172 0 
L 2766 4134 
L 525 4134 
L 525 4666 
z
" transform="scale(0.015625)"/>
      </defs>
      <use xlink:href="#DejaVuSans-30"/>
      <use xlink:href="#DejaVuSans-2e" x="63.623047"/>
      <use xlink:href="#DejaVuSans-37" x="95.410156"/>
     </g>
    </g>
    <g id="line2d_33">
     <path d="M 135.929672 90.346562 
L 145.929672 90.346562 
L 155.929672 90.346562 
" style="fill: none; stroke: #7f7f7f; stroke-width: 0.5; stroke-linecap: square"/>
    </g>
    <g id="text_22">
     <!-- 0.8 -->
     <g transform="translate(163.929672 93.846562) scale(0.1 -0.1)">
      <defs>
       <path id="DejaVuSans-38" d="M 2034 2216 
Q 1584 2216 1326 1975 
Q 1069 1734 1069 1313 
Q 1069 891 1326 650 
Q 1584 409 2034 409 
Q 2484 409 2743 651 
Q 3003 894 3003 1313 
Q 3003 1734 2745 1975 
Q 2488 2216 2034 2216 
z
M 1403 2484 
Q 997 2584 770 2862 
Q 544 3141 544 3541 
Q 544 4100 942 4425 
Q 1341 4750 2034 4750 
Q 2731 4750 3128 4425 
Q 3525 4100 3525 3541 
Q 3525 3141 3298 2862 
Q 3072 2584 2669 2484 
Q 3125 2378 3379 2068 
Q 3634 1759 3634 1313 
Q 3634 634 3220 271 
Q 2806 -91 2034 -91 
Q 1263 -91 848 271 
Q 434 634 434 1313 
Q 434 1759 690 2068 
Q 947 2378 1403 2484 
z
M 1172 3481 
Q 1172 3119 1398 2916 
Q 1625 2713 2034 2713 
Q 2441 2713 2670 2916 
Q 2900 3119 2900 3481 
Q 2900 3844 2670 4047 
Q 2441 4250 2034 4250 
Q 1625 4250 1398 4047 
Q 1172 3844 1172 3481 
z
" transform="scale(0.015625)"/>
      </defs>
      <use xlink:href="#DejaVuSans-30"/>
      <use xlink:href="#DejaVuSans-2e" x="63.623047"/>
      <use xlink:href="#DejaVuSans-38" x="95.410156"/>
     </g>
    </g>
    <g id="line2d_34">
     <path d="M 135.929672 105.024687 
L 145.929672 105.024687 
L 155.929672 105.024687 
" style="fill: none; stroke: #bcbd22; stroke-width: 0.5; stroke-linecap: square"/>
    </g>
    <g id="text_23">
     <!-- 0.9 -->
     <g transform="translate(163.929672 108.524687) scale(0.1 -0.1)">
      <defs>
       <path id="DejaVuSans-39" d="M 703 97 
L 703 672 
Q 941 559 1184 500 
Q 1428 441 1663 441 
Q 2288 441 2617 861 
Q 2947 1281 2994 2138 
Q 2813 1869 2534 1725 
Q 2256 1581 1919 1581 
Q 1219 1581 811 2004 
Q 403 2428 403 3163 
Q 403 3881 828 4315 
Q 1253 4750 1959 4750 
Q 2769 4750 3195 4129 
Q 3622 3509 3622 2328 
Q 3622 1225 3098 567 
Q 2575 -91 1691 -91 
Q 1453 -91 1209 -44 
Q 966 3 703 97 
z
M 1959 2075 
Q 2384 2075 2632 2365 
Q 2881 2656 2881 3163 
Q 2881 3666 2632 3958 
Q 2384 4250 1959 4250 
Q 1534 4250 1286 3958 
Q 1038 3666 1038 3163 
Q 1038 2656 1286 2365 
Q 1534 2075 1959 2075 
z
" transform="scale(0.015625)"/>
      </defs>
      <use xlink:href="#DejaVuSans-30"/>
      <use xlink:href="#DejaVuSans-2e" x="63.623047"/>
      <use xlink:href="#DejaVuSans-39" x="95.410156"/>
     </g>
    </g>
   </g>
  </g>
  <g id="axes_2">
   <g id="patch_8">
    <path d="M 272.792607 304.44375 
L 446.2457 304.44375 
L 446.2457 33.21375 
L 272.792607 33.21375 
z
" style="fill: #ffffff"/>
   </g>
   <g id="matplotlib.axis_3">
    <g id="xtick_6">
     <g id="line2d_35">
      <g>
       <use xlink:href="#m8d99fabc28" x="280.676838" y="304.44375" style="stroke: #000000; stroke-width: 0.8"/>
      </g>
     </g>
     <g id="text_24">
      <!-- 0.00 -->
      <g transform="translate(269.544026 319.042187) scale(0.1 -0.1)">
       <use xlink:href="#DejaVuSans-30"/>
       <use xlink:href="#DejaVuSans-2e" x="63.623047"/>
       <use xlink:href="#DejaVuSans-30" x="95.410156"/>
       <use xlink:href="#DejaVuSans-30" x="159.033203"/>
      </g>
     </g>
    </g>
    <g id="xtick_7">
     <g id="line2d_36">
      <g>
       <use xlink:href="#m8d99fabc28" x="320.097996" y="304.44375" style="stroke: #000000; stroke-width: 0.8"/>
      </g>
     </g>
     <g id="text_25">
      <!-- 0.25 -->
      <g transform="translate(308.965183 319.042187) scale(0.1 -0.1)">
       <use xlink:href="#DejaVuSans-30"/>
       <use xlink:href="#DejaVuSans-2e" x="63.623047"/>
       <use xlink:href="#DejaVuSans-32" x="95.410156"/>
       <use xlink:href="#DejaVuSans-35" x="159.033203"/>
      </g>
     </g>
    </g>
    <g id="xtick_8">
     <g id="line2d_37">
      <g>
       <use xlink:href="#m8d99fabc28" x="359.519153" y="304.44375" style="stroke: #000000; stroke-width: 0.8"/>
      </g>
     </g>
     <g id="text_26">
      <!-- 0.50 -->
      <g transform="translate(348.386341 319.042187) scale(0.1 -0.1)">
       <use xlink:href="#DejaVuSans-30"/>
       <use xlink:href="#DejaVuSans-2e" x="63.623047"/>
       <use xlink:href="#DejaVuSans-35" x="95.410156"/>
       <use xlink:href="#DejaVuSans-30" x="159.033203"/>
      </g>
     </g>
    </g>
    <g id="xtick_9">
     <g id="line2d_38">
      <g>
       <use xlink:href="#m8d99fabc28" x="398.940311" y="304.44375" style="stroke: #000000; stroke-width: 0.8"/>
      </g>
     </g>
     <g id="text_27">
      <!-- 0.75 -->
      <g transform="translate(387.807498 319.042187) scale(0.1 -0.1)">
       <use xlink:href="#DejaVuSans-30"/>
       <use xlink:href="#DejaVuSans-2e" x="63.623047"/>
       <use xlink:href="#DejaVuSans-37" x="95.410156"/>
       <use xlink:href="#DejaVuSans-35" x="159.033203"/>
      </g>
     </g>
    </g>
    <g id="xtick_10">
     <g id="line2d_39">
      <g>
       <use xlink:href="#m8d99fabc28" x="438.361468" y="304.44375" style="stroke: #000000; stroke-width: 0.8"/>
      </g>
     </g>
     <g id="text_28">
      <!-- 1.00 -->
      <g transform="translate(427.228656 319.042187) scale(0.1 -0.1)">
       <use xlink:href="#DejaVuSans-31"/>
       <use xlink:href="#DejaVuSans-2e" x="63.623047"/>
       <use xlink:href="#DejaVuSans-30" x="95.410156"/>
       <use xlink:href="#DejaVuSans-30" x="159.033203"/>
      </g>
     </g>
    </g>
    <g id="text_29">
     <!-- $t$ -->
     <g transform="translate(357.519153 332.720312) scale(0.1 -0.1)">
      <defs>
       <path id="DejaVuSans-Oblique-74" d="M 2706 3500 
L 2619 3053 
L 1472 3053 
L 1100 1153 
Q 1081 1047 1072 975 
Q 1063 903 1063 863 
Q 1063 663 1183 572 
Q 1303 481 1569 481 
L 2150 481 
L 2053 0 
L 1503 0 
Q 991 0 739 200 
Q 488 400 488 806 
Q 488 878 497 964 
Q 506 1050 525 1153 
L 897 3053 
L 409 3053 
L 500 3500 
L 978 3500 
L 1172 4494 
L 1747 4494 
L 1556 3500 
L 2706 3500 
z
" transform="scale(0.015625)"/>
      </defs>
      <use xlink:href="#DejaVuSans-Oblique-74" transform="translate(0 0.78125)"/>
     </g>
    </g>
   </g>
   <g id="matplotlib.axis_4">
    <g id="ytick_8">
     <g id="line2d_40">
      <g>
       <use xlink:href="#m1d2fd59bd0" x="272.792607" y="271.786833" style="stroke: #000000; stroke-width: 0.8"/>
      </g>
     </g>
     <g id="text_30">
      <!-- 200 -->
      <g transform="translate(246.705107 275.586051) scale(0.1 -0.1)">
       <use xlink:href="#DejaVuSans-32"/>
       <use xlink:href="#DejaVuSans-30" x="63.623047"/>
       <use xlink:href="#DejaVuSans-30" x="127.246094"/>
      </g>
     </g>
    </g>
    <g id="ytick_9">
     <g id="line2d_41">
      <g>
       <use xlink:href="#m1d2fd59bd0" x="272.792607" y="226.569582" style="stroke: #000000; stroke-width: 0.8"/>
      </g>
     </g>
     <g id="text_31">
      <!-- 400 -->
      <g transform="translate(246.705107 230.368801) scale(0.1 -0.1)">
       <use xlink:href="#DejaVuSans-34"/>
       <use xlink:href="#DejaVuSans-30" x="63.623047"/>
       <use xlink:href="#DejaVuSans-30" x="127.246094"/>
      </g>
     </g>
    </g>
    <g id="ytick_10">
     <g id="line2d_42">
      <g>
       <use xlink:href="#m1d2fd59bd0" x="272.792607" y="181.352332" style="stroke: #000000; stroke-width: 0.8"/>
      </g>
     </g>
     <g id="text_32">
      <!-- 600 -->
      <g transform="translate(246.705107 185.15155) scale(0.1 -0.1)">
       <use xlink:href="#DejaVuSans-36"/>
       <use xlink:href="#DejaVuSans-30" x="63.623047"/>
       <use xlink:href="#DejaVuSans-30" x="127.246094"/>
      </g>
     </g>
    </g>
    <g id="ytick_11">
     <g id="line2d_43">
      <g>
       <use xlink:href="#m1d2fd59bd0" x="272.792607" y="136.135081" style="stroke: #000000; stroke-width: 0.8"/>
      </g>
     </g>
     <g id="text_33">
      <!-- 800 -->
      <g transform="translate(246.705107 139.9343) scale(0.1 -0.1)">
       <use xlink:href="#DejaVuSans-38"/>
       <use xlink:href="#DejaVuSans-30" x="63.623047"/>
       <use xlink:href="#DejaVuSans-30" x="127.246094"/>
      </g>
     </g>
    </g>
    <g id="ytick_12">
     <g id="line2d_44">
      <g>
       <use xlink:href="#m1d2fd59bd0" x="272.792607" y="90.917831" style="stroke: #000000; stroke-width: 0.8"/>
      </g>
     </g>
     <g id="text_34">
      <!-- 1000 -->
      <g transform="translate(240.342607 94.717049) scale(0.1 -0.1)">
       <use xlink:href="#DejaVuSans-31"/>
       <use xlink:href="#DejaVuSans-30" x="63.623047"/>
       <use xlink:href="#DejaVuSans-30" x="127.246094"/>
       <use xlink:href="#DejaVuSans-30" x="190.869141"/>
      </g>
     </g>
    </g>
    <g id="ytick_13">
     <g id="line2d_45">
      <g>
       <use xlink:href="#m1d2fd59bd0" x="272.792607" y="45.70058" style="stroke: #000000; stroke-width: 0.8"/>
      </g>
     </g>
     <g id="text_35">
      <!-- 1200 -->
      <g transform="translate(240.342607 49.499799) scale(0.1 -0.1)">
       <use xlink:href="#DejaVuSans-31"/>
       <use xlink:href="#DejaVuSans-32" x="63.623047"/>
       <use xlink:href="#DejaVuSans-30" x="127.246094"/>
       <use xlink:href="#DejaVuSans-30" x="190.869141"/>
      </g>
     </g>
    </g>
    <g id="text_36">
     <!-- $1/\sqrt{\det(\mathcal{M}(t))}$ -->
     <g transform="translate(234.262919 202.22875) rotate(-90) scale(0.1 -0.1)">
      <defs>
       <path id="DejaVuSans-2f" d="M 1625 4666 
L 2156 4666 
L 531 -594 
L 0 -594 
L 1625 4666 
z
" transform="scale(0.015625)"/>
       <path id="STIXSizeOneSym-Regular-221a" d="M 6970 9933 
L 3373 -1888 
L 3104 -1888 
L 1626 2918 
Q 1555 3149 1465 3251 
Q 1376 3354 1229 3354 
Q 1011 3354 794 3181 
L 717 3309 
L 1766 4115 
L 1926 4115 
L 3379 -602 
L 3405 -602 
L 6605 9933 
L 6970 9933 
z
" transform="scale(0.015625)"/>
       <path id="DejaVuSans-64" d="M 2906 2969 
L 2906 4863 
L 3481 4863 
L 3481 0 
L 2906 0 
L 2906 525 
Q 2725 213 2448 61 
Q 2172 -91 1784 -91 
Q 1150 -91 751 415 
Q 353 922 353 1747 
Q 353 2572 751 3078 
Q 1150 3584 1784 3584 
Q 2172 3584 2448 3432 
Q 2725 3281 2906 2969 
z
M 947 1747 
Q 947 1113 1208 752 
Q 1469 391 1925 391 
Q 2381 391 2643 752 
Q 2906 1113 2906 1747 
Q 2906 2381 2643 2742 
Q 2381 3103 1925 3103 
Q 1469 3103 1208 2742 
Q 947 2381 947 1747 
z
" transform="scale(0.015625)"/>
       <path id="DejaVuSans-65" d="M 3597 1894 
L 3597 1613 
L 953 1613 
Q 991 1019 1311 708 
Q 1631 397 2203 397 
Q 2534 397 2845 478 
Q 3156 559 3463 722 
L 3463 178 
Q 3153 47 2828 -22 
Q 2503 -91 2169 -91 
Q 1331 -91 842 396 
Q 353 884 353 1716 
Q 353 2575 817 3079 
Q 1281 3584 2069 3584 
Q 2775 3584 3186 3129 
Q 3597 2675 3597 1894 
z
M 3022 2063 
Q 3016 2534 2758 2815 
Q 2500 3097 2075 3097 
Q 1594 3097 1305 2825 
Q 1016 2553 972 2059 
L 3022 2063 
z
" transform="scale(0.015625)"/>
       <path id="DejaVuSans-74" d="M 1172 4494 
L 1172 3500 
L 2356 3500 
L 2356 3053 
L 1172 3053 
L 1172 1153 
Q 1172 725 1289 603 
Q 1406 481 1766 481 
L 2356 481 
L 2356 0 
L 1766 0 
Q 1100 0 847 248 
Q 594 497 594 1153 
L 594 3053 
L 172 3053 
L 172 3500 
L 594 3500 
L 594 4494 
L 1172 4494 
z
" transform="scale(0.015625)"/>
       <path id="DejaVuSans-28" d="M 1984 4856 
Q 1566 4138 1362 3434 
Q 1159 2731 1159 2009 
Q 1159 1288 1364 580 
Q 1569 -128 1984 -844 
L 1484 -844 
Q 1016 -109 783 600 
Q 550 1309 550 2009 
Q 550 2706 781 3412 
Q 1013 4119 1484 4856 
L 1984 4856 
z
" transform="scale(0.015625)"/>
       <path id="DejaVuSans-29" d="M 513 4856 
L 1013 4856 
Q 1481 4119 1714 3412 
Q 1947 2706 1947 2009 
Q 1947 1309 1714 600 
Q 1481 -109 1013 -844 
L 513 -844 
Q 928 -128 1133 580 
Q 1338 1288 1338 2009 
Q 1338 2731 1133 3434 
Q 928 4138 513 4856 
z
" transform="scale(0.015625)"/>
      </defs>
      <use xlink:href="#DejaVuSans-31" transform="translate(0 0.140625)"/>
      <use xlink:href="#DejaVuSans-2f" transform="translate(63.623047 0.140625)"/>
      <use xlink:href="#STIXSizeOneSym-Regular-221a" transform="translate(97.314453 6.125) scale(0.651975)"/>
      <use xlink:href="#DejaVuSans-64" transform="translate(178.783707 -0.234375)"/>
      <use xlink:href="#DejaVuSans-65" transform="translate(242.260269 -0.234375)"/>
      <use xlink:href="#DejaVuSans-74" transform="translate(303.783707 -0.234375)"/>
      <use xlink:href="#DejaVuSans-28" transform="translate(342.992691 -0.234375)"/>
      <use xlink:href="#STIXNonUnicode-Italic-e239" transform="translate(382.006363 -0.234375)"/>
      <use xlink:href="#DejaVuSans-28" transform="translate(498.606354 -0.234375)"/>
      <use xlink:href="#DejaVuSans-Oblique-74" transform="translate(537.620026 -0.234375)"/>
      <use xlink:href="#DejaVuSans-29" transform="translate(576.82901 -0.234375)"/>
      <use xlink:href="#DejaVuSans-29" transform="translate(615.842682 -0.234375)"/>
      <path d="M 166.283707 100.5 
L 166.283707 106.75 
L 667.356354 106.75 
L 667.356354 100.5 
L 166.283707 100.5 
z
"/>
     </g>
    </g>
   </g>
   <g id="line2d_46">
    <path d="M 280.676838 45.542386 
L 296.445301 257.556489 
L 312.213764 280.021692 
L 327.982227 287.882533 
L 343.75069 291.176534 
L 359.519153 292.115114 
L 375.287616 291.177047 
L 391.056079 287.883836 
L 406.824542 280.024844 
L 422.593005 257.567347 
L 438.361468 45.82516 
" clip-path="url(#pb507f9b2fb)" style="fill: none; stroke: #1f77b4; stroke-width: 1.5; stroke-linecap: square"/>
   </g>
   <g id="patch_9">
    <path d="M 272.792607 304.44375 
L 272.792607 33.21375 
" style="fill: none; stroke: #000000; stroke-width: 0.8; stroke-linejoin: miter; stroke-linecap: square"/>
   </g>
   <g id="patch_10">
    <path d="M 446.2457 304.44375 
L 446.2457 33.21375 
" style="fill: none; stroke: #000000; stroke-width: 0.8; stroke-linejoin: miter; stroke-linecap: square"/>
   </g>
   <g id="patch_11">
    <path d="M 272.792607 304.44375 
L 446.2457 304.44375 
" style="fill: none; stroke: #000000; stroke-width: 0.8; stroke-linejoin: miter; stroke-linecap: square"/>
   </g>
   <g id="patch_12">
    <path d="M 272.792607 33.21375 
L 446.2457 33.21375 
" style="fill: none; stroke: #000000; stroke-width: 0.8; stroke-linejoin: miter; stroke-linecap: square"/>
   </g>
  </g>
  <g id="text_37">
   <!-- Linear interpolation -->
   <g transform="translate(171.548438 16.030125) scale(0.12 -0.12)">
    <defs>
     <path id="DejaVuSans-4c" d="M 628 4666 
L 1259 4666 
L 1259 531 
L 3531 531 
L 3531 0 
L 628 0 
L 628 4666 
z
" transform="scale(0.015625)"/>
     <path id="DejaVuSans-69" d="M 603 3500 
L 1178 3500 
L 1178 0 
L 603 0 
L 603 3500 
z
M 603 4863 
L 1178 4863 
L 1178 4134 
L 603 4134 
L 603 4863 
z
" transform="scale(0.015625)"/>
     <path id="DejaVuSans-6e" d="M 3513 2113 
L 3513 0 
L 2938 0 
L 2938 2094 
Q 2938 2591 2744 2837 
Q 2550 3084 2163 3084 
Q 1697 3084 1428 2787 
Q 1159 2491 1159 1978 
L 1159 0 
L 581 0 
L 581 3500 
L 1159 3500 
L 1159 2956 
Q 1366 3272 1645 3428 
Q 1925 3584 2291 3584 
Q 2894 3584 3203 3211 
Q 3513 2838 3513 2113 
z
" transform="scale(0.015625)"/>
     <path id="DejaVuSans-61" d="M 2194 1759 
Q 1497 1759 1228 1600 
Q 959 1441 959 1056 
Q 959 750 1161 570 
Q 1363 391 1709 391 
Q 2188 391 2477 730 
Q 2766 1069 2766 1631 
L 2766 1759 
L 2194 1759 
z
M 3341 1997 
L 3341 0 
L 2766 0 
L 2766 531 
Q 2569 213 2275 61 
Q 1981 -91 1556 -91 
Q 1019 -91 701 211 
Q 384 513 384 1019 
Q 384 1609 779 1909 
Q 1175 2209 1959 2209 
L 2766 2209 
L 2766 2266 
Q 2766 2663 2505 2880 
Q 2244 3097 1772 3097 
Q 1472 3097 1187 3025 
Q 903 2953 641 2809 
L 641 3341 
Q 956 3463 1253 3523 
Q 1550 3584 1831 3584 
Q 2591 3584 2966 3190 
Q 3341 2797 3341 1997 
z
" transform="scale(0.015625)"/>
     <path id="DejaVuSans-72" d="M 2631 2963 
Q 2534 3019 2420 3045 
Q 2306 3072 2169 3072 
Q 1681 3072 1420 2755 
Q 1159 2438 1159 1844 
L 1159 0 
L 581 0 
L 581 3500 
L 1159 3500 
L 1159 2956 
Q 1341 3275 1631 3429 
Q 1922 3584 2338 3584 
Q 2397 3584 2469 3576 
Q 2541 3569 2628 3553 
L 2631 2963 
z
" transform="scale(0.015625)"/>
     <path id="DejaVuSans-20" transform="scale(0.015625)"/>
     <path id="DejaVuSans-70" d="M 1159 525 
L 1159 -1331 
L 581 -1331 
L 581 3500 
L 1159 3500 
L 1159 2969 
Q 1341 3281 1617 3432 
Q 1894 3584 2278 3584 
Q 2916 3584 3314 3078 
Q 3713 2572 3713 1747 
Q 3713 922 3314 415 
Q 2916 -91 2278 -91 
Q 1894 -91 1617 61 
Q 1341 213 1159 525 
z
M 3116 1747 
Q 3116 2381 2855 2742 
Q 2594 3103 2138 3103 
Q 1681 3103 1420 2742 
Q 1159 2381 1159 1747 
Q 1159 1113 1420 752 
Q 1681 391 2138 391 
Q 2594 391 2855 752 
Q 3116 1113 3116 1747 
z
" transform="scale(0.015625)"/>
     <path id="DejaVuSans-6f" d="M 1959 3097 
Q 1497 3097 1228 2736 
Q 959 2375 959 1747 
Q 959 1119 1226 758 
Q 1494 397 1959 397 
Q 2419 397 2687 759 
Q 2956 1122 2956 1747 
Q 2956 2369 2687 2733 
Q 2419 3097 1959 3097 
z
M 1959 3584 
Q 2709 3584 3137 3096 
Q 3566 2609 3566 1747 
Q 3566 888 3137 398 
Q 2709 -91 1959 -91 
Q 1206 -91 779 398 
Q 353 888 353 1747 
Q 353 2609 779 3096 
Q 1206 3584 1959 3584 
z
" transform="scale(0.015625)"/>
     <path id="DejaVuSans-6c" d="M 603 4863 
L 1178 4863 
L 1178 0 
L 603 0 
L 603 4863 
z
" transform="scale(0.015625)"/>
    </defs>
    <use xlink:href="#DejaVuSans-4c"/>
    <use xlink:href="#DejaVuSans-69" x="55.712891"/>
    <use xlink:href="#DejaVuSans-6e" x="83.496094"/>
    <use xlink:href="#DejaVuSans-65" x="146.875"/>
    <use xlink:href="#DejaVuSans-61" x="208.398438"/>
    <use xlink:href="#DejaVuSans-72" x="269.677734"/>
    <use xlink:href="#DejaVuSans-20" x="310.791016"/>
    <use xlink:href="#DejaVuSans-69" x="342.578125"/>
    <use xlink:href="#DejaVuSans-6e" x="370.361328"/>
    <use xlink:href="#DejaVuSans-74" x="433.740234"/>
    <use xlink:href="#DejaVuSans-65" x="472.949219"/>
    <use xlink:href="#DejaVuSans-72" x="534.472656"/>
    <use xlink:href="#DejaVuSans-70" x="575.585938"/>
    <use xlink:href="#DejaVuSans-6f" x="639.0625"/>
    <use xlink:href="#DejaVuSans-6c" x="700.244141"/>
    <use xlink:href="#DejaVuSans-61" x="728.027344"/>
    <use xlink:href="#DejaVuSans-74" x="789.306641"/>
    <use xlink:href="#DejaVuSans-69" x="828.515625"/>
    <use xlink:href="#DejaVuSans-6f" x="856.298828"/>
    <use xlink:href="#DejaVuSans-6e" x="917.480469"/>
   </g>
  </g>
 </g>
 <defs>
  <clipPath id="p0be3002400">
   <rect x="38.904687" y="33.21375" width="173.453093" height="271.23"/>
  </clipPath>
  <clipPath id="pb507f9b2fb">
   <rect x="272.792607" y="33.21375" width="173.453093" height="271.23"/>
  </clipPath>
 </defs>
</svg>
