<?xml version="1.0" encoding="utf-8" standalone="no"?>
<!DOCTYPE svg PUBLIC "-//W3C//DTD SVG 1.1//EN"
  "http://www.w3.org/Graphics/SVG/1.1/DTD/svg11.dtd">
<svg xmlns:xlink="http://www.w3.org/1999/xlink" width="460.8pt" height="345.6pt" viewBox="0 0 460.8 345.6" xmlns="http://www.w3.org/2000/svg" version="1.1">
 <metadata>
  <rdf:RDF xmlns:dc="http://purl.org/dc/elements/1.1/" xmlns:cc="http://creativecommons.org/ns#" xmlns:rdf="http://www.w3.org/1999/02/22-rdf-syntax-ns#">
   <cc:Work>
    <dc:type rdf:resource="http://purl.org/dc/dcmitype/StillImage"/>
    <dc:date>2023-07-21T16:57:51.761255</dc:date>
    <dc:format>image/svg+xml</dc:format>
    <dc:creator>
     <cc:Agent>
      <dc:title>Matplotlib v3.7.1, https://matplotlib.org/</dc:title>
     </cc:Agent>
    </dc:creator>
   </cc:Work>
  </rdf:RDF>
 </metadata>
 <defs>
  <style type="text/css">*{stroke-linejoin: round; stroke-linecap: butt}</style>
 </defs>
 <g id="figure_1">
  <g id="patch_1">
   <path d="M 0 345.6 
L 460.8 345.6 
L 460.8 0 
L 0 0 
z
" style="fill: #ffffff"/>
  </g>
  <g id="axes_1">
   <g id="patch_2">
    <path d="M 38.904687 304.44375 
L 212.941375 304.44375 
L 212.941375 43.812187 
L 38.904687 43.812187 
z
" style="fill: #ffffff"/>
   </g>
   <g id="matplotlib.axis_1">
    <g id="xtick_1">
     <g id="line2d_1">
      <defs>
       <path id="mf4f79aca85" d="M 0 0 
L 0 3.5 
" style="stroke: #000000; stroke-width: 0.8"/>
      </defs>
      <g>
       <use xlink:href="#mf4f79aca85" x="45.348042" y="304.44375" style="stroke: #000000; stroke-width: 0.8"/>
      </g>
     </g>
     <g id="text_1">
      <!-- −10 -->
      <g transform="translate(34.795698 319.042187) scale(0.1 -0.1)">
       <defs>
        <path id="DejaVuSans-2212" d="M 678 2272 
L 4684 2272 
L 4684 1741 
L 678 1741 
L 678 2272 
z
" transform="scale(0.015625)"/>
        <path id="DejaVuSans-31" d="M 794 531 
L 1825 531 
L 1825 4091 
L 703 3866 
L 703 4441 
L 1819 4666 
L 2450 4666 
L 2450 531 
L 3481 531 
L 3481 0 
L 794 0 
L 794 531 
z
" transform="scale(0.015625)"/>
        <path id="DejaVuSans-30" d="M 2034 4250 
Q 1547 4250 1301 3770 
Q 1056 3291 1056 2328 
Q 1056 1369 1301 889 
Q 1547 409 2034 409 
Q 2525 409 2770 889 
Q 3016 1369 3016 2328 
Q 3016 3291 2770 3770 
Q 2525 4250 2034 4250 
z
M 2034 4750 
Q 2819 4750 3233 4129 
Q 3647 3509 3647 2328 
Q 3647 1150 3233 529 
Q 2819 -91 2034 -91 
Q 1250 -91 836 529 
Q 422 1150 422 2328 
Q 422 3509 836 4129 
Q 1250 4750 2034 4750 
z
" transform="scale(0.015625)"/>
       </defs>
       <use xlink:href="#DejaVuSans-2212"/>
       <use xlink:href="#DejaVuSans-31" x="83.789062"/>
       <use xlink:href="#DejaVuSans-30" x="147.412109"/>
      </g>
     </g>
    </g>
    <g id="xtick_2">
     <g id="line2d_2">
      <g>
       <use xlink:href="#mf4f79aca85" x="85.67096" y="304.44375" style="stroke: #000000; stroke-width: 0.8"/>
      </g>
     </g>
     <g id="text_2">
      <!-- −5 -->
      <g transform="translate(78.299867 319.042187) scale(0.1 -0.1)">
       <defs>
        <path id="DejaVuSans-35" d="M 691 4666 
L 3169 4666 
L 3169 4134 
L 1269 4134 
L 1269 2991 
Q 1406 3038 1543 3061 
Q 1681 3084 1819 3084 
Q 2600 3084 3056 2656 
Q 3513 2228 3513 1497 
Q 3513 744 3044 326 
Q 2575 -91 1722 -91 
Q 1428 -91 1123 -41 
Q 819 9 494 109 
L 494 744 
Q 775 591 1075 516 
Q 1375 441 1709 441 
Q 2250 441 2565 725 
Q 2881 1009 2881 1497 
Q 2881 1984 2565 2268 
Q 2250 2553 1709 2553 
Q 1456 2553 1204 2497 
Q 953 2441 691 2322 
L 691 4666 
z
" transform="scale(0.015625)"/>
       </defs>
       <use xlink:href="#DejaVuSans-2212"/>
       <use xlink:href="#DejaVuSans-35" x="83.789062"/>
      </g>
     </g>
    </g>
    <g id="xtick_3">
     <g id="line2d_3">
      <g>
       <use xlink:href="#mf4f79aca85" x="125.993879" y="304.44375" style="stroke: #000000; stroke-width: 0.8"/>
      </g>
     </g>
     <g id="text_3">
      <!-- 0 -->
      <g transform="translate(122.812629 319.042187) scale(0.1 -0.1)">
       <use xlink:href="#DejaVuSans-30"/>
      </g>
     </g>
    </g>
    <g id="xtick_4">
     <g id="line2d_4">
      <g>
       <use xlink:href="#mf4f79aca85" x="166.316798" y="304.44375" style="stroke: #000000; stroke-width: 0.8"/>
      </g>
     </g>
     <g id="text_4">
      <!-- 5 -->
      <g transform="translate(163.135548 319.042187) scale(0.1 -0.1)">
       <use xlink:href="#DejaVuSans-35"/>
      </g>
     </g>
    </g>
    <g id="xtick_5">
     <g id="line2d_5">
      <g>
       <use xlink:href="#mf4f79aca85" x="206.639717" y="304.44375" style="stroke: #000000; stroke-width: 0.8"/>
      </g>
     </g>
     <g id="text_5">
      <!-- 10 -->
      <g transform="translate(200.277217 319.042187) scale(0.1 -0.1)">
       <use xlink:href="#DejaVuSans-31"/>
       <use xlink:href="#DejaVuSans-30" x="63.623047"/>
      </g>
     </g>
    </g>
   </g>
   <g id="matplotlib.axis_2">
    <g id="ytick_1">
     <g id="line2d_6">
      <defs>
       <path id="md50366a484" d="M 0 0 
L -3.5 0 
" style="stroke: #000000; stroke-width: 0.8"/>
      </defs>
      <g>
       <use xlink:href="#md50366a484" x="38.904687" y="288.489692" style="stroke: #000000; stroke-width: 0.8"/>
      </g>
     </g>
     <g id="text_6">
      <!-- −15 -->
      <g transform="translate(10.8 292.288911) scale(0.1 -0.1)">
       <use xlink:href="#DejaVuSans-2212"/>
       <use xlink:href="#DejaVuSans-31" x="83.789062"/>
       <use xlink:href="#DejaVuSans-35" x="147.412109"/>
      </g>
     </g>
    </g>
    <g id="ytick_2">
     <g id="line2d_7">
      <g>
       <use xlink:href="#md50366a484" x="38.904687" y="250.389074" style="stroke: #000000; stroke-width: 0.8"/>
      </g>
     </g>
     <g id="text_7">
      <!-- −10 -->
      <g transform="translate(10.8 254.188293) scale(0.1 -0.1)">
       <use xlink:href="#DejaVuSans-2212"/>
       <use xlink:href="#DejaVuSans-31" x="83.789062"/>
       <use xlink:href="#DejaVuSans-30" x="147.412109"/>
      </g>
     </g>
    </g>
    <g id="ytick_3">
     <g id="line2d_8">
      <g>
       <use xlink:href="#md50366a484" x="38.904687" y="212.288456" style="stroke: #000000; stroke-width: 0.8"/>
      </g>
     </g>
     <g id="text_8">
      <!-- −5 -->
      <g transform="translate(17.1625 216.087675) scale(0.1 -0.1)">
       <use xlink:href="#DejaVuSans-2212"/>
       <use xlink:href="#DejaVuSans-35" x="83.789062"/>
      </g>
     </g>
    </g>
    <g id="ytick_4">
     <g id="line2d_9">
      <g>
       <use xlink:href="#md50366a484" x="38.904687" y="174.187838" style="stroke: #000000; stroke-width: 0.8"/>
      </g>
     </g>
     <g id="text_9">
      <!-- 0 -->
      <g transform="translate(25.542187 177.987057) scale(0.1 -0.1)">
       <use xlink:href="#DejaVuSans-30"/>
      </g>
     </g>
    </g>
    <g id="ytick_5">
     <g id="line2d_10">
      <g>
       <use xlink:href="#md50366a484" x="38.904687" y="136.08722" style="stroke: #000000; stroke-width: 0.8"/>
      </g>
     </g>
     <g id="text_10">
      <!-- 5 -->
      <g transform="translate(25.542187 139.886439) scale(0.1 -0.1)">
       <use xlink:href="#DejaVuSans-35"/>
      </g>
     </g>
    </g>
    <g id="ytick_6">
     <g id="line2d_11">
      <g>
       <use xlink:href="#md50366a484" x="38.904687" y="97.986602" style="stroke: #000000; stroke-width: 0.8"/>
      </g>
     </g>
     <g id="text_11">
      <!-- 10 -->
      <g transform="translate(19.179687 101.785821) scale(0.1 -0.1)">
       <use xlink:href="#DejaVuSans-31"/>
       <use xlink:href="#DejaVuSans-30" x="63.623047"/>
      </g>
     </g>
    </g>
    <g id="ytick_7">
     <g id="line2d_12">
      <g>
       <use xlink:href="#md50366a484" x="38.904687" y="59.885984" style="stroke: #000000; stroke-width: 0.8"/>
      </g>
     </g>
     <g id="text_12">
      <!-- 15 -->
      <g transform="translate(19.179687 63.685203) scale(0.1 -0.1)">
       <use xlink:href="#DejaVuSans-31"/>
       <use xlink:href="#DejaVuSans-35" x="63.623047"/>
      </g>
     </g>
    </g>
   </g>
   <g id="line2d_13">
    <path d="M 48.025472 233.292163 
L 46.815446 228.338305 
L 49.307716 220.852431 
L 55.385745 211.184573 
L 64.765332 199.786788 
L 77.007898 187.192025 
L 91.540994 173.989201 
L 107.685069 160.795665 
L 124.685243 148.228332 
L 141.746608 136.874837 
L 158.071392 127.266056 
L 172.896268 119.851285 
L 185.52804 114.977232 
L 195.376061 112.8718 
L 201.979848 113.633439 
L 205.030616 117.226533 
L 204.385714 123.483075 
L 200.075296 132.110516 
L 192.300914 142.705445 
L 181.426089 154.772456 
L 167.959315 167.747309 
L 152.530284 181.023313 
L 135.86044 193.979699 
L 118.729247 206.010639 
L 101.93774 216.55358 
L 86.271071 225.115546 
L 72.461797 231.29619 
L 61.155623 234.80651 
L 52.881214 235.482368 
L 48.025472 233.292163 
" clip-path="url(#p5edd21b27c)" style="fill: none; stroke: #1f77b4; stroke-width: 1.5; stroke-linecap: square"/>
   </g>
   <g id="line2d_14">
    <path d="M 201.930225 292.596861 
L 197.328693 291.446698 
L 189.391625 284.81364 
L 178.490148 273.007844 
L 165.134004 256.581333 
L 149.947711 236.302195 
L 133.641364 213.118658 
L 116.977429 188.114759 
L 100.735093 162.459653 
L 85.67383 137.352944 
L 72.497888 113.968594 
L 61.823358 93.400028 
L 54.149371 76.609011 
L 49.834753 64.380671 
L 49.081252 57.286792 
L 51.924099 55.659077 
L 58.230367 59.573634 
L 67.705181 68.847424 
L 79.90551 83.046815 
L 94.26088 101.507859 
L 110.10005 123.367338 
L 126.682398 147.603127 
L 143.232551 173.081988 
L 158.976643 198.612557 
L 173.178498 223.001053 
L 185.174052 245.107097 
L 194.402407 263.897036 
L 200.432056 278.492273 
L 202.981058 288.21035 
L 201.930225 292.596861 
" clip-path="url(#p5edd21b27c)" style="fill: none; stroke: #ff7f0e; stroke-width: 1.5; stroke-linecap: square"/>
   </g>
   <g id="line2d_15">
    <path d="M 62.4172 225.010267 
L 60.146377 219.625752 
L 60.95451 212.11661 
L 64.803811 202.833962 
L 71.514292 192.211852 
L 80.772178 180.74696 
L 92.144581 168.97537 
L 105.099739 157.44751 
L 119.031883 146.702408 
L 133.289563 137.242495 
L 147.206105 129.510105 
L 160.130787 123.866796 
L 171.459265 120.576444 
L 180.661832 119.7929 
L 187.308186 121.552803 
L 191.087551 125.773862 
L 191.823209 132.258705 
L 189.48076 140.704107 
L 184.169736 150.715172 
L 176.138473 161.823792 
L 165.762504 173.510541 
L 153.526999 185.22896 
L 140.004076 196.431109 
L 125.826051 206.593186 
L 111.655874 215.240026 
L 98.156126 221.967311 
L 85.958041 226.460481 
L 75.631987 228.50944 
L 67.660798 228.018382 
L 62.4172 225.010267 
" clip-path="url(#p5edd21b27c)" style="fill: none; stroke: #1f77b4; stroke-width: 0.5; stroke-linecap: square"/>
   </g>
   <g id="line2d_16">
    <path d="M 75.219361 219.148245 
L 71.646253 213.297552 
L 70.614378 205.618134 
L 72.171988 196.469069 
L 76.24625 186.278159 
L 82.646656 175.521919 
L 91.073929 164.703299 
L 101.134021 154.328165 
L 112.356532 144.881648 
L 124.21671 136.805455 
L 136.159986 130.477221 
L 147.627907 126.192847 
L 158.084245 124.152666 
L 167.040073 124.452073 
L 174.076626 127.07707 
L 178.864884 131.904914 
L 181.180952 138.70986 
L 180.916534 147.173717 
L 178.083994 156.900725 
L 172.815777 167.436058 
L 165.358221 178.287098 
L 156.060032 188.94646 
L 145.355984 198.915726 
L 133.746584 207.728743 
L 121.774677 214.973425 
L 110.000055 220.311018 
L 98.973286 223.491943 
L 89.209971 224.367462 
L 81.16663 222.896638 
L 75.219361 219.148245 
" clip-path="url(#p5edd21b27c)" style="fill: none; stroke: #ff7f0e; stroke-width: 0.5; stroke-linecap: square"/>
   </g>
   <g id="line2d_17">
    <path d="M 88.915499 217.269297 
L 83.387605 211.348303 
L 79.851932 203.689727 
L 78.473806 194.651675 
L 79.317666 184.656757 
L 82.344053 174.172324 
L 87.411458 163.688616 
L 94.282933 153.69584 
L 102.637178 144.661248 
L 112.083556 137.007286 
L 122.180365 131.091845 
L 132.45549 127.191525 
L 142.428477 125.4887 
L 151.633 126.062993 
L 159.638667 128.88755 
L 166.071141 133.830299 
L 170.629646 140.660121 
L 173.101033 149.057662 
L 173.369742 158.630261 
L 171.423208 168.930316 
L 167.352449 179.476207 
L 161.347809 189.77482 
L 153.690059 199.344602 
L 144.737266 207.738083 
L 134.908053 214.562791 
L 124.662024 219.499611 
L 114.47827 222.317703 
L 104.832974 222.885296 
L 96.177138 221.17585 
L 88.915499 217.269297 
" clip-path="url(#p5edd21b27c)" style="fill: none; stroke: #2ca02c; stroke-width: 0.5; stroke-linecap: square"/>
   </g>
   <g id="line2d_18">
    <path d="M 117.62486 224.014283 
L 108.860976 221.505797 
L 100.898206 216.784776 
L 94.108883 210.071969 
L 88.810467 201.68126 
L 85.250705 192.004989 
L 83.59605 181.495608 
L 83.923869 170.644524 
L 86.218836 159.959121 
L 90.373639 149.939037 
L 96.194005 141.052801 
L 103.40778 133.715921 
L 111.677656 128.271464 
L 120.616943 124.974005 
L 129.807649 123.977731 
L 138.820028 125.329225 
L 147.23267 128.965294 
L 154.65221 134.715918 
L 160.731718 142.312206 
L 165.186923 151.398963 
L 167.809506 161.551302 
L 168.476836 172.294512 
L 167.15771 183.126251 
L 163.913809 193.540041 
L 158.896815 203.048943 
L 152.341315 211.208331 
L 144.553839 217.636683 
L 135.89852 222.033415 
L 126.780071 224.192941 
L 117.62486 224.014283 
" clip-path="url(#p5edd21b27c)" style="fill: none; stroke: #d62728; stroke-width: 0.5; stroke-linecap: square"/>
   </g>
   <g id="line2d_19">
    <path d="M 144.914474 227.484504 
L 136.75387 228.684781 
L 128.090141 227.336841 
L 119.328393 223.503712 
L 110.878315 217.364629 
L 103.135025 209.206646 
L 96.460589 199.411223 
L 91.167097 188.436383 
L 87.502066 176.795296 
L 85.63687 165.032288 
L 85.658723 153.697383 
L 87.566603 143.320589 
L 91.2713 134.387113 
L 96.599586 127.314675 
L 103.302316 122.433974 
L 111.066078 119.973226 
L 119.527848 120.047493 
L 128.291963 122.653302 
L 136.948621 127.668809 
L 145.093048 134.859495 
L 152.344419 143.88913 
L 158.363669 154.335498 
L 162.869342 165.710141 
L 165.65076 177.48119 
L 166.577867 189.098247 
L 165.607311 200.018109 
L 162.784475 209.730177 
L 158.241352 217.780324 
L 152.190373 223.792135 
L 144.914474 227.484504 
" clip-path="url(#p5edd21b27c)" style="fill: none; stroke: #9467bd; stroke-width: 0.5; stroke-linecap: square"/>
   </g>
   <g id="line2d_20">
    <path d="M 156.466708 234.314449 
L 149.563131 235.710132 
L 141.557483 234.229102 
L 132.824097 229.940608 
L 123.771338 223.045177 
L 114.822503 213.865232 
L 106.396029 202.830015 
L 98.885928 190.455522 
L 92.643365 177.320371 
L 87.960235 164.038745 
L 85.055516 151.23168 
L 84.06503 139.498019 
L 85.035089 129.386416 
L 87.920337 121.369677 
L 92.58586 115.822657 
L 98.813506 113.004728 
L 106.312076 113.047653 
L 114.730945 115.949426 
L 123.676456 121.574361 
L 132.730327 129.659445 
L 141.46921 139.826626 
L 149.484483 151.6005 
L 156.401362 164.430532 
L 161.89642 177.716806 
L 165.712716 190.838068 
L 167.671803 203.180785 
L 167.682077 214.167823 
L 165.743057 223.285442 
L 161.945409 230.107312 
L 156.466708 234.314449 
" clip-path="url(#p5edd21b27c)" style="fill: none; stroke: #8c564b; stroke-width: 0.5; stroke-linecap: square"/>
   </g>
   <g id="line2d_21">
    <path d="M 166.070153 244.438537 
L 160.085961 245.366806 
L 152.507661 242.966826 
L 143.689606 237.350817 
L 134.044119 228.781377 
L 124.022211 217.659204 
L 114.092497 204.504358 
L 104.719277 189.931946 
L 96.340835 174.623357 
L 89.348936 159.294403 
L 84.070514 144.661849 
L 80.752382 131.409899 
L 79.549691 120.158197 
L 80.51868 111.432861 
L 83.614038 105.641878 
L 88.691031 103.056028 
L 95.512263 103.796222 
L 103.758782 107.82785 
L 113.044989 114.962398 
L 122.936672 124.866261 
L 132.971306 137.076346 
L 142.679684 151.021724 
L 151.607852 166.050323 
L 159.338339 181.459423 
L 165.509677 196.528513 
L 169.833299 210.552977 
L 172.107039 222.877047 
L 172.224579 232.924465 
L 170.180423 240.225423 
L 166.070153 244.438537 
" clip-path="url(#p5edd21b27c)" style="fill: none; stroke: #e377c2; stroke-width: 0.5; stroke-linecap: square"/>
   </g>
   <g id="line2d_22">
    <path d="M 176.311479 257.359365 
L 170.988535 257.654571 
L 163.561692 254.046965 
L 154.378219 246.705236 
L 143.867526 235.972674 
L 132.521081 222.351121 
L 120.869432 206.477507 
L 109.457396 189.094064 
L 98.818587 171.013622 
L 89.450465 153.081603 
L 81.791073 136.136488 
L 76.198554 120.970612 
L 72.93441 108.293115 
L 72.151267 98.696781 
L 73.885745 92.630326 
L 78.056742 90.377409 
L 84.469226 92.043374 
L 92.823356 97.550324 
L 102.728503 106.640758 
L 113.721513 118.889619 
L 125.288366 133.724163 
L 136.888207 150.450744 
L 147.978642 168.287244 
L 158.041094 186.39965 
L 166.605054 203.941046 
L 173.27008 220.091214 
L 177.724523 234.094991 
L 179.7601 245.297577 
L 179.281627 253.17515 
L 176.311479 257.359365 
" clip-path="url(#p5edd21b27c)" style="fill: none; stroke: #7f7f7f; stroke-width: 0.5; stroke-linecap: square"/>
   </g>
   <g id="line2d_23">
    <path d="M 188.06997 273.262214 
L 183.199023 272.858861 
L 175.653226 267.841761 
L 165.785414 258.445508 
L 154.056993 245.10946 
L 141.016373 228.457196 
L 127.273317 209.267356 
L 113.470437 188.437238 
L 100.253138 166.940833 
L 88.239448 145.783291 
L 77.991114 125.953913 
L 69.987335 108.3799 
L 64.60236 93.882993 
L 62.087984 83.141052 
L 62.561777 76.656357 
L 66.001584 74.732126 
L 72.246565 77.458333 
L 81.00471 84.707504 
L 91.866499 96.140677 
L 104.324046 111.223248 
L 117.79485 129.249973 
L 131.649032 149.377943 
L 145.238785 170.665996 
L 157.928668 192.118726 
L 169.125316 212.733028 
L 178.305185 231.545 
L 185.039036 247.675015 
L 189.012001 260.368851 
L 190.038309 269.032958 
L 188.06997 273.262214 
" clip-path="url(#p5edd21b27c)" style="fill: none; stroke: #bcbd22; stroke-width: 0.5; stroke-linecap: square"/>
   </g>
   <g id="patch_3">
    <path d="M 38.904687 304.44375 
L 38.904687 43.812187 
" style="fill: none; stroke: #000000; stroke-width: 0.8; stroke-linejoin: miter; stroke-linecap: square"/>
   </g>
   <g id="patch_4">
    <path d="M 212.941375 304.44375 
L 212.941375 43.812187 
" style="fill: none; stroke: #000000; stroke-width: 0.8; stroke-linejoin: miter; stroke-linecap: square"/>
   </g>
   <g id="patch_5">
    <path d="M 38.904687 304.44375 
L 212.941375 304.44375 
" style="fill: none; stroke: #000000; stroke-width: 0.8; stroke-linejoin: miter; stroke-linecap: square"/>
   </g>
   <g id="patch_6">
    <path d="M 38.904687 43.812187 
L 212.941375 43.812187 
" style="fill: none; stroke: #000000; stroke-width: 0.8; stroke-linejoin: miter; stroke-linecap: square"/>
   </g>
   <g id="legend_1">
    <g id="patch_7">
     <path d="M 157.441375 81.168437 
L 205.941375 81.168437 
Q 207.941375 81.168437 207.941375 79.168437 
L 207.941375 50.812187 
Q 207.941375 48.812187 205.941375 48.812187 
L 157.441375 48.812187 
Q 155.441375 48.812187 155.441375 50.812187 
L 155.441375 79.168437 
Q 155.441375 81.168437 157.441375 81.168437 
z
" style="fill: #ffffff; opacity: 0.8; stroke: #cccccc; stroke-linejoin: miter"/>
    </g>
    <g id="line2d_24">
     <path d="M 159.441375 56.910625 
L 169.441375 56.910625 
L 179.441375 56.910625 
" style="fill: none; stroke: #1f77b4; stroke-width: 1.5; stroke-linecap: square"/>
    </g>
    <g id="text_13">
     <!-- $\mathcal{M}_1$ -->
     <g transform="translate(187.441375 60.410625) scale(0.1 -0.1)">
      <defs>
       <path id="STIXNonUnicode-Italic-e239" d="M 7123 346 
L 7219 224 
Q 6912 -205 6310 -205 
Q 6208 -205 6096 -169 
Q 5984 -134 5865 -12 
Q 5747 109 5747 307 
Q 5747 384 5779 653 
L 6061 3181 
L 6042 3181 
L 3405 51 
L 3309 51 
Q 2682 1382 2413 2650 
L 2406 2650 
Q 2400 2611 2345 2390 
Q 2291 2170 2265 2061 
Q 2240 1952 2179 1725 
Q 2118 1498 2060 1338 
Q 2003 1178 1926 976 
Q 1850 774 1760 592 
Q 1670 410 1568 250 
Q 1229 -288 813 -288 
Q 576 -288 416 -131 
Q 256 26 256 250 
Q 256 422 345 528 
Q 435 634 595 634 
Q 698 634 768 576 
Q 838 518 867 451 
Q 896 384 947 326 
Q 998 269 1062 269 
Q 1274 269 1446 570 
Q 1555 762 1673 1088 
Q 1792 1414 1881 1731 
Q 1971 2048 2076 2483 
Q 2182 2918 2236 3187 
Q 2291 3456 2371 3840 
Q 2451 4224 2464 4294 
L 2656 4294 
Q 2931 3136 3168 2329 
Q 3405 1523 3738 838 
L 6662 4294 
L 6835 4294 
L 6445 730 
Q 6432 614 6432 544 
Q 6432 173 6714 173 
Q 6950 173 7123 346 
z
" transform="scale(0.015625)"/>
      </defs>
      <use xlink:href="#STIXNonUnicode-Italic-e239" transform="translate(0 0.90625)"/>
      <use xlink:href="#DejaVuSans-31" transform="translate(117.557022 -15.5) scale(0.7)"/>
     </g>
    </g>
    <g id="line2d_25">
     <path d="M 159.441375 71.58875 
L 169.441375 71.58875 
L 179.441375 71.58875 
" style="fill: none; stroke: #ff7f0e; stroke-width: 1.5; stroke-linecap: square"/>
    </g>
    <g id="text_14">
     <!-- $\mathcal{M}_2$ -->
     <g transform="translate(187.441375 75.08875) scale(0.1 -0.1)">
      <defs>
       <path id="DejaVuSans-32" d="M 1228 531 
L 3431 531 
L 3431 0 
L 469 0 
L 469 531 
Q 828 903 1448 1529 
Q 2069 2156 2228 2338 
Q 2531 2678 2651 2914 
Q 2772 3150 2772 3378 
Q 2772 3750 2511 3984 
Q 2250 4219 1831 4219 
Q 1534 4219 1204 4116 
Q 875 4013 500 3803 
L 500 4441 
Q 881 4594 1212 4672 
Q 1544 4750 1819 4750 
Q 2544 4750 2975 4387 
Q 3406 4025 3406 3419 
Q 3406 3131 3298 2873 
Q 3191 2616 2906 2266 
Q 2828 2175 2409 1742 
Q 1991 1309 1228 531 
z
" transform="scale(0.015625)"/>
      </defs>
      <use xlink:href="#STIXNonUnicode-Italic-e239" transform="translate(0 0.90625)"/>
      <use xlink:href="#DejaVuSans-32" transform="translate(117.557022 -15.5) scale(0.7)"/>
     </g>
    </g>
   </g>
  </g>
  <g id="axes_2">
   <g id="patch_8">
    <path d="M 272.209013 304.44375 
L 446.2457 304.44375 
L 446.2457 43.812187 
L 272.209013 43.812187 
z
" style="fill: #ffffff"/>
   </g>
   <g id="matplotlib.axis_3">
    <g id="xtick_6">
     <g id="line2d_26">
      <g>
       <use xlink:href="#mf4f79aca85" x="280.119771" y="304.44375" style="stroke: #000000; stroke-width: 0.8"/>
      </g>
     </g>
     <g id="text_15">
      <!-- 0.00 -->
      <g transform="translate(268.986959 319.042187) scale(0.1 -0.1)">
       <defs>
        <path id="DejaVuSans-2e" d="M 684 794 
L 1344 794 
L 1344 0 
L 684 0 
L 684 794 
z
" transform="scale(0.015625)"/>
       </defs>
       <use xlink:href="#DejaVuSans-30"/>
       <use xlink:href="#DejaVuSans-2e" x="63.623047"/>
       <use xlink:href="#DejaVuSans-30" x="95.410156"/>
       <use xlink:href="#DejaVuSans-30" x="159.033203"/>
      </g>
     </g>
    </g>
    <g id="xtick_7">
     <g id="line2d_27">
      <g>
       <use xlink:href="#mf4f79aca85" x="319.673564" y="304.44375" style="stroke: #000000; stroke-width: 0.8"/>
      </g>
     </g>
     <g id="text_16">
      <!-- 0.25 -->
      <g transform="translate(308.540751 319.042187) scale(0.1 -0.1)">
       <use xlink:href="#DejaVuSans-30"/>
       <use xlink:href="#DejaVuSans-2e" x="63.623047"/>
       <use xlink:href="#DejaVuSans-32" x="95.410156"/>
       <use xlink:href="#DejaVuSans-35" x="159.033203"/>
      </g>
     </g>
    </g>
    <g id="xtick_8">
     <g id="line2d_28">
      <g>
       <use xlink:href="#mf4f79aca85" x="359.227356" y="304.44375" style="stroke: #000000; stroke-width: 0.8"/>
      </g>
     </g>
     <g id="text_17">
      <!-- 0.50 -->
      <g transform="translate(348.094544 319.042187) scale(0.1 -0.1)">
       <use xlink:href="#DejaVuSans-30"/>
       <use xlink:href="#DejaVuSans-2e" x="63.623047"/>
       <use xlink:href="#DejaVuSans-35" x="95.410156"/>
       <use xlink:href="#DejaVuSans-30" x="159.033203"/>
      </g>
     </g>
    </g>
    <g id="xtick_9">
     <g id="line2d_29">
      <g>
       <use xlink:href="#mf4f79aca85" x="398.781149" y="304.44375" style="stroke: #000000; stroke-width: 0.8"/>
      </g>
     </g>
     <g id="text_18">
      <!-- 0.75 -->
      <g transform="translate(387.648336 319.042187) scale(0.1 -0.1)">
       <defs>
        <path id="DejaVuSans-37" d="M 525 4666 
L 3525 4666 
L 3525 4397 
L 1831 0 
L 1172 0 
L 2766 4134 
L 525 4134 
L 525 4666 
z
" transform="scale(0.015625)"/>
       </defs>
       <use xlink:href="#DejaVuSans-30"/>
       <use xlink:href="#DejaVuSans-2e" x="63.623047"/>
       <use xlink:href="#DejaVuSans-37" x="95.410156"/>
       <use xlink:href="#DejaVuSans-35" x="159.033203"/>
      </g>
     </g>
    </g>
    <g id="xtick_10">
     <g id="line2d_30">
      <g>
       <use xlink:href="#mf4f79aca85" x="438.334941" y="304.44375" style="stroke: #000000; stroke-width: 0.8"/>
      </g>
     </g>
     <g id="text_19">
      <!-- 1.00 -->
      <g transform="translate(427.202129 319.042187) scale(0.1 -0.1)">
       <use xlink:href="#DejaVuSans-31"/>
       <use xlink:href="#DejaVuSans-2e" x="63.623047"/>
       <use xlink:href="#DejaVuSans-30" x="95.410156"/>
       <use xlink:href="#DejaVuSans-30" x="159.033203"/>
      </g>
     </g>
    </g>
    <g id="text_20">
     <!-- $t$ -->
     <g transform="translate(357.227356 332.720312) scale(0.1 -0.1)">
      <defs>
       <path id="DejaVuSans-Oblique-74" d="M 2706 3500 
L 2619 3053 
L 1472 3053 
L 1100 1153 
Q 1081 1047 1072 975 
Q 1063 903 1063 863 
Q 1063 663 1183 572 
Q 1303 481 1569 481 
L 2150 481 
L 2053 0 
L 1503 0 
Q 991 0 739 200 
Q 488 400 488 806 
Q 488 878 497 964 
Q 506 1050 525 1153 
L 897 3053 
L 409 3053 
L 500 3500 
L 978 3500 
L 1172 4494 
L 1747 4494 
L 1556 3500 
L 2706 3500 
z
" transform="scale(0.015625)"/>
      </defs>
      <use xlink:href="#DejaVuSans-Oblique-74" transform="translate(0 0.78125)"/>
     </g>
    </g>
   </g>
   <g id="matplotlib.axis_4">
    <g id="ytick_8">
     <g id="line2d_31">
      <g>
       <use xlink:href="#md50366a484" x="272.209013" y="301.87413" style="stroke: #000000; stroke-width: 0.8"/>
      </g>
     </g>
     <g id="text_21">
      <!-- −0.6 -->
      <g transform="translate(240.9262 305.673348) scale(0.1 -0.1)">
       <defs>
        <path id="DejaVuSans-36" d="M 2113 2584 
Q 1688 2584 1439 2293 
Q 1191 2003 1191 1497 
Q 1191 994 1439 701 
Q 1688 409 2113 409 
Q 2538 409 2786 701 
Q 3034 994 3034 1497 
Q 3034 2003 2786 2293 
Q 2538 2584 2113 2584 
z
M 3366 4563 
L 3366 3988 
Q 3128 4100 2886 4159 
Q 2644 4219 2406 4219 
Q 1781 4219 1451 3797 
Q 1122 3375 1075 2522 
Q 1259 2794 1537 2939 
Q 1816 3084 2150 3084 
Q 2853 3084 3261 2657 
Q 3669 2231 3669 1497 
Q 3669 778 3244 343 
Q 2819 -91 2113 -91 
Q 1303 -91 875 529 
Q 447 1150 447 2328 
Q 447 3434 972 4092 
Q 1497 4750 2381 4750 
Q 2619 4750 2861 4703 
Q 3103 4656 3366 4563 
z
" transform="scale(0.015625)"/>
       </defs>
       <use xlink:href="#DejaVuSans-2212"/>
       <use xlink:href="#DejaVuSans-30" x="83.789062"/>
       <use xlink:href="#DejaVuSans-2e" x="147.412109"/>
       <use xlink:href="#DejaVuSans-36" x="179.199219"/>
      </g>
     </g>
    </g>
    <g id="ytick_9">
     <g id="line2d_32">
      <g>
       <use xlink:href="#md50366a484" x="272.209013" y="263.986284" style="stroke: #000000; stroke-width: 0.8"/>
      </g>
     </g>
     <g id="text_22">
      <!-- −0.4 -->
      <g transform="translate(240.9262 267.785503) scale(0.1 -0.1)">
       <defs>
        <path id="DejaVuSans-34" d="M 2419 4116 
L 825 1625 
L 2419 1625 
L 2419 4116 
z
M 2253 4666 
L 3047 4666 
L 3047 1625 
L 3713 1625 
L 3713 1100 
L 3047 1100 
L 3047 0 
L 2419 0 
L 2419 1100 
L 313 1100 
L 313 1709 
L 2253 4666 
z
" transform="scale(0.015625)"/>
       </defs>
       <use xlink:href="#DejaVuSans-2212"/>
       <use xlink:href="#DejaVuSans-30" x="83.789062"/>
       <use xlink:href="#DejaVuSans-2e" x="147.412109"/>
       <use xlink:href="#DejaVuSans-34" x="179.199219"/>
      </g>
     </g>
    </g>
    <g id="ytick_10">
     <g id="line2d_33">
      <g>
       <use xlink:href="#md50366a484" x="272.209013" y="226.098438" style="stroke: #000000; stroke-width: 0.8"/>
      </g>
     </g>
     <g id="text_23">
      <!-- −0.2 -->
      <g transform="translate(240.9262 229.897657) scale(0.1 -0.1)">
       <use xlink:href="#DejaVuSans-2212"/>
       <use xlink:href="#DejaVuSans-30" x="83.789062"/>
       <use xlink:href="#DejaVuSans-2e" x="147.412109"/>
       <use xlink:href="#DejaVuSans-32" x="179.199219"/>
      </g>
     </g>
    </g>
    <g id="ytick_11">
     <g id="line2d_34">
      <g>
       <use xlink:href="#md50366a484" x="272.209013" y="188.210593" style="stroke: #000000; stroke-width: 0.8"/>
      </g>
     </g>
     <g id="text_24">
      <!-- 0.0 -->
      <g transform="translate(249.305888 192.009811) scale(0.1 -0.1)">
       <use xlink:href="#DejaVuSans-30"/>
       <use xlink:href="#DejaVuSans-2e" x="63.623047"/>
       <use xlink:href="#DejaVuSans-30" x="95.410156"/>
      </g>
     </g>
    </g>
    <g id="ytick_12">
     <g id="line2d_35">
      <g>
       <use xlink:href="#md50366a484" x="272.209013" y="150.322747" style="stroke: #000000; stroke-width: 0.8"/>
      </g>
     </g>
     <g id="text_25">
      <!-- 0.2 -->
      <g transform="translate(249.305888 154.121966) scale(0.1 -0.1)">
       <use xlink:href="#DejaVuSans-30"/>
       <use xlink:href="#DejaVuSans-2e" x="63.623047"/>
       <use xlink:href="#DejaVuSans-32" x="95.410156"/>
      </g>
     </g>
    </g>
    <g id="ytick_13">
     <g id="line2d_36">
      <g>
       <use xlink:href="#md50366a484" x="272.209013" y="112.434901" style="stroke: #000000; stroke-width: 0.8"/>
      </g>
     </g>
     <g id="text_26">
      <!-- 0.4 -->
      <g transform="translate(249.305888 116.23412) scale(0.1 -0.1)">
       <use xlink:href="#DejaVuSans-30"/>
       <use xlink:href="#DejaVuSans-2e" x="63.623047"/>
       <use xlink:href="#DejaVuSans-34" x="95.410156"/>
      </g>
     </g>
    </g>
    <g id="ytick_14">
     <g id="line2d_37">
      <g>
       <use xlink:href="#md50366a484" x="272.209013" y="74.547055" style="stroke: #000000; stroke-width: 0.8"/>
      </g>
     </g>
     <g id="text_27">
      <!-- 0.6 -->
      <g transform="translate(249.305888 78.346274) scale(0.1 -0.1)">
       <use xlink:href="#DejaVuSans-30"/>
       <use xlink:href="#DejaVuSans-2e" x="63.623047"/>
       <use xlink:href="#DejaVuSans-36" x="95.410156"/>
      </g>
     </g>
    </g>
    <g id="text_28">
     <!-- $1/\sqrt{\det(\mathcal{M}(t))}$ -->
     <g transform="translate(234.846513 207.527969) rotate(-90) scale(0.1 -0.1)">
      <defs>
       <path id="DejaVuSans-2f" d="M 1625 4666 
L 2156 4666 
L 531 -594 
L 0 -594 
L 1625 4666 
z
" transform="scale(0.015625)"/>
       <path id="STIXSizeOneSym-Regular-221a" d="M 6970 9933 
L 3373 -1888 
L 3104 -1888 
L 1626 2918 
Q 1555 3149 1465 3251 
Q 1376 3354 1229 3354 
Q 1011 3354 794 3181 
L 717 3309 
L 1766 4115 
L 1926 4115 
L 3379 -602 
L 3405 -602 
L 6605 9933 
L 6970 9933 
z
" transform="scale(0.015625)"/>
       <path id="DejaVuSans-64" d="M 2906 2969 
L 2906 4863 
L 3481 4863 
L 3481 0 
L 2906 0 
L 2906 525 
Q 2725 213 2448 61 
Q 2172 -91 1784 -91 
Q 1150 -91 751 415 
Q 353 922 353 1747 
Q 353 2572 751 3078 
Q 1150 3584 1784 3584 
Q 2172 3584 2448 3432 
Q 2725 3281 2906 2969 
z
M 947 1747 
Q 947 1113 1208 752 
Q 1469 391 1925 391 
Q 2381 391 2643 752 
Q 2906 1113 2906 1747 
Q 2906 2381 2643 2742 
Q 2381 3103 1925 3103 
Q 1469 3103 1208 2742 
Q 947 2381 947 1747 
z
" transform="scale(0.015625)"/>
       <path id="DejaVuSans-65" d="M 3597 1894 
L 3597 1613 
L 953 1613 
Q 991 1019 1311 708 
Q 1631 397 2203 397 
Q 2534 397 2845 478 
Q 3156 559 3463 722 
L 3463 178 
Q 3153 47 2828 -22 
Q 2503 -91 2169 -91 
Q 1331 -91 842 396 
Q 353 884 353 1716 
Q 353 2575 817 3079 
Q 1281 3584 2069 3584 
Q 2775 3584 3186 3129 
Q 3597 2675 3597 1894 
z
M 3022 2063 
Q 3016 2534 2758 2815 
Q 2500 3097 2075 3097 
Q 1594 3097 1305 2825 
Q 1016 2553 972 2059 
L 3022 2063 
z
" transform="scale(0.015625)"/>
       <path id="DejaVuSans-74" d="M 1172 4494 
L 1172 3500 
L 2356 3500 
L 2356 3053 
L 1172 3053 
L 1172 1153 
Q 1172 725 1289 603 
Q 1406 481 1766 481 
L 2356 481 
L 2356 0 
L 1766 0 
Q 1100 0 847 248 
Q 594 497 594 1153 
L 594 3053 
L 172 3053 
L 172 3500 
L 594 3500 
L 594 4494 
L 1172 4494 
z
" transform="scale(0.015625)"/>
       <path id="DejaVuSans-28" d="M 1984 4856 
Q 1566 4138 1362 3434 
Q 1159 2731 1159 2009 
Q 1159 1288 1364 580 
Q 1569 -128 1984 -844 
L 1484 -844 
Q 1016 -109 783 600 
Q 550 1309 550 2009 
Q 550 2706 781 3412 
Q 1013 4119 1484 4856 
L 1984 4856 
z
" transform="scale(0.015625)"/>
       <path id="DejaVuSans-29" d="M 513 4856 
L 1013 4856 
Q 1481 4119 1714 3412 
Q 1947 2706 1947 2009 
Q 1947 1309 1714 600 
Q 1481 -109 1013 -844 
L 513 -844 
Q 928 -128 1133 580 
Q 1338 1288 1338 2009 
Q 1338 2731 1133 3434 
Q 928 4138 513 4856 
z
" transform="scale(0.015625)"/>
      </defs>
      <use xlink:href="#DejaVuSans-31" transform="translate(0 0.140625)"/>
      <use xlink:href="#DejaVuSans-2f" transform="translate(63.623047 0.140625)"/>
      <use xlink:href="#STIXSizeOneSym-Regular-221a" transform="translate(97.314453 6.125) scale(0.651975)"/>
      <use xlink:href="#DejaVuSans-64" transform="translate(178.783707 -0.234375)"/>
      <use xlink:href="#DejaVuSans-65" transform="translate(242.260269 -0.234375)"/>
      <use xlink:href="#DejaVuSans-74" transform="translate(303.783707 -0.234375)"/>
      <use xlink:href="#DejaVuSans-28" transform="translate(342.992691 -0.234375)"/>
      <use xlink:href="#STIXNonUnicode-Italic-e239" transform="translate(382.006363 -0.234375)"/>
      <use xlink:href="#DejaVuSans-28" transform="translate(498.606354 -0.234375)"/>
      <use xlink:href="#DejaVuSans-Oblique-74" transform="translate(537.620026 -0.234375)"/>
      <use xlink:href="#DejaVuSans-29" transform="translate(576.82901 -0.234375)"/>
      <use xlink:href="#DejaVuSans-29" transform="translate(615.842682 -0.234375)"/>
      <path d="M 166.283707 100.5 
L 166.283707 106.75 
L 667.356354 106.75 
L 667.356354 100.5 
L 166.283707 100.5 
z
"/>
     </g>
    </g>
    <g id="text_29">
     <!-- +1.2e3 -->
     <g transform="translate(272.209013 40.812187) scale(0.1 -0.1)">
      <defs>
       <path id="DejaVuSans-2b" d="M 2944 4013 
L 2944 2272 
L 4684 2272 
L 4684 1741 
L 2944 1741 
L 2944 0 
L 2419 0 
L 2419 1741 
L 678 1741 
L 678 2272 
L 2419 2272 
L 2419 4013 
L 2944 4013 
z
" transform="scale(0.015625)"/>
       <path id="DejaVuSans-33" d="M 2597 2516 
Q 3050 2419 3304 2112 
Q 3559 1806 3559 1356 
Q 3559 666 3084 287 
Q 2609 -91 1734 -91 
Q 1441 -91 1130 -33 
Q 819 25 488 141 
L 488 750 
Q 750 597 1062 519 
Q 1375 441 1716 441 
Q 2309 441 2620 675 
Q 2931 909 2931 1356 
Q 2931 1769 2642 2001 
Q 2353 2234 1838 2234 
L 1294 2234 
L 1294 2753 
L 1863 2753 
Q 2328 2753 2575 2939 
Q 2822 3125 2822 3475 
Q 2822 3834 2567 4026 
Q 2313 4219 1838 4219 
Q 1578 4219 1281 4162 
Q 984 4106 628 3988 
L 628 4550 
Q 988 4650 1302 4700 
Q 1616 4750 1894 4750 
Q 2613 4750 3031 4423 
Q 3450 4097 3450 3541 
Q 3450 3153 3228 2886 
Q 3006 2619 2597 2516 
z
" transform="scale(0.015625)"/>
      </defs>
      <use xlink:href="#DejaVuSans-2b"/>
      <use xlink:href="#DejaVuSans-31" x="83.789062"/>
      <use xlink:href="#DejaVuSans-2e" x="147.412109"/>
      <use xlink:href="#DejaVuSans-32" x="179.199219"/>
      <use xlink:href="#DejaVuSans-65" x="242.822266"/>
      <use xlink:href="#DejaVuSans-33" x="304.345703"/>
     </g>
    </g>
   </g>
   <g id="line2d_38">
    <path d="M 280.119771 55.659077 
L 295.941288 79.363969 
L 311.762805 103.066391 
L 327.584322 126.766342 
L 343.405839 150.463824 
L 359.227356 174.158836 
L 375.048873 197.851379 
L 390.87039 221.541452 
L 406.691907 245.229057 
L 422.513424 268.914193 
L 438.334941 292.596861 
" clip-path="url(#p1ac0ddcc81)" style="fill: none; stroke: #1f77b4; stroke-width: 1.5; stroke-linecap: square"/>
   </g>
   <g id="patch_9">
    <path d="M 272.209013 304.44375 
L 272.209013 43.812188 
" style="fill: none; stroke: #000000; stroke-width: 0.8; stroke-linejoin: miter; stroke-linecap: square"/>
   </g>
   <g id="patch_10">
    <path d="M 446.2457 304.44375 
L 446.2457 43.812188 
" style="fill: none; stroke: #000000; stroke-width: 0.8; stroke-linejoin: miter; stroke-linecap: square"/>
   </g>
   <g id="patch_11">
    <path d="M 272.209013 304.44375 
L 446.2457 304.44375 
" style="fill: none; stroke: #000000; stroke-width: 0.8; stroke-linejoin: miter; stroke-linecap: square"/>
   </g>
   <g id="patch_12">
    <path d="M 272.209013 43.812187 
L 446.2457 43.812187 
" style="fill: none; stroke: #000000; stroke-width: 0.8; stroke-linejoin: miter; stroke-linecap: square"/>
   </g>
  </g>
  <g id="text_30">
   <!-- Log interpolation -->
   <g transform="translate(179.477812 16.030125) scale(0.12 -0.12)">
    <defs>
     <path id="DejaVuSans-4c" d="M 628 4666 
L 1259 4666 
L 1259 531 
L 3531 531 
L 3531 0 
L 628 0 
L 628 4666 
z
" transform="scale(0.015625)"/>
     <path id="DejaVuSans-6f" d="M 1959 3097 
Q 1497 3097 1228 2736 
Q 959 2375 959 1747 
Q 959 1119 1226 758 
Q 1494 397 1959 397 
Q 2419 397 2687 759 
Q 2956 1122 2956 1747 
Q 2956 2369 2687 2733 
Q 2419 3097 1959 3097 
z
M 1959 3584 
Q 2709 3584 3137 3096 
Q 3566 2609 3566 1747 
Q 3566 888 3137 398 
Q 2709 -91 1959 -91 
Q 1206 -91 779 398 
Q 353 888 353 1747 
Q 353 2609 779 3096 
Q 1206 3584 1959 3584 
z
" transform="scale(0.015625)"/>
     <path id="DejaVuSans-67" d="M 2906 1791 
Q 2906 2416 2648 2759 
Q 2391 3103 1925 3103 
Q 1463 3103 1205 2759 
Q 947 2416 947 1791 
Q 947 1169 1205 825 
Q 1463 481 1925 481 
Q 2391 481 2648 825 
Q 2906 1169 2906 1791 
z
M 3481 434 
Q 3481 -459 3084 -895 
Q 2688 -1331 1869 -1331 
Q 1566 -1331 1297 -1286 
Q 1028 -1241 775 -1147 
L 775 -588 
Q 1028 -725 1275 -790 
Q 1522 -856 1778 -856 
Q 2344 -856 2625 -561 
Q 2906 -266 2906 331 
L 2906 616 
Q 2728 306 2450 153 
Q 2172 0 1784 0 
Q 1141 0 747 490 
Q 353 981 353 1791 
Q 353 2603 747 3093 
Q 1141 3584 1784 3584 
Q 2172 3584 2450 3431 
Q 2728 3278 2906 2969 
L 2906 3500 
L 3481 3500 
L 3481 434 
z
" transform="scale(0.015625)"/>
     <path id="DejaVuSans-20" transform="scale(0.015625)"/>
     <path id="DejaVuSans-69" d="M 603 3500 
L 1178 3500 
L 1178 0 
L 603 0 
L 603 3500 
z
M 603 4863 
L 1178 4863 
L 1178 4134 
L 603 4134 
L 603 4863 
z
" transform="scale(0.015625)"/>
     <path id="DejaVuSans-6e" d="M 3513 2113 
L 3513 0 
L 2938 0 
L 2938 2094 
Q 2938 2591 2744 2837 
Q 2550 3084 2163 3084 
Q 1697 3084 1428 2787 
Q 1159 2491 1159 1978 
L 1159 0 
L 581 0 
L 581 3500 
L 1159 3500 
L 1159 2956 
Q 1366 3272 1645 3428 
Q 1925 3584 2291 3584 
Q 2894 3584 3203 3211 
Q 3513 2838 3513 2113 
z
" transform="scale(0.015625)"/>
     <path id="DejaVuSans-72" d="M 2631 2963 
Q 2534 3019 2420 3045 
Q 2306 3072 2169 3072 
Q 1681 3072 1420 2755 
Q 1159 2438 1159 1844 
L 1159 0 
L 581 0 
L 581 3500 
L 1159 3500 
L 1159 2956 
Q 1341 3275 1631 3429 
Q 1922 3584 2338 3584 
Q 2397 3584 2469 3576 
Q 2541 3569 2628 3553 
L 2631 2963 
z
" transform="scale(0.015625)"/>
     <path id="DejaVuSans-70" d="M 1159 525 
L 1159 -1331 
L 581 -1331 
L 581 3500 
L 1159 3500 
L 1159 2969 
Q 1341 3281 1617 3432 
Q 1894 3584 2278 3584 
Q 2916 3584 3314 3078 
Q 3713 2572 3713 1747 
Q 3713 922 3314 415 
Q 2916 -91 2278 -91 
Q 1894 -91 1617 61 
Q 1341 213 1159 525 
z
M 3116 1747 
Q 3116 2381 2855 2742 
Q 2594 3103 2138 3103 
Q 1681 3103 1420 2742 
Q 1159 2381 1159 1747 
Q 1159 1113 1420 752 
Q 1681 391 2138 391 
Q 2594 391 2855 752 
Q 3116 1113 3116 1747 
z
" transform="scale(0.015625)"/>
     <path id="DejaVuSans-6c" d="M 603 4863 
L 1178 4863 
L 1178 0 
L 603 0 
L 603 4863 
z
" transform="scale(0.015625)"/>
     <path id="DejaVuSans-61" d="M 2194 1759 
Q 1497 1759 1228 1600 
Q 959 1441 959 1056 
Q 959 750 1161 570 
Q 1363 391 1709 391 
Q 2188 391 2477 730 
Q 2766 1069 2766 1631 
L 2766 1759 
L 2194 1759 
z
M 3341 1997 
L 3341 0 
L 2766 0 
L 2766 531 
Q 2569 213 2275 61 
Q 1981 -91 1556 -91 
Q 1019 -91 701 211 
Q 384 513 384 1019 
Q 384 1609 779 1909 
Q 1175 2209 1959 2209 
L 2766 2209 
L 2766 2266 
Q 2766 2663 2505 2880 
Q 2244 3097 1772 3097 
Q 1472 3097 1187 3025 
Q 903 2953 641 2809 
L 641 3341 
Q 956 3463 1253 3523 
Q 1550 3584 1831 3584 
Q 2591 3584 2966 3190 
Q 3341 2797 3341 1997 
z
" transform="scale(0.015625)"/>
    </defs>
    <use xlink:href="#DejaVuSans-4c"/>
    <use xlink:href="#DejaVuSans-6f" x="53.962891"/>
    <use xlink:href="#DejaVuSans-67" x="115.144531"/>
    <use xlink:href="#DejaVuSans-20" x="178.621094"/>
    <use xlink:href="#DejaVuSans-69" x="210.408203"/>
    <use xlink:href="#DejaVuSans-6e" x="238.191406"/>
    <use xlink:href="#DejaVuSans-74" x="301.570312"/>
    <use xlink:href="#DejaVuSans-65" x="340.779297"/>
    <use xlink:href="#DejaVuSans-72" x="402.302734"/>
    <use xlink:href="#DejaVuSans-70" x="443.416016"/>
    <use xlink:href="#DejaVuSans-6f" x="506.892578"/>
    <use xlink:href="#DejaVuSans-6c" x="568.074219"/>
    <use xlink:href="#DejaVuSans-61" x="595.857422"/>
    <use xlink:href="#DejaVuSans-74" x="657.136719"/>
    <use xlink:href="#DejaVuSans-69" x="696.345703"/>
    <use xlink:href="#DejaVuSans-6f" x="724.128906"/>
    <use xlink:href="#DejaVuSans-6e" x="785.310547"/>
   </g>
  </g>
 </g>
 <defs>
  <clipPath id="p5edd21b27c">
   <rect x="38.904687" y="43.812187" width="174.036687" height="260.631562"/>
  </clipPath>
  <clipPath id="p1ac0ddcc81">
   <rect x="272.209013" y="43.812187" width="174.036687" height="260.631562"/>
  </clipPath>
 </defs>
</svg>
