<svg xmlns="http://www.w3.org/2000/svg" width="294.79" height="168.674" viewBox="0 0 77.997 44.628">
    <g transform="translate(17.516 -164.232)">
        <path d="m-3.61 152.5 2-6 6-5 8-3-9-5-11 2-8 2-3 10 5 9 9 7 1-11" class="UnoptimicedTransforms" style="fill:#b2f2ff;fill-opacity:1;stroke:#000;stroke-width:.3;stroke-linejoin:round;stroke-opacity:1" transform="translate(1.243 37.354)"/>
        <path d="m-3.61 152.5 2-6 6-5 8-3 2 7m-18 7-1 11 12-1 6-2 4-7-3-8" class="UnoptimicedTransforms" style="fill:#fab2ff;fill-opacity:1;stroke:#000;stroke-width:.3;stroke-linejoin:round;stroke-opacity:1" transform="translate(1.243 37.354)"/>
        <path d="m5.634 178.854-14 3M-6.366 172.854l12 6M-8.366 181.854l2-9M13.648 191.567l-8.014-12.713M15.634 182.854l-1.986 8.713M5.634 178.854l10 4M8.634 199.854l-11-10M13.648 191.567l-5.014 8.287M-2.366 189.854l16.014 1.713M8.634 199.854l-11-10M-2.366 189.854l-1 11" style="fill:none;stroke:#000;stroke-width:.3;stroke-linejoin:round;stroke-opacity:1"/>
        <path d="m-13.61 156.5 9 7" class="UnoptimicedTransforms" style="fill:none;stroke:#000;stroke-width:.3;stroke-linejoin:round;stroke-opacity:1" transform="translate(1.243 37.354)"/>
        <path d="m-2.366 189.854-10 4M-12.366 193.854l10-4M-8.366 181.854l-4 12M-2.366 189.854l-6-8M-12.366 193.854l4-12" style="fill:none;stroke:#000;stroke-width:.3;stroke-linejoin:round;stroke-opacity:1"/>
        <path d="m-18.61 147.5 5 9" class="UnoptimicedTransforms" style="fill:none;stroke:#000;stroke-width:.3;stroke-linejoin:round;stroke-opacity:1" transform="translate(1.243 37.354)"/>
        <path d="m-8.366 181.854-9 3M-17.366 184.854l9-3" style="fill:none;stroke:#000;stroke-width:.3;stroke-linejoin:round;stroke-opacity:1"/>
        <path d="m-15.61 137.5-3 10" class="UnoptimicedTransforms" style="fill:none;stroke:#000;stroke-width:.3;stroke-linejoin:round;stroke-opacity:1" transform="translate(1.243 37.354)"/>
        <path d="m-8.366 181.854-6-7M-14.366 174.854l6 7" style="fill:none;stroke:#000;stroke-width:.3;stroke-linejoin:round;stroke-opacity:1"/>
        <path d="m-7.61 135.5-8 2" class="UnoptimicedTransforms" style="fill:none;stroke:#000;stroke-width:.3;stroke-linejoin:round;stroke-opacity:1" transform="translate(1.243 37.354)"/>
        <path d="m-8.366 181.854 2-9M13.648 191.567l4.986-.713M13.648 191.567l.986 6.287M15.634 182.854l-10-4M-6.366 172.854l12 6" style="fill:none;stroke:#000;stroke-width:.3;stroke-linejoin:round;stroke-opacity:1"/>
        <path d="m3.39 133.5-11 2" class="UnoptimicedTransforms" style="fill:none;stroke:#000;stroke-width:.3;stroke-linejoin:round;stroke-opacity:1" transform="translate(1.243 37.354)"/>
        <path d="m5.634 178.854-1-8" style="fill:none;stroke:#000;stroke-width:.3;stroke-linejoin:round;stroke-opacity:1"/>
        <path d="m3.39 133.5 9 5" class="UnoptimicedTransforms" style="fill:none;stroke:#000;stroke-width:.3;stroke-linejoin:round;stroke-opacity:1" transform="translate(1.243 37.354)"/>
        <path d="m5.634 178.854-1-8M13.648 191.567l-16.014-1.713M-.366 183.854l14.014 7.713M-8.366 181.854l8 2" style="fill:none;stroke:#000;stroke-width:.3;stroke-linejoin:round;stroke-opacity:1"/>
        <circle cx="-.259" cy="183.86" r=".511" style="color:#000;overflow:visible;fill:none;fill-opacity:1;stroke:#f20000;stroke-width:.499999;stroke-opacity:1;stop-color:#000"/>
        <path d="m-3.61 152.5 3.97-4.916 4.03-6.084 8-3-9-5-11 2-8 2-3 10 5 9 9 7 1-11" class="UnoptimicedTransforms" style="fill:#b2f2ff;fill-opacity:1;stroke:#000;stroke-width:.3;stroke-linejoin:round;stroke-opacity:1" transform="translate(42.94 37.036)"/>
        <path d="m-3.61 152.5 3.97-4.916 4.03-6.084 8-3 2 7m-18 7-1 11 12-1 6-2 4-7-3-8" class="UnoptimicedTransforms" style="fill:#fab2ff;fill-opacity:1;stroke:#000;stroke-width:.3;stroke-linejoin:round;stroke-opacity:1" transform="translate(42.94 37.036)"/>
        <path d="m47.33 178.536-14 3M35.33 172.536l12 6M33.33 181.536l2-9M55.345 191.248l-8.014-12.712M57.33 182.536l-1.985 8.712M47.33 178.536l10 4M50.33 199.536l-11-10M55.345 191.248l-5.014 8.288M39.33 189.536l16.015 1.712M50.33 199.536l-11-10M39.33 189.536l-1 11" style="fill:none;stroke:#000;stroke-width:.3;stroke-linejoin:round;stroke-opacity:1"/>
        <path d="m-13.61 156.5 9 7" class="UnoptimicedTransforms" style="fill:none;stroke:#000;stroke-width:.3;stroke-linejoin:round;stroke-opacity:1" transform="translate(42.94 37.036)"/>
        <path d="m39.33 189.536-10 4M29.33 193.536l10-4M33.33 181.536l-4 12M39.33 189.536l-6-8M29.33 193.536l4-12" style="fill:none;stroke:#000;stroke-width:.3;stroke-linejoin:round;stroke-opacity:1"/>
        <path d="m-18.61 147.5 5 9" class="UnoptimicedTransforms" style="fill:none;stroke:#000;stroke-width:.3;stroke-linejoin:round;stroke-opacity:1" transform="translate(42.94 37.036)"/>
        <path d="m33.33 181.536-9 3M24.33 184.536l9-3" style="fill:none;stroke:#000;stroke-width:.3;stroke-linejoin:round;stroke-opacity:1"/>
        <path d="m-15.61 137.5-3 10" class="UnoptimicedTransforms" style="fill:none;stroke:#000;stroke-width:.3;stroke-linejoin:round;stroke-opacity:1" transform="translate(42.94 37.036)"/>
        <path d="m33.33 181.536-6-7M27.33 174.536l6 7" style="fill:none;stroke:#000;stroke-width:.3;stroke-linejoin:round;stroke-opacity:1"/>
        <path d="m-7.61 135.5-8 2" class="UnoptimicedTransforms" style="fill:none;stroke:#000;stroke-width:.3;stroke-linejoin:round;stroke-opacity:1" transform="translate(42.94 37.036)"/>
        <path d="m33.33 181.536 2-9M55.345 191.248l4.986-.712M55.345 191.248l.986 6.288M57.33 182.536l-10-4M35.33 172.536l12 6" style="fill:none;stroke:#000;stroke-width:.3;stroke-linejoin:round;stroke-opacity:1"/>
        <path d="m3.39 133.5-11 2" class="UnoptimicedTransforms" style="fill:none;stroke:#000;stroke-width:.3;stroke-linejoin:round;stroke-opacity:1" transform="translate(42.94 37.036)"/>
        <path d="m47.33 178.536-1-8" style="fill:none;stroke:#000;stroke-width:.3;stroke-linejoin:round;stroke-opacity:1"/>
        <path d="m3.39 133.5 9 5" class="UnoptimicedTransforms" style="fill:none;stroke:#000;stroke-width:.3;stroke-linejoin:round;stroke-opacity:1" transform="translate(42.94 37.036)"/>
        <path d="m47.33 178.536-1-8M55.345 191.248l-16.014-1.712M43.3 184.62l12.045 6.628M33.33 181.536l9.97 3.084" style="fill:none;stroke:#000;stroke-width:.3;stroke-linejoin:round;stroke-opacity:1"/>
        <circle cx="43.242" cy="184.603" r=".511" style="color:#000;overflow:visible;fill:none;fill-opacity:1;stroke:#f20000;stroke-width:.499999;stroke-opacity:1;stop-color:#000"/>
        <path d="m-3.61 152.5 2-6 6-5" class="UnoptimicedTransforms" style="fill:none;fill-opacity:1;stroke:#000;stroke-width:.3;stroke-linejoin:round;stroke-dasharray:.3,.6;stroke-dashoffset:0;stroke-opacity:1" transform="translate(42.94 37.036)"/>
        <text xml:space="preserve" x="-3.311" y="208.604" style="font-size:63.9373px;line-height:91.3384px;font-family:&quot;Bitstream Vera Sans&quot;;text-decoration-color:#000;letter-spacing:0;word-spacing:0;fill:red;fill-opacity:.331658;stroke:none;stroke-width:3.65355px;stroke-linecap:butt;stroke-linejoin:miter;stroke-opacity:1;-inkscape-stroke:none;stop-color:#000"><tspan x="-3.311" y="208.604" style="fill:red;fill-opacity:.331658;stroke:none;stroke-width:3.65355px">❌</tspan></text>
    </g>
</svg>
