<svg xmlns="http://www.w3.org/2000/svg" width="296.909" height="115.087" viewBox="0 0 78.557 30.45">
    <g transform="translate(18.76 -133.2)">
        <path d="m-3.61 152.5 2-6 6-5 8-3-9-5-11 2-8 2-3 10 5 9 9 7 1-11" class="UnoptimicedTransforms" style="fill:#b2f2ff;fill-opacity:1;stroke:#000;stroke-width:.3;stroke-linejoin:round;stroke-opacity:1"/>
        <path d="m-3.61 152.5 2-6 6-5 8-3 2 7m-18 7-1 11 12-1 6-2 4-7-3-8" class="UnoptimicedTransforms" style="fill:#fab2ff;fill-opacity:1;stroke:#000;stroke-width:.3;stroke-linejoin:round;stroke-opacity:1"/>
        <path d="m4.39 141.5-14 3M-7.61 135.5l12 6M-9.61 144.5l2-9M12.405 154.212 4.391 141.5M14.39 145.5l-1.985 8.712M4.39 141.5l10 4M7.39 162.5l-11-10M12.405 154.212 7.391 162.5M-3.61 152.5l16.015 1.712M7.39 162.5l-11-10M-3.61 152.5l-1 11" style="fill:none;stroke:#000;stroke-width:.3;stroke-linejoin:round;stroke-opacity:1"/>
        <path d="m-13.61 156.5 9 7" class="UnoptimicedTransforms" style="fill:none;stroke:#000;stroke-width:.3;stroke-linejoin:round;stroke-opacity:1"/>
        <path d="m-3.61 152.5-10 4M-13.61 156.5l10-4M-9.61 144.5l-4 12M-3.61 152.5l-6-8M-13.61 156.5l4-12" style="fill:none;stroke:#000;stroke-width:.3;stroke-linejoin:round;stroke-opacity:1"/>
        <path d="m-18.61 147.5 5 9" class="UnoptimicedTransforms" style="fill:none;stroke:#000;stroke-width:.3;stroke-linejoin:round;stroke-opacity:1"/>
        <path d="m-9.61 144.5-9 3M-18.61 147.5l9-3" style="fill:none;stroke:#000;stroke-width:.3;stroke-linejoin:round;stroke-opacity:1"/>
        <path d="m-15.61 137.5-3 10" class="UnoptimicedTransforms" style="fill:none;stroke:#000;stroke-width:.3;stroke-linejoin:round;stroke-opacity:1"/>
        <path d="m-9.61 144.5-6-7M-15.61 137.5l6 7" style="fill:none;stroke:#000;stroke-width:.3;stroke-linejoin:round;stroke-opacity:1"/>
        <path d="m-7.61 135.5-8 2" class="UnoptimicedTransforms" style="fill:none;stroke:#000;stroke-width:.3;stroke-linejoin:round;stroke-opacity:1"/>
        <path d="m-9.61 144.5 2-9M12.405 154.212l4.986-.712M12.405 154.212l.986 6.288M14.39 145.5l-10-4M-7.61 135.5l12 6" style="fill:none;stroke:#000;stroke-width:.3;stroke-linejoin:round;stroke-opacity:1"/>
        <path d="m3.39 133.5-11 2" class="UnoptimicedTransforms" style="fill:none;stroke:#000;stroke-width:.3;stroke-linejoin:round;stroke-opacity:1"/>
        <path d="m4.39 141.5-1-8" style="fill:none;stroke:#000;stroke-width:.3;stroke-linejoin:round;stroke-opacity:1"/>
        <path d="m3.39 133.5 9 5" class="UnoptimicedTransforms" style="fill:none;stroke:#000;stroke-width:.3;stroke-linejoin:round;stroke-opacity:1"/>
        <path d="m4.39 141.5-1-8M12.405 154.212-3.609 152.5M-1.61 146.5l14.015 7.712M-9.61 144.5l8 2" style="fill:none;stroke:#000;stroke-width:.3;stroke-linejoin:round;stroke-opacity:1"/>
        <path d="m-3.61 152.5 2-6 6-5 8-3-9-5-11 2-8 2-3 10 5 9 9 7 1-11" class="UnoptimicedTransforms" style="fill:#b2f2ff;fill-opacity:1;stroke:#000;stroke-width:.3;stroke-linejoin:round;stroke-opacity:1" transform="translate(42.257 -.15)"/>
        <path d="m-3.61 152.5 2-6 6-5 8-3 2 7m-18 7-1 11 12-1 6-2 4-7-3-8" class="UnoptimicedTransforms" style="fill:#fab2ff;fill-opacity:1;stroke:#000;stroke-width:.3;stroke-linejoin:round;stroke-opacity:1" transform="translate(42.257 -.15)"/>
        <path d="m4.39 141.5-14 3M-7.61 135.5l12 6M-9.61 144.5l2-9M8.79 152.043 4.39 141.5M14.39 145.5l-5.6 6.543M4.39 141.5l10 4M7.39 162.5l-11-10M8.79 152.043 7.39 162.5M7.39 162.5l-11-10M-3.61 152.5l-1 11" style="fill:none;stroke:#000;stroke-width:.3;stroke-linejoin:round;stroke-opacity:1" transform="translate(42.257 -.15)"/>
        <path d="m-13.61 156.5 9 7" class="UnoptimicedTransforms" style="fill:none;stroke:#000;stroke-width:.3;stroke-linejoin:round;stroke-opacity:1" transform="translate(42.257 -.15)"/>
        <path d="m-3.61 152.5-10 4M-13.61 156.5l10-4M-9.61 144.5l-4 12M-3.61 152.5l-6-8M-13.61 156.5l4-12" style="fill:none;stroke:#000;stroke-width:.3;stroke-linejoin:round;stroke-opacity:1" transform="translate(42.257 -.15)"/>
        <path d="m-18.61 147.5 5 9" class="UnoptimicedTransforms" style="fill:none;stroke:#000;stroke-width:.3;stroke-linejoin:round;stroke-opacity:1" transform="translate(42.257 -.15)"/>
        <path d="m-9.61 144.5-9 3M-18.61 147.5l9-3" style="fill:none;stroke:#000;stroke-width:.3;stroke-linejoin:round;stroke-opacity:1" transform="translate(42.257 -.15)"/>
        <path d="m-15.61 137.5-3 10" class="UnoptimicedTransforms" style="fill:none;stroke:#000;stroke-width:.3;stroke-linejoin:round;stroke-opacity:1" transform="translate(42.257 -.15)"/>
        <path d="m-9.61 144.5-6-7M-15.61 137.5l6 7" style="fill:none;stroke:#000;stroke-width:.3;stroke-linejoin:round;stroke-opacity:1" transform="translate(42.257 -.15)"/>
        <path d="m-7.61 135.5-8 2" class="UnoptimicedTransforms" style="fill:none;stroke:#000;stroke-width:.3;stroke-linejoin:round;stroke-opacity:1" transform="translate(42.257 -.15)"/>
        <path d="m-9.61 144.5 2-9M8.79 152.043l8.6 1.457M8.79 152.043l4.6 8.457M14.39 145.5l-10-4M-7.61 135.5l12 6" style="fill:none;stroke:#000;stroke-width:.3;stroke-linejoin:round;stroke-opacity:1" transform="translate(42.257 -.15)"/>
        <path d="m3.39 133.5-11 2" class="UnoptimicedTransforms" style="fill:none;stroke:#000;stroke-width:.3;stroke-linejoin:round;stroke-opacity:1" transform="translate(42.257 -.15)"/>
        <path d="m4.39 141.5-1-8" style="fill:none;stroke:#000;stroke-width:.3;stroke-linejoin:round;stroke-opacity:1" transform="translate(42.257 -.15)"/>
        <path d="m3.39 133.5 9 5" class="UnoptimicedTransforms" style="fill:none;stroke:#000;stroke-width:.3;stroke-linejoin:round;stroke-opacity:1" transform="translate(42.257 -.15)"/>
        <path d="m4.39 141.5-1-8M8.79 152.043l-12.4.457M-1.61 146.5l10.4 5.543M-9.61 144.5l8 2" style="fill:none;stroke:#000;stroke-width:.3;stroke-linejoin:round;stroke-opacity:1" transform="translate(42.257 -.15)"/>
        <circle cx="12.291" cy="154.222" r=".511" style="color:#000;overflow:visible;fill:none;fill-opacity:1;stroke:#f20000;stroke-width:.499999;stroke-opacity:1;stop-color:#000"/>
        <circle cx="51.041" cy="151.878" r=".511" style="color:#000;overflow:visible;fill:none;fill-opacity:1;stroke:#f20000;stroke-width:.499999;stroke-opacity:1;stop-color:#000"/>
    </g>
</svg>
