<svg xmlns="http://www.w3.org/2000/svg" width="465.078" height="114.52" viewBox="0 0 123.052 30.3">
    <g transform="translate(39.635 -133.35)">
        <path d="m12.89 144.5 2-9 12 6zM26.89 141.5l10 4-4 9zM18.89 152.5l14 2-3 8z" style="fill:none;stroke:#84bd00;stroke-width:.3;stroke-linejoin:round"/>
        <path d="m18.89 152.5-1 11 12-1z" style="fill:none;stroke:#84bd00;stroke-width:.3;stroke-linejoin:round"/>
        <path d="m18.89 152.5-10 4 9 7z" style="fill:none;stroke:#84bd00;stroke-width:.3;stroke-linejoin:round"/>
        <path d="m18.89 152.5-6-8-4 12zM12.89 144.5l-9 3 5 9z" style="fill:none;stroke:#84bd00;stroke-width:.3;stroke-linejoin:round"/>
        <path d="m12.89 144.5-6-7-3 10z" style="fill:none;stroke:#84bd00;stroke-width:.3;stroke-linejoin:round"/>
        <path d="m12.89 144.5 2-9-8 2zM32.89 154.5l7-1-3-8zM32.89 154.5l3 6 4-7z" style="fill:none;stroke:#84bd00;stroke-width:.3;stroke-linejoin:round"/>
        <path d="m32.89 154.5-3 8 6-2zM26.89 141.5l-1-8 9 5-8 3-1-8-11 2 12 6 8-3 2 7-10-4" style="fill:none;stroke:#84bd00;stroke-width:.3;stroke-linejoin:round"/>
        <circle cx="22.785" cy="149.555" r=".5" style="fill:none;stroke:#e4002b;stroke-width:.3;stroke-linejoin:round"/>
        <path d="m12.89 144.5 6 8 14 2-6-13z" style="fill:none;stroke:#e4002b;stroke-width:.3;stroke-linejoin:round"/>
    </g>
    <path d="m-30.253 144.649 2-9 12 6zM-16.253 141.649l10 4-4 9zM-24.253 152.649l14 2-3 8z" style="fill:none;stroke:#84bd00;stroke-width:.3;stroke-linejoin:round" transform="translate(39.403 -133.499)"/>
    <path d="m-24.253 152.649-1 11 12-1z" style="fill:none;stroke:#84bd00;stroke-width:.3;stroke-linejoin:round" transform="translate(39.403 -133.499)"/>
    <path d="m-24.253 152.649-10 4 9 7z" style="fill:none;stroke:#84bd00;stroke-width:.3;stroke-linejoin:round" transform="translate(39.403 -133.499)"/>
    <path d="m-24.253 152.649-6-8-4 12zM-30.253 144.649l-9 3 5 9z" style="fill:none;stroke:#84bd00;stroke-width:.3;stroke-linejoin:round" transform="translate(39.403 -133.499)"/>
    <path d="m-30.253 144.649-6-7-3 10z" style="fill:none;stroke:#84bd00;stroke-width:.3;stroke-linejoin:round" transform="translate(39.403 -133.499)"/>
    <path d="m-30.253 144.649 2-9-8 2zM-10.253 154.649l7-1-3-8zM-10.253 154.649l3 6 4-7z" style="fill:none;stroke:#84bd00;stroke-width:.3;stroke-linejoin:round" transform="translate(39.403 -133.499)"/>
    <path d="m-10.253 154.649-3 8 6-2zM-16.253 141.649l-1-8 9 5-8 3-1-8-11 2 12 6 8-3 2 7-10-4" style="fill:none;stroke:#84bd00;stroke-width:.3;stroke-linejoin:round" transform="translate(39.403 -133.499)"/>
    <path d="m-30.253 144.649 6 8 14 2-6-13zM-10.253 154.649l-20-10" style="fill:none;stroke:#e4002b;stroke-width:.3;stroke-linejoin:round" transform="translate(39.403 -133.499)"/>
    <g transform="translate(38.011 -133.35)">
        <path d="m57.89 144.5 2-9 12 6zM71.89 141.5l10 4-4 9zM63.89 152.5l14 2-3 8z" style="fill:none;stroke:#84bd00;stroke-width:.3;stroke-linejoin:round"/>
        <path d="m63.89 152.5-1 11 12-1z" style="fill:none;stroke:#84bd00;stroke-width:.3;stroke-linejoin:round"/>
        <path d="m63.89 152.5-10 4 9 7z" style="fill:none;stroke:#84bd00;stroke-width:.3;stroke-linejoin:round"/>
        <path d="m63.89 152.5-6-8-4 12zM57.89 144.5l-9 3 5 9z" style="fill:none;stroke:#84bd00;stroke-width:.3;stroke-linejoin:round"/>
        <path d="m57.89 144.5-6-7-3 10z" style="fill:none;stroke:#84bd00;stroke-width:.3;stroke-linejoin:round"/>
        <path d="m57.89 144.5 2-9-8 2zM77.89 154.5l7-1-3-8zM77.89 154.5l3 6 4-7z" style="fill:none;stroke:#84bd00;stroke-width:.3;stroke-linejoin:round"/>
        <path d="m77.89 154.5-3 8 6-2zM71.89 141.5l-1-8 9 5-8 3-1-8-11 2 12 6 8-3 2 7-10-4" style="fill:none;stroke:#84bd00;stroke-width:.3;stroke-linejoin:round"/>
        <circle cx="67.858" cy="149.501" r=".5" style="fill:none;stroke:#e4002b;stroke-width:.3;stroke-linejoin:round"/>
        <path d="m57.89 144.5 6 8 14 2-6-13z" style="fill:none;stroke:#e4002b;stroke-width:.3;stroke-linejoin:round"/>
        <path d="m57.89 144.5 10 5 4-8M77.89 154.5l-10-5-4 3" style="fill:none;stroke:#e4002b;stroke-width:.3;stroke-linejoin:round"/>
    </g>
</svg>
