<?xml version="1.0" encoding="UTF-8" standalone="no"?>
<!-- Created with Inkscape (http://www.inkscape.org/) -->

<svg
   width="86.299988mm"
   height="30.299995mm"
   viewBox="0 0 86.299988 30.299995"
   version="1.1"
   id="svg1845"
   inkscape:version="1.2.2 (b0a8486, 2022-12-01)"
   sodipodi:docname="split.svg"
   xmlns:inkscape="http://www.inkscape.org/namespaces/inkscape"
   xmlns:sodipodi="http://sodipodi.sourceforge.net/DTD/sodipodi-0.dtd"
   xmlns="http://www.w3.org/2000/svg"
   xmlns:svg="http://www.w3.org/2000/svg">
  <sodipodi:namedview
     id="namedview1847"
     pagecolor="#ffffff"
     bordercolor="#000000"
     borderopacity="0.25"
     inkscape:showpageshadow="2"
     inkscape:pageopacity="0.0"
     inkscape:pagecheckerboard="0"
     inkscape:deskcolor="#d1d1d1"
     inkscape:document-units="mm"
     showgrid="false"
     inkscape:zoom="0.914906"
     inkscape:cx="-100.01027"
     inkscape:cy="-60.661969"
     inkscape:window-width="1390"
     inkscape:window-height="1205"
     inkscape:window-x="0"
     inkscape:window-y="25"
     inkscape:window-maximized="0"
     inkscape:current-layer="layer1" />
  <defs
     id="defs1842" />
  <g
     inkscape:label="Layer 1"
     inkscape:groupmode="layer"
     id="layer1"
     transform="translate(-70.791583,-164.43812)">
    <path
       style="fill:none;stroke:#84bd00;stroke-width:0.3;stroke-linejoin:round"
       d="m 79.941576,175.58812 19.999998,10 -13.999998,-2 z"
       id="path62579"
       sodipodi:nodetypes="cccc"
       inkscape:export-filename="split.png"
       inkscape:export-xdpi="300"
       inkscape:export-ydpi="300" />
    <path
       style="fill:none;stroke:#84bd00;stroke-width:0.3;stroke-linejoin:round"
       d="m 79.941576,175.58812 14,-3 5.999998,13 z"
       id="path62581" />
    <path
       style="fill:none;stroke:#84bd00;stroke-width:0.3;stroke-linejoin:round"
       d="m 79.941576,175.58812 2,-9 12,6 z"
       id="path62583" />
    <path
       style="fill:none;stroke:#84bd00;stroke-width:0.3;stroke-linejoin:round"
       d="m 93.941576,172.58812 9.999994,4 -3.999996,9 z"
       id="path62585" />
    <path
       style="fill:none;stroke:#84bd00;stroke-width:0.3;stroke-linejoin:round"
       d="m 85.941576,183.58812 13.999998,2 -2.999999,8 z"
       id="path62587"
       sodipodi:nodetypes="cccc" />
    <path
       style="fill:none;stroke:#84bd00;stroke-width:0.3;stroke-linejoin:round"
       d="m 85.941576,183.58812 -1,11 11.999999,-1 z"
       id="path62589"
       sodipodi:nodetypes="cccc" />
    <path
       style="fill:none;stroke:#84bd00;stroke-width:0.3;stroke-linejoin:round"
       d="m 85.941576,183.58812 -10,4 9,7 z"
       id="path62591"
       sodipodi:nodetypes="cccc" />
    <path
       style="fill:none;stroke:#84bd00;stroke-width:0.3;stroke-linejoin:round"
       d="m 85.941576,183.58812 -6,-8 -4,12 z"
       id="path62593"
       sodipodi:nodetypes="cccc" />
    <path
       style="fill:none;stroke:#84bd00;stroke-width:0.3;stroke-linejoin:round"
       d="m 79.941576,175.58812 -9,3 5,9 z"
       id="path62595" />
    <path
       style="fill:none;stroke:#84bd00;stroke-width:0.3;stroke-linejoin:round"
       d="m 79.941576,175.58812 -6,-7 -3,10 z"
       id="path62597" />
    <path
       style="fill:none;stroke:#84bd00;stroke-width:0.3;stroke-linejoin:round"
       d="m 79.941576,175.58812 2,-9 -8,2 z"
       id="path62599" />
    <path
       style="fill:none;stroke:#84bd00;stroke-width:0.3;stroke-linejoin:round"
       d="m 99.941574,185.58812 7.000006,-1 -3.00001,-8 z"
       id="path62601" />
    <path
       style="fill:none;stroke:#84bd00;stroke-width:0.3;stroke-linejoin:round"
       d="m 99.941574,185.58812 3.000006,6 4,-7 z"
       id="path62603" />
    <path
       style="fill:none;stroke:#84bd00;stroke-width:0.3;stroke-linejoin:round"
       d="m 99.941574,185.58812 -2.999999,8 6.000005,-2 z"
       id="path62605" />
    <path
       style="fill:none;stroke:#84bd00;stroke-width:0.3;stroke-linejoin:round"
       d="m 93.941576,172.58812 -1,-8 9.000004,5 -8.000004,3 -1.000001,-8 -10.999999,2 12,6 8.000004,-3 2,7 -10.000004,-4"
       id="path62607" />
    <path
       style="fill:none;stroke:#0085ad;stroke-width:0.3;stroke-linejoin:round"
       d="m 79.941576,175.58812 19.999998,10"
       id="path62701" />
    <path
       style="fill:none;stroke:#84bd00;stroke-width:0.3;stroke-linejoin:round"
       d="m 129.94158,175.58812 2,-9 12,6 z"
       id="path62583-8" />
    <path
       style="fill:none;stroke:#84bd00;stroke-width:0.3;stroke-linejoin:round"
       d="m 143.94158,172.58812 9.99999,4 -4,9 z"
       id="path62585-1" />
    <path
       style="fill:none;stroke:#84bd00;stroke-width:0.3;stroke-linejoin:round"
       d="m 135.94158,183.58812 13.99999,2 -2.99999,8 z"
       id="path62587-2"
       sodipodi:nodetypes="cccc" />
    <path
       style="fill:none;stroke:#84bd00;stroke-width:0.3;stroke-linejoin:round"
       d="m 135.94158,183.58812 -1,11 12,-1 z"
       id="path62589-9"
       sodipodi:nodetypes="cccc" />
    <path
       style="fill:none;stroke:#84bd00;stroke-width:0.3;stroke-linejoin:round"
       d="m 135.94158,183.58812 -10,4 9,7 z"
       id="path62591-8"
       sodipodi:nodetypes="cccc" />
    <path
       style="fill:none;stroke:#84bd00;stroke-width:0.3;stroke-linejoin:round"
       d="m 135.94158,183.58812 -6,-8 -4,12 z"
       id="path62593-7"
       sodipodi:nodetypes="cccc" />
    <path
       style="fill:none;stroke:#84bd00;stroke-width:0.3;stroke-linejoin:round"
       d="m 129.94158,175.58812 -9,3 5,9 z"
       id="path62595-6" />
    <path
       style="fill:none;stroke:#84bd00;stroke-width:0.3;stroke-linejoin:round"
       d="m 129.94158,175.58812 -6,-7 -3,10 z"
       id="path62597-6" />
    <path
       style="fill:none;stroke:#84bd00;stroke-width:0.3;stroke-linejoin:round"
       d="m 129.94158,175.58812 2,-9 -8,2 z"
       id="path62599-59" />
    <path
       style="fill:none;stroke:#84bd00;stroke-width:0.3;stroke-linejoin:round"
       d="m 149.94157,185.58812 7.00001,-1 -3.00001,-8 z"
       id="path62601-1" />
    <path
       style="fill:none;stroke:#84bd00;stroke-width:0.3;stroke-linejoin:round"
       d="m 149.94157,185.58812 3.00001,6 4,-7 z"
       id="path62603-13" />
    <path
       style="fill:none;stroke:#84bd00;stroke-width:0.3;stroke-linejoin:round"
       d="m 149.94157,185.58812 -2.99999,8 6,-2 z"
       id="path62605-64" />
    <path
       style="fill:none;stroke:#84bd00;stroke-width:0.3;stroke-linejoin:round"
       d="m 143.94158,172.58812 -1,-8 9,5 -8,3 -1,-8 -11,2 12,6 8,-3 2,7 -10,-4"
       id="path62607-5" />
    <path
       style="fill:none;stroke:#a51890;stroke-width:0.3;stroke-linejoin:round"
       d="m 139.94158,180.58812 -10.00001,-5 6.00001,8 z"
       id="path63146"
       sodipodi:nodetypes="cccc" />
    <path
       style="fill:none;stroke:#a51890;stroke-width:0.3;stroke-linejoin:round"
       d="m 139.94158,180.58812 4,-8 -14.00001,3 z"
       id="path63148"
       sodipodi:nodetypes="cccc" />
    <path
       style="fill:none;stroke:#a51890;stroke-width:0.3;stroke-linejoin:round"
       d="m 139.94158,180.58812 9.99999,5 -5.99999,-13 z"
       id="path63150"
       sodipodi:nodetypes="cccc" />
    <path
       style="fill:none;stroke:#a51890;stroke-width:0.3;stroke-linejoin:round"
       d="m 135.94158,183.58812 4,-3 9.99999,5 z"
       id="path1068" />
  </g>
</svg>
