<?xml version="1.0" encoding="UTF-8" standalone="no"?>
<!-- Created with Inkscape (http://www.inkscape.org/) -->

<svg
   width="86.299988mm"
   height="30.299995mm"
   viewBox="0 0 86.299988 30.299995"
   version="1.1"
   id="svg2202"
   inkscape:version="1.2.2 (b0a8486, 2022-12-01)"
   sodipodi:docname="swap.svg"
   xmlns:inkscape="http://www.inkscape.org/namespaces/inkscape"
   xmlns:sodipodi="http://sodipodi.sourceforge.net/DTD/sodipodi-0.dtd"
   xmlns="http://www.w3.org/2000/svg"
   xmlns:svg="http://www.w3.org/2000/svg">
  <sodipodi:namedview
     id="namedview2204"
     pagecolor="#ffffff"
     bordercolor="#000000"
     borderopacity="0.25"
     inkscape:showpageshadow="2"
     inkscape:pageopacity="0.0"
     inkscape:pagecheckerboard="0"
     inkscape:deskcolor="#d1d1d1"
     inkscape:document-units="mm"
     showgrid="false"
     inkscape:zoom="0.914906"
     inkscape:cx="163.40476"
     inkscape:cy="57.382944"
     inkscape:window-width="1390"
     inkscape:window-height="1205"
     inkscape:window-x="0"
     inkscape:window-y="25"
     inkscape:window-maximized="0"
     inkscape:current-layer="layer1" />
  <defs
     id="defs2199" />
  <g
     inkscape:label="Layer 1"
     inkscape:groupmode="layer"
     id="layer1"
     transform="translate(-1.2409501,-133.35)">
    <path
       style="fill:#0085ad;stroke:none;stroke-width:0.3;stroke-linejoin:round"
       d="m 10.390943,144.5 19.999998,10 -13.999998,-2 z"
       id="path62703"
       inkscape:export-filename="swap.png"
       inkscape:export-xdpi="300"
       inkscape:export-ydpi="300" />
    <path
       style="fill:none;stroke:#84bd00;stroke-width:0.3;stroke-linejoin:round"
       d="m 10.390943,144.5 19.999998,10 -13.999998,-2 z"
       id="path62579-7"
       sodipodi:nodetypes="cccc" />
    <path
       style="fill:none;stroke:#84bd00;stroke-width:0.3;stroke-linejoin:round"
       d="m 10.390943,144.5 14,-3 5.999998,13 z"
       id="path62581-0" />
    <path
       style="fill:none;stroke:#84bd00;stroke-width:0.3;stroke-linejoin:round"
       d="m 10.390943,144.5 2,-9 12,6 z"
       id="path62583-0" />
    <path
       style="fill:none;stroke:#84bd00;stroke-width:0.3;stroke-linejoin:round"
       d="m 24.390943,141.5 9.999998,4 -4,9 z"
       id="path62585-7" />
    <path
       style="fill:none;stroke:#84bd00;stroke-width:0.3;stroke-linejoin:round"
       d="m 16.390943,152.5 13.999998,2 -2.999999,8 z"
       id="path62587-3"
       sodipodi:nodetypes="cccc" />
    <path
       style="fill:none;stroke:#84bd00;stroke-width:0.3;stroke-linejoin:round"
       d="m 16.390943,152.5 -1,11 12,-1 z"
       id="path62589-8"
       sodipodi:nodetypes="cccc" />
    <path
       style="fill:none;stroke:#84bd00;stroke-width:0.3;stroke-linejoin:round"
       d="m 16.390943,152.5 -9.9999995,4 8.9999995,7 z"
       id="path62591-4"
       sodipodi:nodetypes="cccc" />
    <path
       style="fill:none;stroke:#84bd00;stroke-width:0.3;stroke-linejoin:round"
       d="m 16.390943,152.5 -6,-8 -3.9999995,12 z"
       id="path62593-2"
       sodipodi:nodetypes="cccc" />
    <path
       style="fill:none;stroke:#84bd00;stroke-width:0.3;stroke-linejoin:round"
       d="m 10.390943,144.5 -8.9999998,3 5.0000003,9 z"
       id="path62595-0" />
    <path
       style="fill:none;stroke:#84bd00;stroke-width:0.3;stroke-linejoin:round"
       d="m 10.390943,144.5 -5.9999997,-7 -3.0000001,10 z"
       id="path62597-1" />
    <path
       style="fill:none;stroke:#84bd00;stroke-width:0.3;stroke-linejoin:round"
       d="m 10.390943,144.5 2,-9 -7.9999997,2 z"
       id="path62599-5" />
    <path
       style="fill:none;stroke:#84bd00;stroke-width:0.3;stroke-linejoin:round"
       d="m 30.390941,154.5 7.000002,-1 -3.000002,-8 z"
       id="path62601-7" />
    <path
       style="fill:none;stroke:#84bd00;stroke-width:0.3;stroke-linejoin:round"
       d="m 30.390941,154.5 3.000002,6 4,-7 z"
       id="path62603-1" />
    <path
       style="fill:none;stroke:#84bd00;stroke-width:0.3;stroke-linejoin:round"
       d="m 30.390941,154.5 -2.999999,8 6.000001,-2 z"
       id="path62605-6" />
    <path
       style="fill:none;stroke:#84bd00;stroke-width:0.3;stroke-linejoin:round"
       d="m 24.390943,141.5 -1,-8 9,5 -8,3 -1.000001,-8 -10.999999,2 12,6 8,-3 2,7 -10,-4"
       id="path62607-6" />
    <path
       style="fill:none;stroke:#84bd00;stroke-width:0.3;stroke-linejoin:round"
       d="m 60.390944,144.5 2,-9 12.000001,6 z"
       id="path62583-8-3" />
    <path
       style="fill:none;stroke:#84bd00;stroke-width:0.3;stroke-linejoin:round"
       d="m 74.390945,141.5 9.999998,4 -4,9 z"
       id="path62585-1-0" />
    <path
       style="fill:none;stroke:#84bd00;stroke-width:0.3;stroke-linejoin:round"
       d="m 66.390945,152.5 13.999998,2 -2.999999,8 z"
       id="path62587-2-6"
       sodipodi:nodetypes="cccc" />
    <path
       style="fill:none;stroke:#84bd00;stroke-width:0.3;stroke-linejoin:round"
       d="m 66.390945,152.5 -1,11 11.999999,-1 z"
       id="path62589-9-1"
       sodipodi:nodetypes="cccc" />
    <path
       style="fill:none;stroke:#84bd00;stroke-width:0.3;stroke-linejoin:round"
       d="m 66.390945,152.5 -10.000001,4 9.000001,7 z"
       id="path62591-8-4"
       sodipodi:nodetypes="cccc" />
    <path
       style="fill:none;stroke:#84bd00;stroke-width:0.3;stroke-linejoin:round"
       d="m 66.390945,152.5 -6.000001,-8 -4,12 z"
       id="path62593-7-5"
       sodipodi:nodetypes="cccc" />
    <path
       style="fill:none;stroke:#84bd00;stroke-width:0.3;stroke-linejoin:round"
       d="m 60.390944,144.5 -9,3 5,9 z"
       id="path62595-6-0" />
    <path
       style="fill:none;stroke:#84bd00;stroke-width:0.3;stroke-linejoin:round"
       d="m 60.390944,144.5 -6,-7 -3,10 z"
       id="path62597-6-0" />
    <path
       style="fill:none;stroke:#84bd00;stroke-width:0.3;stroke-linejoin:round"
       d="m 60.390944,144.5 2,-9 -8,2 z"
       id="path62599-59-3" />
    <path
       style="fill:none;stroke:#84bd00;stroke-width:0.3;stroke-linejoin:round"
       d="m 80.390943,154.5 7.000002,-1 -3.000002,-8 z"
       id="path62601-1-2" />
    <path
       style="fill:none;stroke:#84bd00;stroke-width:0.3;stroke-linejoin:round"
       d="m 80.390943,154.5 3.000002,6 4,-7 z"
       id="path62603-13-7" />
    <path
       style="fill:none;stroke:#84bd00;stroke-width:0.3;stroke-linejoin:round"
       d="m 80.390943,154.5 -2.999999,8 6.000001,-2 z"
       id="path62605-64-5" />
    <path
       style="fill:none;stroke:#84bd00;stroke-width:0.3;stroke-linejoin:round"
       d="m 74.390945,141.5 -1,-8 9,5 -8,3 -1.000001,-8 -11,2 12.000001,6 8,-3 2,7 -10,-4"
       id="path62607-5-6" />
    <path
       style="fill:none;stroke:#a51890;stroke-width:0.3;stroke-linejoin:round"
       d="m 66.390944,152.5 -6.000001,-8 14.000001,-3 z"
       id="path63154" />
    <path
       style="fill:none;stroke:#a51890;stroke-width:0.3;stroke-linejoin:round"
       d="m 66.390944,152.5 8,-11 5.999998,13 z"
       id="path63156" />
  </g>
</svg>
