<svg xmlns="http://www.w3.org/2000/svg" width="477.354" height="114.52" viewBox="0 0 126.3 30.3">
 <g transform="translate(-.472 -122.794)" style="fill:none;stroke-linejoin:round;stroke:#84bd00;stroke-width:.3">
  <path d="m9.622 133.945 2-9 12 6zm14-3 10 4-4 9zm-8 11 14 2-3 8z"/>
  <path d="m15.622 141.945-1 11 12-1z"/>
  <path d="m15.622 141.945-10 4 9 7z"/>
  <path d="m15.622 141.945-6-8-4 12zm-6-8-9 3 5 9z"/>
  <path d="m9.622 133.945-6-7-3 10z"/>
  <path d="m9.622 133.945 2-9-8 2zm20 10 7-1-3-8zm0 0 3 6 4-7z"/>
  <path d="m29.622 143.945-3 8 6-2zm-6-13-1-8 9 5-8 3-1-8-11 2 12 6 8-3 2 7-10-4"/>
  <path d="m9.622 133.945 6 8 14 2-6-13z" style="stroke:#e4002b"/>
  <path d="m54.622 133.945 2-9 12 6zm14-3 10 4-4 9zm-8 11 14 2-3 8z"/>
  <path d="m60.622 141.945-1 11 12-1z"/>
  <path d="m60.622 141.945-10 4 9 7z"/>
  <path d="m60.622 141.945-6-8-4 12zm-6-8-9 3 5 9z"/>
  <path d="m54.622 133.945-6-7-3 10z"/>
  <path d="m54.622 133.945 2-9-8 2zm20 10 7-1-3-8zm0 0 3 6 4-7z"/>
  <path d="m74.622 143.945-3 8 6-2zm-6-13-1-8 9 5-8 3-1-8-11 2 12 6 8-3 2 7-10-4"/>
  <path d="m54.622 133.945 6 8 14 2-6-13z" style="stroke:#e4002b"/>
  <path d="m99.622 133.945 2-9 12 6zm14-3 10 4-4 9zm-8 11 14 2-3 8z"/>
  <path d="m105.622 141.945-1 11 12-1z"/>
  <path d="m105.622 141.945-10 4 9 7z"/>
  <path d="m105.622 141.945-6-8-4 12zm-6-8-9 3 5 9z"/>
  <path d="m99.622 133.945-6-7-3 10z"/>
  <path d="m99.622 133.945 2-9-8 2zm20 10 7-1-3-8zm0 0 3 6 4-7z"/>
  <path d="m119.622 143.945-3 8 6-2zm-6-13-1-8 9 5-8 3-1-8-11 2 12 6 8-3 2 7-10-4"/>
  <path d="m99.622 133.945 6 8 14 2-6-13z" style="stroke:#e4002b"/>
  <circle cx="60.619" cy="141.923" r=".5" style="stroke:#e4002b"/>
  <path d="m105.622 141.945 8-11m-104 3 20 10" style="fill:#404040;stroke:#c00"/>
 </g>
</svg>
