<?xml version="1.0" encoding="UTF-8" standalone="no"?>
<!-- Created with Inkscape (http://www.inkscape.org/) -->

<svg
   width="60.116314mm"
   height="63.036205mm"
   viewBox="0 0 60.116314 63.036205"
   version="1.1"
   id="svg5"
   xml:space="preserve"
   sodipodi:docname="tucano.svg"
   inkscape:version="1.2.2 (b0a8486, 2022-12-01)"
   xmlns:inkscape="http://www.inkscape.org/namespaces/inkscape"
   xmlns:sodipodi="http://sodipodi.sourceforge.net/DTD/sodipodi-0.dtd"
   xmlns="http://www.w3.org/2000/svg"
   xmlns:svg="http://www.w3.org/2000/svg"><sodipodi:namedview
     id="namedview7"
     pagecolor="#ffffff"
     bordercolor="#000000"
     borderopacity="0.25"
     inkscape:showpageshadow="2"
     inkscape:pageopacity="0.0"
     inkscape:pagecheckerboard="0"
     inkscape:deskcolor="#d1d1d1"
     inkscape:document-units="mm"
     showgrid="true"
     inkscape:zoom="2.3786088"
     inkscape:cx="136.8447"
     inkscape:cy="97.536005"
     inkscape:window-width="1920"
     inkscape:window-height="990"
     inkscape:window-x="0"
     inkscape:window-y="25"
     inkscape:window-maximized="0"
     inkscape:current-layer="layer1"><inkscape:grid
       type="xygrid"
       id="grid2501"
       originx="-9.1659106"
       originy="-10.472899" /></sodipodi:namedview><defs
     id="defs2" /><g
     inkscape:label="Layer 1"
     inkscape:groupmode="layer"
     id="layer1"
     transform="translate(-9.1659103,-10.472899)"><path
       style="fill:#ff9900;stroke:#000000;stroke-width:0.3;stroke-linejoin:round"
       d="m 25.472698,15.239125 12.847583,0.61179 -10.233573,-4.115676 z"
       id="path3180" /><path
       style="fill:#ff9900;stroke:#000000;stroke-width:0.3;stroke-linejoin:round"
       d="m 28.086708,11.735239 10.233573,4.115676 2.669627,-4.616232 -12.9032,0.500556"
       id="path3236" /><path
       style="fill:#ff9900;stroke:#000000;stroke-width:0.3;stroke-linejoin:round"
       d="M 38.320281,15.850915 49.110026,15.016656 40.989908,11.234683 Z"
       id="path3238" /><path
       style="fill:#ff9900;stroke:#000000;stroke-width:0.3;stroke-linejoin:round"
       d="m 40.989908,11.234683 13.570609,2.947714 -5.450491,0.834259 z"
       id="path3240" /><path
       style="fill:#ff9900;stroke:#000000;stroke-width:0.3;stroke-linejoin:round"
       d="m 49.110026,15.016656 9.454931,6.4516 -4.00444,-7.285859 z"
       id="path3242" /><path
       style="fill:#ff9900;stroke:#000000;stroke-width:0.3;stroke-linejoin:round"
       d="m 49.110026,15.016656 2.057839,7.897648 7.397092,-1.446048 -9.454931,-6.4516"
       id="path3244" /><path
       style="fill:#ff9900;stroke:#000000;stroke-width:0.3;stroke-linejoin:round"
       d="m 38.320281,15.850915 10.789745,-0.834259 2.057839,7.897648 -12.847584,-7.063389"
       id="path3246" /><path
       style="fill:#ff9900;stroke:#000000;stroke-width:0.3;stroke-linejoin:round"
       d="m 54.560517,14.182397 7.007773,6.284749 -3.003333,1.00111 z"
       id="path3248" /><path
       style="fill:#ff9900;stroke:#000000;stroke-width:0.3;stroke-linejoin:round"
       d="m 58.564957,21.468256 7.786414,7.285859 -4.783081,-8.286969 -3.003333,1.00111"
       id="path3250" /><path
       style="fill:#ff9900;stroke:#000000;stroke-width:0.3;stroke-linejoin:round"
       d="M 51.167865,22.914304 37.486023,25.02776 38.320281,15.850915 Z"
       id="path3252" /><path
       style="fill:#ff9900;stroke:#000000;stroke-width:0.3;stroke-linejoin:round"
       d="m 37.486023,25.02776 -12.013325,-9.788635 12.847583,0.61179 z"
       id="path3254" /><path
       style="fill:#ff9900;stroke:#000000;stroke-width:0.3;stroke-linejoin:round"
       d="M 25.472698,15.239125 37.486023,25.02776 25.194611,24.916525 Z"
       id="path3258" /><path
       style="fill:#ff6600;stroke:#000000;stroke-width:0.3;stroke-linejoin:round"
       d="M 25.194611,24.916525 37.486023,25.02776 35.70627,29.755224 25.194611,24.916525"
       id="path3314"
       sodipodi:nodetypes="cccc" /><path
       style="fill:#ff6600;stroke:#000000;stroke-width:0.3;stroke-linejoin:round"
       d="m 37.486023,25.02776 13.793076,2.280306 -0.111234,-4.393762 z"
       id="path3316" /><path
       style="fill:#ff6600;stroke:#000000;stroke-width:0.3;stroke-linejoin:round"
       d="m 37.486023,25.02776 -1.779753,4.727464 6.507217,-0.444935 z"
       id="path3318"
       sodipodi:nodetypes="cccc" /><path
       style="fill:#ff6600;stroke:#000000;stroke-width:0.3;stroke-linejoin:round"
       d="M 42.213487,29.31029 51.279099,27.308066 37.486023,25.02776 Z"
       id="path3320" /><path
       style="fill:#ff6600;stroke:#000000;stroke-width:0.3;stroke-linejoin:round"
       d="m 42.213487,29.31029 9.343697,1.056725 -0.278085,-3.058949 z"
       id="path3322" /><path
       style="fill:#ff6600;stroke:#000000;stroke-width:0.3;stroke-linejoin:round"
       d="M 51.279099,27.308066 69.132235,36.874233 51.557184,30.367015 Z"
       id="path3324" /><path
       style="fill:#404040;stroke:#000000;stroke-width:0.3;stroke-linejoin:round"
       d="m 51.167865,22.914304 0.111234,4.393762 7.285858,-5.83981 z"
       id="path3380" /><path
       style="fill:#404040;stroke:#000000;stroke-width:0.3;stroke-linejoin:round"
       d="m 51.279099,27.308066 15.072272,1.446049 -7.786414,-7.285859 z"
       id="path3382" /><path
       style="fill:#404040;stroke:#000000;stroke-width:0.3;stroke-linejoin:round"
       d="m 51.279099,27.308066 15.072272,1.446049 2.780864,8.120118 z"
       id="path3384" /><path
       style="fill:#404040;stroke:#000000;stroke-width:0.3;stroke-linejoin:round"
       d="m 25.194611,24.916525 -2.224689,-8.67629 2.502776,-1.00111 z"
       id="path3440" /><path
       style="fill:#404040;stroke:#000000;stroke-width:0.3;stroke-linejoin:round"
       d="M 25.194611,24.916525 22.858687,24.41597 22.969922,16.240235 Z"
       id="path3442" /><path
       style="fill:#404040;stroke:#000000;stroke-width:0.3;stroke-linejoin:round"
       d="m 25.194611,24.916525 -2.335924,-0.500555 2.057838,3.392651 z"
       id="path3444" /><path
       style="fill:#404040;stroke:#000000;stroke-width:0.3;stroke-linejoin:round"
       d="M 24.916525,27.808621 35.70627,29.755224 25.194611,24.916525 Z"
       id="path3446"
       sodipodi:nodetypes="cccc" /><path
       style="fill:#404040;stroke:#000000;stroke-width:0.3;stroke-linejoin:round"
       d="m 25.472698,15.239125 -5.45049,-2.780863 4.22691,-1.835369 1.22358,4.616232"
       id="path3448" /><path
       style="fill:#404040;stroke:#000000;stroke-width:0.3;stroke-linejoin:round"
       d="m 24.249118,10.622893 3.83759,1.112346 -2.61401,3.503886 z"
       id="path3450" /><path
       style="fill:#404040;stroke:#000000;stroke-width:0.3;stroke-linejoin:round"
       d="m 20.022208,12.458262 -1.334814,6.729687 4.282528,-2.947714 z"
       id="path3452" /><path
       style="fill:#404040;stroke:#000000;stroke-width:0.3;stroke-linejoin:round"
       d="m 20.022208,12.458262 2.947714,3.781973 2.502776,-1.00111 z"
       id="path3454" /><path
       style="fill:#404040;stroke:#000000;stroke-width:0.3;stroke-linejoin:round"
       d="m 20.022208,12.458262 -2.892097,2.614011 1.557283,4.115676 z"
       id="path3456" /><path
       style="fill:#404040;stroke:#000000;stroke-width:0.3;stroke-linejoin:round"
       d="m 18.687394,19.187949 -3.893207,3.83759 2.335924,-7.953266 z"
       id="path3458" /><path
       style="fill:#404040;stroke:#000000;stroke-width:0.3;stroke-linejoin:round"
       d="m 18.687394,19.187949 -1.501666,3.503886 -2.391541,0.333704 z"
       id="path3460" /><path
       style="fill:#404040;stroke:#000000;stroke-width:0.3;stroke-linejoin:round"
       d="m 14.794187,23.025539 -0.834259,9.45493 3.2258,-9.788634 z"
       id="path3462" /><path
       style="fill:#404040;stroke:#000000;stroke-width:0.3;stroke-linejoin:round"
       d="m 35.817505,31.590593 -1.334815,5.394873 7.452712,1.223582 z"
       id="path3464" /><path
       style="fill:#404040;stroke:#000000;stroke-width:0.3;stroke-linejoin:round"
       d="m 34.48269,36.985466 7.452712,1.223582 -0.83426,7.84203 z"
       id="path3466" /><path
       style="fill:#404040;stroke:#000000;stroke-width:0.3;stroke-linejoin:round"
       d="m 41.935402,38.209048 4.949935,11.123447 -5.784195,-3.281417 z"
       id="path3468"
       sodipodi:nodetypes="cccc" /><path
       style="fill:#404040;stroke:#000000;stroke-width:0.3;stroke-linejoin:round"
       d="m 46.885337,49.332495 -1.390432,3.837589 -4.393763,-7.119006 z"
       id="path3470"
       sodipodi:nodetypes="cccc" /><path
       style="fill:#404040;stroke:#000000;stroke-width:0.3;stroke-linejoin:round"
       d="m 43.826387,56.673972 -2.725245,-10.622894 4.393763,7.119006 z"
       id="path3472" /><path
       style="fill:#404040;stroke:#000000;stroke-width:0.3;stroke-linejoin:round"
       d="m 43.826387,56.673972 -2.558391,-1.83537 -0.166854,-8.787524 z"
       id="path3474" /><path
       style="fill:#404040;stroke:#000000;stroke-width:0.3;stroke-linejoin:round"
       d="M 41.267996,54.838602 27.919857,47.052187 41.101142,46.051078 Z"
       id="path3476" /><path
       style="fill:#404040;stroke:#000000;stroke-width:0.3;stroke-linejoin:round"
       d="m 27.919857,47.052187 6.562833,-10.066721 6.618452,9.065612 z"
       id="path3478" /><path
       style="fill:#404040;stroke:#000000;stroke-width:0.3;stroke-linejoin:round"
       d="m 43.826387,56.673972 1.112345,4.171293 9.510549,2.61401 z"
       id="path3480" /><path
       style="fill:#404040;stroke:#000000;stroke-width:0.3;stroke-linejoin:round"
       d="m 44.938732,60.845265 8.620675,9.065611 0.889874,-6.451601 z"
       id="path3482"
       sodipodi:nodetypes="cccc" /><path
       style="fill:#404040;stroke:#000000;stroke-width:0.3;stroke-linejoin:round"
       d="m 41.267996,54.838602 2.002218,5.061169 -4.727463,-0.05562 z"
       id="path3484" /><path
       style="fill:#404040;stroke:#000000;stroke-width:0.3;stroke-linejoin:round"
       d="m 41.267996,54.838602 2.002218,5.061169 1.668518,0.945494 z"
       id="path3486" /><path
       style="fill:#404040;stroke:#000000;stroke-width:0.3;stroke-linejoin:round"
       d="m 41.267996,54.838602 2.558391,1.83537 1.112345,4.171293 z"
       id="path3488" /><path
       style="fill:#404040;stroke:#000000;stroke-width:0.3;stroke-linejoin:round"
       d="m 27.919857,57.841932 10.622894,2.002219 -3.781973,-4.449376 z"
       id="path3494" /><path
       style="fill:#404040;stroke:#000000;stroke-width:0.3;stroke-linejoin:round"
       d="m 13.959928,32.480469 -0.156035,11.29085 3.224841,1.887712 z"
       id="path3502" /><path
       style="fill:#404040;stroke:#000000;stroke-width:0.3;stroke-linejoin:round"
       d="M 13.803893,43.771319 25.583932,56.451502 17.028734,45.659031 13.803893,43.771319"
       id="path3504" /><path
       style="fill:#404040;stroke:#000000;stroke-width:0.3;stroke-linejoin:round"
       d="m 17.028734,45.659031 10.891123,1.393156 -2.335925,9.399315 z"
       id="path3506" /><path
       style="fill:#404040;stroke:#000000;stroke-width:0.3;stroke-linejoin:round"
       d="m 25.583932,56.451502 2.335925,1.39043 V 47.052187 Z"
       id="path3508" /><path
       style="fill:#404040;stroke:#000000;stroke-width:0.3;stroke-linejoin:round"
       d="m 27.919857,57.841932 6.840921,-2.447157 -6.840921,-8.342588 z"
       id="path3510" /><path
       style="fill:#404040;stroke:#000000;stroke-width:0.3;stroke-linejoin:round"
       d="m 34.760778,55.394775 6.507218,-0.556173 -2.725245,5.005549 z"
       id="path3512" /><path
       style="fill:#404040;stroke:#000000;stroke-width:0.3;stroke-linejoin:round"
       d="m 34.760778,55.394775 -6.840921,-8.342588 13.348139,7.786415 z"
       id="path3514" /><path
       style="fill:#bfbfbf;stroke:#000000;stroke-width:0.3;stroke-linejoin:round"
       d="m 17.185728,22.691835 2.892097,2.391542 -6.117897,7.397092 3.2258,-9.788634"
       id="path3570" /><path
       style="fill:#bfbfbf;stroke:#000000;stroke-width:0.3;stroke-linejoin:round"
       d="m 20.077825,25.083377 2.780862,-0.667407 2.057838,3.392651 -4.8387,-2.725244"
       id="path3572" /><path
       style="fill:#bfbfbf;stroke:#000000;stroke-width:0.3;stroke-linejoin:round"
       d="m 24.916525,27.808621 -10.956597,4.671848 6.117897,-7.397092 z"
       id="path3574" /><path
       style="fill:#bfbfbf;stroke:#000000;stroke-width:0.3;stroke-linejoin:round"
       d="m 24.916525,27.808621 -2.725245,9.733018 -8.231352,-5.06117 10.956597,-4.671848"
       id="path3576" /><path
       style="fill:#bfbfbf;stroke:#000000;stroke-width:0.3;stroke-linejoin:round"
       d="m 17.028734,45.659031 5.162546,-8.117392 -8.231352,-5.06117 z"
       id="path3578" /><path
       style="fill:#bfbfbf;stroke:#000000;stroke-width:0.3;stroke-linejoin:round"
       d="m 17.028734,45.659031 5.162546,-8.117392 5.728577,9.510548 z"
       id="path3580" /><path
       style="fill:#bfbfbf;stroke:#000000;stroke-width:0.3;stroke-linejoin:round"
       d="M 22.19128,37.541639 34.48269,36.985466 27.919857,47.052187 Z"
       id="path3582" /><path
       style="fill:#bfbfbf;stroke:#000000;stroke-width:0.3;stroke-linejoin:round"
       d="m 24.916525,27.808621 5.895429,1.112345 -8.620674,8.620673 z"
       id="path3584" /><path
       style="fill:#bfbfbf;stroke:#000000;stroke-width:0.3;stroke-linejoin:round"
       d="m 30.811954,28.920966 3.670736,8.0645 -12.29141,0.556173 z"
       id="path3586" /><path
       style="fill:#bfbfbf;stroke:#000000;stroke-width:0.3;stroke-linejoin:round"
       d="m 35.817505,31.590593 -5.005551,-2.669627 3.670736,8.0645 1.334815,-5.394873"
       id="path3588" /><path
       style="fill:#bfbfbf;stroke:#000000;stroke-width:0.3;stroke-linejoin:round"
       d="M 35.817505,31.590593 35.706269,29.755224 30.811954,28.920966 Z"
       id="path3686" /><path
       style="fill:#3366cc;stroke:#000000;stroke-width:0.3;stroke-linejoin:round"
       d="m 25.583932,56.451502 -5.728576,2.669627 8.064501,-1.279197 -2.335925,-1.39043"
       id="path3742" /><path
       style="fill:#3366cc;stroke:#000000;stroke-width:0.3;stroke-linejoin:round"
       d="m 23.637329,62.180078 4.282528,-4.338146 -5.478299,2.614012 z"
       id="path3764" /><path
       style="fill:#3366cc;stroke:#000000;stroke-width:0.3;stroke-linejoin:round"
       d="m 23.637329,62.180078 6.952155,-3.726355 -2.669627,-0.611791 z"
       id="path3766" /><path
       style="fill:#3366cc;stroke:#000000;stroke-width:0.3;stroke-linejoin:round"
       d="m 38.264663,63.792978 5.005551,-3.893207 -4.727463,-0.05562 z"
       id="path3788" /><path
       style="fill:#3366cc;stroke:#000000;stroke-width:0.3;stroke-linejoin:round"
       d="m 38.264663,63.792978 6.674069,-2.947713 -1.668518,-0.945494 -5.005551,3.893207"
       id="path3790" /><path
       style="fill:#3366cc;stroke:#000000;stroke-width:0.3;stroke-linejoin:round"
       d="m 39.877563,65.099985 5.061169,-4.25472 -6.674069,2.947713 z"
       id="path3792" /><path
       style="fill:#3366cc;stroke:#000000;stroke-width:0.3;stroke-linejoin:round"
       d="m 38.264663,63.792978 -2.836479,-0.278085 3.114567,-3.670742 -0.278088,3.948827"
       id="path3802" /><path
       style="fill:#3366cc;stroke:#000000;stroke-width:0.3;stroke-linejoin:round"
       d="m 19.855356,59.121129 2.586202,1.334815 5.478299,-2.614012 -8.064501,1.279197"
       id="path3804" /><path
       style="fill:#3366cc;stroke:#000000;stroke-width:0.3;stroke-linejoin:round"
       d="m 18.826437,20.216868 -0.723024,2.169072 1.390431,-0.361512 z"
       id="path3812" /><path
       style="fill:#3366cc;stroke:#000000;stroke-width:0.3;stroke-linejoin:round"
       d="m 18.826437,20.216868 1.724134,0.333703 -1.056727,1.473857 z"
       id="path3814" /><path
       style="fill:#3366cc;stroke:#000000;stroke-width:0.3;stroke-linejoin:round"
       d="m 19.493844,22.024428 1.056727,-1.473857 0.389321,2.308116 z"
       id="path3816" /><path
       style="fill:#3366cc;stroke:#000000;stroke-width:0.3;stroke-linejoin:round"
       d="m 19.493844,22.024428 -0.278086,1.167963 1.724134,-0.333704 z"
       id="path3818" /><path
       style="fill:#3366cc;stroke:#000000;stroke-width:0.3;stroke-linejoin:round"
       d="m 19.493844,22.024428 -1.390431,0.361512 1.112345,0.806451 0.278086,-1.167963"
       id="path3820" /><path
       style="fill:#cc0000;stroke:#000000;stroke-width:0.3;stroke-linejoin:round"
       d="m 17.185728,22.691835 0.917685,-0.305895 1.112345,0.806451 z"
       id="path3876" /><path
       style="fill:#cc0000;stroke:#000000;stroke-width:0.3;stroke-linejoin:round"
       d="m 17.185728,22.691835 2.892097,2.391542 -0.862067,-1.890986 z"
       id="path3878" /><path
       style="fill:#cc0000;stroke:#000000;stroke-width:0.3;stroke-linejoin:round"
       d="m 19.215758,23.192391 1.724134,-0.333704 -0.862067,2.22469 z"
       id="path3880" /><path
       style="fill:#cc0000;stroke:#000000;stroke-width:0.3;stroke-linejoin:round"
       d="m 20.939892,22.858687 1.918795,1.557283 -2.780862,0.667407 z"
       id="path3882" /><path
       style="fill:#cc0000;stroke:#000000;stroke-width:0.3;stroke-linejoin:round"
       d="m 20.939892,22.858687 2.03003,-6.618452 -0.111235,8.175735 z"
       id="path3884" /><path
       style="fill:#cc0000;stroke:#000000;stroke-width:0.3;stroke-linejoin:round"
       d="m 20.939892,22.858687 -0.389321,-2.308116 2.419351,-4.310336 z"
       id="path3886" /><path
       style="fill:#cc0000;stroke:#000000;stroke-width:0.3;stroke-linejoin:round"
       d="m 20.550571,20.550571 -1.724134,-0.333703 4.143485,-3.976633 z"
       id="path3888" /><path
       style="fill:#cc0000;stroke:#000000;stroke-width:0.3;stroke-linejoin:round"
       d="m 18.826437,20.216868 -0.139043,-1.028919 4.282528,-2.947714 z"
       id="path3890" /><path
       style="fill:#cc0000;stroke:#000000;stroke-width:0.3;stroke-linejoin:round"
       d="m 18.826437,20.216868 -0.139043,-1.028919 -1.501666,3.503886 z"
       id="path3892" /><path
       style="fill:#cc0000;stroke:#000000;stroke-width:0.3;stroke-linejoin:round"
       d="m 18.826437,20.216868 -0.723024,2.169072 -0.917685,0.305895 z"
       id="path3894" /><path
       style="fill:#3366cc;stroke:#000000;stroke-width:0.3;stroke-linejoin:round"
       d="m 19.855356,59.121129 -7.786414,1.251389 10.372616,0.08343 -2.586202,-1.334815"
       id="path4633" /><path
       style="fill:#3366cc;stroke:#000000;stroke-width:0.3;stroke-linejoin:round"
       d="M 12.068942,60.372518 9.3158883,66.712885 14.961038,62.346929 12.068942,60.372518"
       id="path4635" /><path
       style="fill:#3366cc;stroke:#000000;stroke-width:0.3;stroke-linejoin:round"
       d="m 14.961038,62.346929 7.48052,-1.890985 -10.372616,-0.08343 z"
       id="path4637" /><path
       style="fill:#3366cc;stroke:#000000;stroke-width:0.3;stroke-linejoin:round"
       d="m 22.441558,60.455944 -1.946604,2.391542 3.142375,-0.667408 -1.195771,-1.724134"
       id="path4639" /><path
       style="fill:#3366cc;stroke:#000000;stroke-width:0.3;stroke-linejoin:round"
       d="m 22.441558,60.455944 -5.728576,2.864287 3.781972,-0.472745 z"
       id="path4641" /><path
       style="fill:#3366cc;stroke:#000000;stroke-width:0.3;stroke-linejoin:round"
       d="m 16.712982,63.320231 -1.056728,4.06006 4.8387,-4.532805 z"
       id="path4643" /><path
       style="fill:#3366cc;stroke:#000000;stroke-width:0.3;stroke-linejoin:round"
       d="m 39.877563,65.099985 -3.170182,2.864286 1.557282,-4.171293 z"
       id="path4651" /><path
       style="fill:#3366cc;stroke:#000000;stroke-width:0.3;stroke-linejoin:round"
       d="m 38.264663,63.792978 -4.504997,4.671848 2.947715,-0.500555 1.557282,-4.171293"
       id="path4653" /><path
       style="fill:#3366cc;stroke:#000000;stroke-width:0.3;stroke-linejoin:round"
       d="m 33.759666,68.464826 1.890988,4.894318 1.056727,-5.394873 -2.947715,0.500555"
       id="path4655" /><path
       style="fill:#3366cc;stroke:#000000;stroke-width:0.3;stroke-linejoin:round"
       d="m 35.428184,63.514893 -3.615121,1.446048 6.4516,-1.167963 -2.836479,-0.278085"
       id="path4657" /><path
       style="fill:#3366cc;stroke:#000000;stroke-width:0.3;stroke-linejoin:round"
       d="m 31.813063,64.960941 -1.056727,4.449379 3.281418,-3.670739 z"
       id="path4659" /><path
       style="fill:#3366cc;stroke:#000000;stroke-width:0.3;stroke-linejoin:round"
       d="m 31.813063,64.960941 2.224691,0.77864 4.226909,-1.946603 z"
       id="path4661" /><path
       style="fill:#404040;stroke:#000000;stroke-width:0.3;stroke-linejoin:round"
       d="m 43.826387,56.673972 1.668518,-3.503888 8.954376,10.289191 -10.622894,-6.785303"
       id="path4785" /></g></svg>
